%TF.GenerationSoftware,KiCad,Pcbnew,(6.0.4)*%
%TF.CreationDate,2022-10-30T01:11:02+02:00*%
%TF.ProjectId,65C816_SBC,36354338-3136-45f5-9342-432e6b696361,rev?*%
%TF.SameCoordinates,Original*%
%TF.FileFunction,Paste,Top*%
%TF.FilePolarity,Positive*%
%FSLAX46Y46*%
G04 Gerber Fmt 4.6, Leading zero omitted, Abs format (unit mm)*
G04 Created by KiCad (PCBNEW (6.0.4)) date 2022-10-30 01:11:02*
%MOMM*%
%LPD*%
G01*
G04 APERTURE LIST*
G04 Aperture macros list*
%AMRoundRect*
0 Rectangle with rounded corners*
0 $1 Rounding radius*
0 $2 $3 $4 $5 $6 $7 $8 $9 X,Y pos of 4 corners*
0 Add a 4 corners polygon primitive as box body*
4,1,4,$2,$3,$4,$5,$6,$7,$8,$9,$2,$3,0*
0 Add four circle primitives for the rounded corners*
1,1,$1+$1,$2,$3*
1,1,$1+$1,$4,$5*
1,1,$1+$1,$6,$7*
1,1,$1+$1,$8,$9*
0 Add four rect primitives between the rounded corners*
20,1,$1+$1,$2,$3,$4,$5,0*
20,1,$1+$1,$4,$5,$6,$7,0*
20,1,$1+$1,$6,$7,$8,$9,0*
20,1,$1+$1,$8,$9,$2,$3,0*%
G04 Aperture macros list end*
%ADD10RoundRect,0.150000X-0.700000X-0.150000X0.700000X-0.150000X0.700000X0.150000X-0.700000X0.150000X0*%
%ADD11R,0.400000X1.200000*%
G04 APERTURE END LIST*
D10*
%TO.C,U7*%
X162940000Y-108585000D03*
X162940000Y-109855000D03*
X162940000Y-111125000D03*
X162940000Y-112395000D03*
X162940000Y-113665000D03*
X162940000Y-114935000D03*
X162940000Y-116205000D03*
X162940000Y-117475000D03*
X162940000Y-118745000D03*
X162940000Y-120015000D03*
X162940000Y-121285000D03*
X162940000Y-122555000D03*
X162940000Y-123825000D03*
X162940000Y-125095000D03*
X162940000Y-126365000D03*
X162940000Y-127635000D03*
X162940000Y-128905000D03*
X162940000Y-130175000D03*
X172340000Y-130175000D03*
X172340000Y-128905000D03*
X172340000Y-127635000D03*
X172340000Y-126365000D03*
X172340000Y-125095000D03*
X172340000Y-123825000D03*
X172340000Y-122555000D03*
X172340000Y-121285000D03*
X172340000Y-120015000D03*
X172340000Y-118745000D03*
X172340000Y-117475000D03*
X172340000Y-116205000D03*
X172340000Y-114935000D03*
X172340000Y-113665000D03*
X172340000Y-112395000D03*
X172340000Y-111125000D03*
X172340000Y-109855000D03*
X172340000Y-108585000D03*
%TD*%
%TO.C,U6*%
X178180000Y-108585000D03*
X178180000Y-109855000D03*
X178180000Y-111125000D03*
X178180000Y-112395000D03*
X178180000Y-113665000D03*
X178180000Y-114935000D03*
X178180000Y-116205000D03*
X178180000Y-117475000D03*
X178180000Y-118745000D03*
X178180000Y-120015000D03*
X178180000Y-121285000D03*
X178180000Y-122555000D03*
X178180000Y-123825000D03*
X178180000Y-125095000D03*
X178180000Y-126365000D03*
X178180000Y-127635000D03*
X178180000Y-128905000D03*
X178180000Y-130175000D03*
X187580000Y-130175000D03*
X187580000Y-128905000D03*
X187580000Y-127635000D03*
X187580000Y-126365000D03*
X187580000Y-125095000D03*
X187580000Y-123825000D03*
X187580000Y-122555000D03*
X187580000Y-121285000D03*
X187580000Y-120015000D03*
X187580000Y-118745000D03*
X187580000Y-117475000D03*
X187580000Y-116205000D03*
X187580000Y-114935000D03*
X187580000Y-113665000D03*
X187580000Y-112395000D03*
X187580000Y-111125000D03*
X187580000Y-109855000D03*
X187580000Y-108585000D03*
%TD*%
D11*
%TO.C,U1*%
X108902500Y-69910000D03*
X109537500Y-69910000D03*
X110172500Y-69910000D03*
X110807500Y-69910000D03*
X111442500Y-69910000D03*
X112077500Y-69910000D03*
X112712500Y-69910000D03*
X113347500Y-69910000D03*
X113982500Y-69910000D03*
X114617500Y-69910000D03*
X115252500Y-69910000D03*
X115887500Y-69910000D03*
X115887500Y-64710000D03*
X115252500Y-64710000D03*
X114617500Y-64710000D03*
X113982500Y-64710000D03*
X113347500Y-64710000D03*
X112712500Y-64710000D03*
X112077500Y-64710000D03*
X111442500Y-64710000D03*
X110807500Y-64710000D03*
X110172500Y-64710000D03*
X109537500Y-64710000D03*
X108902500Y-64710000D03*
%TD*%
M02*
