%TF.GenerationSoftware,KiCad,Pcbnew,(6.0.4)*%
%TF.CreationDate,2022-10-30T01:11:02+02:00*%
%TF.ProjectId,65C816_SBC,36354338-3136-45f5-9342-432e6b696361,rev?*%
%TF.SameCoordinates,Original*%
%TF.FileFunction,Soldermask,Bot*%
%TF.FilePolarity,Negative*%
%FSLAX46Y46*%
G04 Gerber Fmt 4.6, Leading zero omitted, Abs format (unit mm)*
G04 Created by KiCad (PCBNEW (6.0.4)) date 2022-10-30 01:11:02*
%MOMM*%
%LPD*%
G01*
G04 APERTURE LIST*
G04 Aperture macros list*
%AMRoundRect*
0 Rectangle with rounded corners*
0 $1 Rounding radius*
0 $2 $3 $4 $5 $6 $7 $8 $9 X,Y pos of 4 corners*
0 Add a 4 corners polygon primitive as box body*
4,1,4,$2,$3,$4,$5,$6,$7,$8,$9,$2,$3,0*
0 Add four circle primitives for the rounded corners*
1,1,$1+$1,$2,$3*
1,1,$1+$1,$4,$5*
1,1,$1+$1,$6,$7*
1,1,$1+$1,$8,$9*
0 Add four rect primitives between the rounded corners*
20,1,$1+$1,$2,$3,$4,$5,0*
20,1,$1+$1,$4,$5,$6,$7,0*
20,1,$1+$1,$6,$7,$8,$9,0*
20,1,$1+$1,$8,$9,$2,$3,0*%
G04 Aperture macros list end*
%ADD10R,1.500000X1.500000*%
%ADD11C,1.500000*%
%ADD12C,1.200000*%
%ADD13C,3.290000*%
%ADD14R,3.500000X3.500000*%
%ADD15RoundRect,0.750000X-1.000000X0.750000X-1.000000X-0.750000X1.000000X-0.750000X1.000000X0.750000X0*%
%ADD16RoundRect,0.875000X-0.875000X0.875000X-0.875000X-0.875000X0.875000X-0.875000X0.875000X0.875000X0*%
%ADD17C,1.600000*%
%ADD18R,1.200000X1.200000*%
%ADD19O,1.600000X1.600000*%
%ADD20R,1.700000X1.700000*%
%ADD21O,1.700000X1.700000*%
%ADD22R,1.422400X1.422400*%
%ADD23C,1.422400*%
%ADD24R,1.509000X1.509000*%
%ADD25C,1.509000*%
%ADD26C,3.525000*%
%ADD27C,6.400000*%
%ADD28C,3.555000*%
%ADD29R,1.905000X2.000000*%
%ADD30O,1.905000X2.000000*%
%ADD31R,1.800000X1.800000*%
%ADD32C,1.800000*%
%ADD33R,1.600000X1.600000*%
%ADD34C,2.600000*%
G04 APERTURE END LIST*
D10*
%TO.C,U11*%
X149040000Y-130820000D03*
D11*
X149040000Y-128280000D03*
X149040000Y-125740000D03*
%TD*%
D12*
%TO.C,S0*%
X188055000Y-60640000D03*
X186055000Y-60640000D03*
X184055000Y-60640000D03*
D13*
X192955000Y-59390000D03*
X179155000Y-59390000D03*
%TD*%
D14*
%TO.C,BJ0*%
X161290000Y-55245000D03*
D15*
X161290000Y-49245000D03*
D16*
X156590000Y-52245000D03*
%TD*%
D17*
%TO.C,C13*%
X121960000Y-100330000D03*
X126960000Y-100330000D03*
%TD*%
%TO.C,C1*%
X116840000Y-58420000D03*
X121840000Y-58420000D03*
%TD*%
D18*
%TO.C,C4*%
X174962600Y-55880000D03*
D12*
X172962600Y-55880000D03*
%TD*%
D17*
%TO.C,C7*%
X146050000Y-91360000D03*
X146050000Y-86360000D03*
%TD*%
%TO.C,R4*%
X101600000Y-107950000D03*
D19*
X104140000Y-107950000D03*
%TD*%
D11*
%TO.C,SW1*%
X145975000Y-136815000D03*
X152475000Y-136815000D03*
X145975000Y-141315000D03*
X152475000Y-141315000D03*
%TD*%
D17*
%TO.C,C11*%
X180380000Y-133350000D03*
X185380000Y-133350000D03*
%TD*%
%TO.C,C0*%
X104140000Y-69810000D03*
X104140000Y-64810000D03*
%TD*%
D20*
%TO.C,J1*%
X149860000Y-63510000D03*
D21*
X152400000Y-63510000D03*
X149860000Y-66050000D03*
X152400000Y-66050000D03*
X149860000Y-68590000D03*
X152400000Y-68590000D03*
X149860000Y-71130000D03*
X152400000Y-71130000D03*
X149860000Y-73670000D03*
X152400000Y-73670000D03*
X149860000Y-76210000D03*
X152400000Y-76210000D03*
X149860000Y-78750000D03*
X152400000Y-78750000D03*
X149860000Y-81290000D03*
X152400000Y-81290000D03*
X149860000Y-83830000D03*
X152400000Y-83830000D03*
X149860000Y-86370000D03*
X152400000Y-86370000D03*
X149860000Y-88910000D03*
X152400000Y-88910000D03*
X149860000Y-91450000D03*
X152400000Y-91450000D03*
X149860000Y-93990000D03*
X152400000Y-93990000D03*
X149860000Y-96530000D03*
X152400000Y-96530000D03*
X149860000Y-99070000D03*
X152400000Y-99070000D03*
X149860000Y-101610000D03*
X152400000Y-101610000D03*
X149860000Y-104150000D03*
X152400000Y-104150000D03*
X149860000Y-106690000D03*
X152400000Y-106690000D03*
X149860000Y-109230000D03*
X152400000Y-109230000D03*
X149860000Y-111770000D03*
X152400000Y-111770000D03*
X149860000Y-114310000D03*
X152400000Y-114310000D03*
X149860000Y-116850000D03*
X152400000Y-116850000D03*
X149860000Y-119390000D03*
X152400000Y-119390000D03*
X149860000Y-121930000D03*
X152400000Y-121930000D03*
%TD*%
D20*
%TO.C,J0*%
X184145000Y-138425000D03*
D21*
X184145000Y-140965000D03*
X181605000Y-138425000D03*
X181605000Y-140965000D03*
X179065000Y-138425000D03*
X179065000Y-140965000D03*
X176525000Y-138425000D03*
X176525000Y-140965000D03*
X173985000Y-138425000D03*
X173985000Y-140965000D03*
%TD*%
D17*
%TO.C,C9*%
X146050000Y-116760000D03*
X146050000Y-111760000D03*
%TD*%
D10*
%TO.C,U10*%
X156660000Y-130820000D03*
D11*
X156660000Y-128280000D03*
X156660000Y-125740000D03*
%TD*%
D20*
%TO.C,J3*%
X149860000Y-50815000D03*
D21*
X149860000Y-53355000D03*
X149860000Y-55895000D03*
%TD*%
D17*
%TO.C,C2*%
X109300000Y-58420000D03*
X114300000Y-58420000D03*
%TD*%
D22*
%TO.C,U8*%
X119380000Y-107950000D03*
D23*
X116840000Y-105410000D03*
X116840000Y-107950000D03*
X114300000Y-105410000D03*
X114300000Y-107950000D03*
X111760000Y-105410000D03*
X109220000Y-107950000D03*
X111760000Y-107950000D03*
X109220000Y-110490000D03*
X111760000Y-110490000D03*
X109220000Y-113030000D03*
X111760000Y-113030000D03*
X109220000Y-115570000D03*
X111760000Y-115570000D03*
X109220000Y-118110000D03*
X111760000Y-118110000D03*
X109220000Y-120650000D03*
X111760000Y-123190000D03*
X111760000Y-120650000D03*
X114300000Y-123190000D03*
X114300000Y-120650000D03*
X116840000Y-123190000D03*
X116840000Y-120650000D03*
X119380000Y-123190000D03*
X119380000Y-120650000D03*
X121920000Y-123190000D03*
X121920000Y-120650000D03*
X124460000Y-123190000D03*
X127000000Y-120650000D03*
X124460000Y-120650000D03*
X127000000Y-118110000D03*
X124460000Y-118110000D03*
X127000000Y-115570000D03*
X124460000Y-115570000D03*
X127000000Y-113030000D03*
X124460000Y-113030000D03*
X127000000Y-110490000D03*
X124460000Y-110490000D03*
X127000000Y-107950000D03*
X124460000Y-105410000D03*
X124460000Y-107950000D03*
X121920000Y-105410000D03*
X121920000Y-107950000D03*
X119380000Y-105410000D03*
%TD*%
D17*
%TO.C,C3*%
X168910000Y-54570000D03*
X168910000Y-49570000D03*
%TD*%
D24*
%TO.C,USB0*%
X114320000Y-54240000D03*
D25*
X116820000Y-54240000D03*
X116820000Y-52240000D03*
X114320000Y-52240000D03*
D26*
X121590000Y-49530000D03*
X109550000Y-49530000D03*
%TD*%
D20*
%TO.C,J2*%
X143515000Y-60325000D03*
D21*
X143515000Y-62865000D03*
X140975000Y-60325000D03*
X140975000Y-62865000D03*
X138435000Y-60325000D03*
X138435000Y-62865000D03*
X135895000Y-60325000D03*
X135895000Y-62865000D03*
X133355000Y-60325000D03*
X133355000Y-62865000D03*
X130815000Y-60325000D03*
X130815000Y-62865000D03*
X128275000Y-60325000D03*
X128275000Y-62865000D03*
%TD*%
D27*
%TO.C,H1*%
X191600000Y-140800000D03*
%TD*%
%TO.C,H3*%
X101600000Y-50800000D03*
%TD*%
D17*
%TO.C,R0*%
X111760000Y-61595000D03*
D19*
X114300000Y-61595000D03*
%TD*%
D17*
%TO.C,C14*%
X121960000Y-129540000D03*
X126960000Y-129540000D03*
%TD*%
%TO.C,R1*%
X119380000Y-61595000D03*
D19*
X116840000Y-61595000D03*
%TD*%
D24*
%TO.C,PS0*%
X134590000Y-52530000D03*
D25*
X137190000Y-52530000D03*
X132540000Y-52530000D03*
X139240000Y-52530000D03*
X132540000Y-55020000D03*
X139240000Y-55020000D03*
D28*
X135890000Y-48720000D03*
X142650000Y-49530000D03*
X129130000Y-49530000D03*
%TD*%
D22*
%TO.C,U3*%
X175260000Y-71120000D03*
D23*
X175260000Y-73660000D03*
X172720000Y-71120000D03*
X172720000Y-73660000D03*
X170180000Y-71120000D03*
X170180000Y-73660000D03*
X167640000Y-71120000D03*
X167640000Y-73660000D03*
X165100000Y-71120000D03*
X165100000Y-73660000D03*
X162560000Y-71120000D03*
X160020000Y-73660000D03*
X162560000Y-73660000D03*
X160020000Y-76200000D03*
X162560000Y-76200000D03*
X160020000Y-78740000D03*
X162560000Y-78740000D03*
X160020000Y-81280000D03*
X162560000Y-81280000D03*
X160020000Y-83820000D03*
X162560000Y-83820000D03*
X160020000Y-86360000D03*
X162560000Y-86360000D03*
X160020000Y-88900000D03*
X162560000Y-88900000D03*
X160020000Y-91440000D03*
X162560000Y-91440000D03*
X160020000Y-93980000D03*
X162560000Y-93980000D03*
X160020000Y-96520000D03*
X162560000Y-96520000D03*
X160020000Y-99060000D03*
X162560000Y-101600000D03*
X162560000Y-99060000D03*
X165100000Y-101600000D03*
X165100000Y-99060000D03*
X167640000Y-101600000D03*
X167640000Y-99060000D03*
X170180000Y-101600000D03*
X170180000Y-99060000D03*
X172720000Y-101600000D03*
X172720000Y-99060000D03*
X175260000Y-101600000D03*
X175260000Y-99060000D03*
X177800000Y-101600000D03*
X177800000Y-99060000D03*
X180340000Y-101600000D03*
X180340000Y-99060000D03*
X182880000Y-101600000D03*
X182880000Y-99060000D03*
X185420000Y-101600000D03*
X185420000Y-99060000D03*
X187960000Y-101600000D03*
X190500000Y-99060000D03*
X187960000Y-99060000D03*
X190500000Y-96520000D03*
X187960000Y-96520000D03*
X190500000Y-93980000D03*
X187960000Y-93980000D03*
X190500000Y-91440000D03*
X187960000Y-91440000D03*
X190500000Y-88900000D03*
X187960000Y-88900000D03*
X190500000Y-86360000D03*
X187960000Y-86360000D03*
X190500000Y-83820000D03*
X187960000Y-83820000D03*
X190500000Y-81280000D03*
X187960000Y-81280000D03*
X190500000Y-78740000D03*
X187960000Y-78740000D03*
X190500000Y-76200000D03*
X187960000Y-76200000D03*
X190500000Y-73660000D03*
X187960000Y-71120000D03*
X187960000Y-73660000D03*
X185420000Y-71120000D03*
X185420000Y-73660000D03*
X182880000Y-71120000D03*
X182880000Y-73660000D03*
X180340000Y-71120000D03*
X180340000Y-73660000D03*
X177800000Y-71120000D03*
X177800000Y-73660000D03*
%TD*%
D11*
%TO.C,SW0*%
X158675000Y-136815000D03*
X165175000Y-136815000D03*
X158675000Y-141315000D03*
X165175000Y-141315000D03*
%TD*%
D17*
%TO.C,C5*%
X99140000Y-74930000D03*
X104140000Y-74930000D03*
%TD*%
D22*
%TO.C,U4*%
X133350000Y-72390000D03*
D23*
X130810000Y-69850000D03*
X130810000Y-72390000D03*
X128270000Y-69850000D03*
X128270000Y-72390000D03*
X125730000Y-69850000D03*
X123190000Y-72390000D03*
X125730000Y-72390000D03*
X123190000Y-74930000D03*
X125730000Y-74930000D03*
X123190000Y-77470000D03*
X125730000Y-77470000D03*
X123190000Y-80010000D03*
X125730000Y-80010000D03*
X123190000Y-82550000D03*
X125730000Y-82550000D03*
X123190000Y-85090000D03*
X125730000Y-87630000D03*
X125730000Y-85090000D03*
X128270000Y-87630000D03*
X128270000Y-85090000D03*
X130810000Y-87630000D03*
X130810000Y-85090000D03*
X133350000Y-87630000D03*
X133350000Y-85090000D03*
X135890000Y-87630000D03*
X135890000Y-85090000D03*
X138430000Y-87630000D03*
X140970000Y-85090000D03*
X138430000Y-85090000D03*
X140970000Y-82550000D03*
X138430000Y-82550000D03*
X140970000Y-80010000D03*
X138430000Y-80010000D03*
X140970000Y-77470000D03*
X138430000Y-77470000D03*
X140970000Y-74930000D03*
X138430000Y-74930000D03*
X140970000Y-72390000D03*
X138430000Y-69850000D03*
X138430000Y-72390000D03*
X135890000Y-69850000D03*
X135890000Y-72390000D03*
X133350000Y-69850000D03*
%TD*%
D27*
%TO.C,H0*%
X191600000Y-50800000D03*
%TD*%
D29*
%TO.C,U0*%
X176530000Y-49840000D03*
D30*
X179070000Y-49840000D03*
X181610000Y-49840000D03*
%TD*%
D31*
%TO.C,D0*%
X161290000Y-63500000D03*
D32*
X163830000Y-63500000D03*
%TD*%
D17*
%TO.C,C10*%
X165140000Y-133350000D03*
X170140000Y-133350000D03*
%TD*%
D22*
%TO.C,U5*%
X109220000Y-82550000D03*
D23*
X106680000Y-80010000D03*
X106680000Y-82550000D03*
X104140000Y-80010000D03*
X101600000Y-82550000D03*
X104140000Y-82550000D03*
X101600000Y-85090000D03*
X104140000Y-85090000D03*
X101600000Y-87630000D03*
X104140000Y-87630000D03*
X101600000Y-90170000D03*
X104140000Y-90170000D03*
X101600000Y-92710000D03*
X104140000Y-95250000D03*
X104140000Y-92710000D03*
X106680000Y-95250000D03*
X106680000Y-92710000D03*
X109220000Y-95250000D03*
X109220000Y-92710000D03*
X111760000Y-95250000D03*
X114300000Y-92710000D03*
X111760000Y-92710000D03*
X114300000Y-90170000D03*
X111760000Y-90170000D03*
X114300000Y-87630000D03*
X111760000Y-87630000D03*
X114300000Y-85090000D03*
X111760000Y-85090000D03*
X114300000Y-82550000D03*
X111760000Y-80010000D03*
X111760000Y-82550000D03*
X109220000Y-80010000D03*
%TD*%
D33*
%TO.C,U9*%
X142230000Y-125725000D03*
D19*
X142230000Y-123185000D03*
X142230000Y-120645000D03*
X142230000Y-118105000D03*
X142230000Y-115565000D03*
X142230000Y-113025000D03*
X142230000Y-110485000D03*
X142230000Y-107945000D03*
X142230000Y-105405000D03*
X142230000Y-102865000D03*
X134610000Y-102865000D03*
X134610000Y-105405000D03*
X134610000Y-107945000D03*
X134610000Y-110485000D03*
X134610000Y-113025000D03*
X134610000Y-115565000D03*
X134610000Y-118105000D03*
X134610000Y-120645000D03*
X134610000Y-123185000D03*
X134610000Y-125725000D03*
%TD*%
D33*
%TO.C,X0*%
X109855000Y-140970000D03*
D17*
X117475000Y-140970000D03*
X117475000Y-133350000D03*
X109855000Y-133350000D03*
%TD*%
D33*
%TO.C,U2*%
X124455000Y-140960000D03*
D19*
X126995000Y-140960000D03*
X129535000Y-140960000D03*
X132075000Y-140960000D03*
X134615000Y-140960000D03*
X137155000Y-140960000D03*
X139695000Y-140960000D03*
X139695000Y-133340000D03*
X137155000Y-133340000D03*
X134615000Y-133340000D03*
X132075000Y-133340000D03*
X129535000Y-133340000D03*
X126995000Y-133340000D03*
X124455000Y-133340000D03*
%TD*%
D17*
%TO.C,C12*%
X180380000Y-66040000D03*
X185380000Y-66040000D03*
%TD*%
D27*
%TO.C,H2*%
X101600000Y-140800000D03*
%TD*%
D17*
%TO.C,C6*%
X146050000Y-73660000D03*
X146050000Y-78660000D03*
%TD*%
%TO.C,C8*%
X146050000Y-104100000D03*
X146050000Y-99100000D03*
%TD*%
%TO.C,R2*%
X170180000Y-63500000D03*
D19*
X167640000Y-63500000D03*
%TD*%
D33*
%TO.C,RN0*%
X121905000Y-94615000D03*
D19*
X124445000Y-94615000D03*
X126985000Y-94615000D03*
X129525000Y-94615000D03*
X132065000Y-94615000D03*
X134605000Y-94615000D03*
X137145000Y-94615000D03*
X139685000Y-94615000D03*
X142225000Y-94615000D03*
%TD*%
D17*
%TO.C,R3*%
X101600000Y-102870000D03*
D19*
X104140000Y-102870000D03*
%TD*%
D34*
%TO.C,TP0*%
X101600000Y-133350000D03*
X101600000Y-128270000D03*
%TD*%
M02*
