%TF.GenerationSoftware,KiCad,Pcbnew,(6.0.4)*%
%TF.CreationDate,2022-10-30T01:11:02+02:00*%
%TF.ProjectId,65C816_SBC,36354338-3136-45f5-9342-432e6b696361,rev?*%
%TF.SameCoordinates,Original*%
%TF.FileFunction,Copper,L4,Bot*%
%TF.FilePolarity,Positive*%
%FSLAX46Y46*%
G04 Gerber Fmt 4.6, Leading zero omitted, Abs format (unit mm)*
G04 Created by KiCad (PCBNEW (6.0.4)) date 2022-10-30 01:11:02*
%MOMM*%
%LPD*%
G01*
G04 APERTURE LIST*
G04 Aperture macros list*
%AMRoundRect*
0 Rectangle with rounded corners*
0 $1 Rounding radius*
0 $2 $3 $4 $5 $6 $7 $8 $9 X,Y pos of 4 corners*
0 Add a 4 corners polygon primitive as box body*
4,1,4,$2,$3,$4,$5,$6,$7,$8,$9,$2,$3,0*
0 Add four circle primitives for the rounded corners*
1,1,$1+$1,$2,$3*
1,1,$1+$1,$4,$5*
1,1,$1+$1,$6,$7*
1,1,$1+$1,$8,$9*
0 Add four rect primitives between the rounded corners*
20,1,$1+$1,$2,$3,$4,$5,0*
20,1,$1+$1,$4,$5,$6,$7,0*
20,1,$1+$1,$6,$7,$8,$9,0*
20,1,$1+$1,$8,$9,$2,$3,0*%
G04 Aperture macros list end*
%TA.AperFunction,ComponentPad*%
%ADD10R,1.500000X1.500000*%
%TD*%
%TA.AperFunction,ComponentPad*%
%ADD11C,1.500000*%
%TD*%
%TA.AperFunction,ComponentPad*%
%ADD12C,1.200000*%
%TD*%
%TA.AperFunction,ComponentPad*%
%ADD13C,3.290000*%
%TD*%
%TA.AperFunction,ComponentPad*%
%ADD14R,3.500000X3.500000*%
%TD*%
%TA.AperFunction,ComponentPad*%
%ADD15RoundRect,0.750000X-1.000000X0.750000X-1.000000X-0.750000X1.000000X-0.750000X1.000000X0.750000X0*%
%TD*%
%TA.AperFunction,ComponentPad*%
%ADD16RoundRect,0.875000X-0.875000X0.875000X-0.875000X-0.875000X0.875000X-0.875000X0.875000X0.875000X0*%
%TD*%
%TA.AperFunction,ComponentPad*%
%ADD17C,1.600000*%
%TD*%
%TA.AperFunction,ComponentPad*%
%ADD18R,1.200000X1.200000*%
%TD*%
%TA.AperFunction,ComponentPad*%
%ADD19O,1.600000X1.600000*%
%TD*%
%TA.AperFunction,ComponentPad*%
%ADD20R,1.700000X1.700000*%
%TD*%
%TA.AperFunction,ComponentPad*%
%ADD21O,1.700000X1.700000*%
%TD*%
%TA.AperFunction,ComponentPad*%
%ADD22R,1.422400X1.422400*%
%TD*%
%TA.AperFunction,ComponentPad*%
%ADD23C,1.422400*%
%TD*%
%TA.AperFunction,ComponentPad*%
%ADD24R,1.509000X1.509000*%
%TD*%
%TA.AperFunction,ComponentPad*%
%ADD25C,1.509000*%
%TD*%
%TA.AperFunction,ComponentPad*%
%ADD26C,3.525000*%
%TD*%
%TA.AperFunction,ComponentPad*%
%ADD27C,6.400000*%
%TD*%
%TA.AperFunction,ComponentPad*%
%ADD28C,3.555000*%
%TD*%
%TA.AperFunction,ComponentPad*%
%ADD29R,1.905000X2.000000*%
%TD*%
%TA.AperFunction,ComponentPad*%
%ADD30O,1.905000X2.000000*%
%TD*%
%TA.AperFunction,ComponentPad*%
%ADD31R,1.800000X1.800000*%
%TD*%
%TA.AperFunction,ComponentPad*%
%ADD32C,1.800000*%
%TD*%
%TA.AperFunction,ComponentPad*%
%ADD33R,1.600000X1.600000*%
%TD*%
%TA.AperFunction,ComponentPad*%
%ADD34C,2.600000*%
%TD*%
%TA.AperFunction,ViaPad*%
%ADD35C,0.800000*%
%TD*%
%TA.AperFunction,Conductor*%
%ADD36C,0.250000*%
%TD*%
G04 APERTURE END LIST*
D10*
%TO.P,U11,1,~{RST}*%
%TO.N,/~{NMI}*%
X149040000Y-130820000D03*
D11*
%TO.P,U11,2,Vcc*%
%TO.N,/5V*%
X149040000Y-128280000D03*
%TO.P,U11,3,GND*%
%TO.N,/GND*%
X149040000Y-125740000D03*
%TD*%
D12*
%TO.P,S0,1,ON_1*%
%TO.N,/5V*%
X188055000Y-60640000D03*
%TO.P,S0,2,COM*%
%TO.N,/PWR_IN*%
X186055000Y-60640000D03*
%TO.P,S0,3,ON_2*%
%TO.N,unconnected-(S0-Pad3)*%
X184055000Y-60640000D03*
D13*
%TO.P,S0,4,MH1*%
%TO.N,/GND*%
X192955000Y-59390000D03*
%TO.P,S0,5,MH2*%
X179155000Y-59390000D03*
%TD*%
D14*
%TO.P,BJ0,1*%
%TO.N,Net-(BJ0-Pad1)*%
X161290000Y-55245000D03*
D15*
%TO.P,BJ0,2*%
%TO.N,/GND*%
X161290000Y-49245000D03*
D16*
%TO.P,BJ0,3*%
X156590000Y-52245000D03*
%TD*%
D17*
%TO.P,C13,1*%
%TO.N,/GND*%
X121960000Y-100330000D03*
%TO.P,C13,2*%
%TO.N,/5V*%
X126960000Y-100330000D03*
%TD*%
%TO.P,C1,1*%
%TO.N,Net-(C1-Pad1)*%
X116840000Y-58420000D03*
%TO.P,C1,2*%
%TO.N,/GND*%
X121840000Y-58420000D03*
%TD*%
D18*
%TO.P,C4,1*%
%TO.N,/PWR_IN*%
X174962600Y-55880000D03*
D12*
%TO.P,C4,2*%
%TO.N,/GND*%
X172962600Y-55880000D03*
%TD*%
D17*
%TO.P,C7,1*%
%TO.N,/GND*%
X146050000Y-91360000D03*
%TO.P,C7,2*%
%TO.N,/5V*%
X146050000Y-86360000D03*
%TD*%
%TO.P,R4,1*%
%TO.N,/5V*%
X101600000Y-107950000D03*
D19*
%TO.P,R4,2*%
%TO.N,/~{NMI}*%
X104140000Y-107950000D03*
%TD*%
D11*
%TO.P,SW1,1*%
%TO.N,/~{NMI}*%
X145975000Y-136815000D03*
%TO.P,SW1,2*%
X152475000Y-136815000D03*
%TO.P,SW1,3*%
%TO.N,/GND*%
X145975000Y-141315000D03*
%TO.P,SW1,4*%
X152475000Y-141315000D03*
%TD*%
D17*
%TO.P,C11,1*%
%TO.N,/GND*%
X180380000Y-133350000D03*
%TO.P,C11,2*%
%TO.N,/5V*%
X185380000Y-133350000D03*
%TD*%
%TO.P,C0,1*%
%TO.N,/3V3*%
X104140000Y-69810000D03*
%TO.P,C0,2*%
%TO.N,/GND*%
X104140000Y-64810000D03*
%TD*%
D20*
%TO.P,J1,1,Pin_1*%
%TO.N,/A22*%
X149860000Y-63510000D03*
D21*
%TO.P,J1,2,Pin_2*%
%TO.N,/A23*%
X152400000Y-63510000D03*
%TO.P,J1,3,Pin_3*%
%TO.N,/A20*%
X149860000Y-66050000D03*
%TO.P,J1,4,Pin_4*%
%TO.N,/A21*%
X152400000Y-66050000D03*
%TO.P,J1,5,Pin_5*%
%TO.N,/A18*%
X149860000Y-68590000D03*
%TO.P,J1,6,Pin_6*%
%TO.N,/A19*%
X152400000Y-68590000D03*
%TO.P,J1,7,Pin_7*%
%TO.N,/A16*%
X149860000Y-71130000D03*
%TO.P,J1,8,Pin_8*%
%TO.N,/A17*%
X152400000Y-71130000D03*
%TO.P,J1,9,Pin_9*%
%TO.N,/GND*%
X149860000Y-73670000D03*
%TO.P,J1,10,Pin_10*%
%TO.N,/5V*%
X152400000Y-73670000D03*
%TO.P,J1,11,Pin_11*%
%TO.N,/A14*%
X149860000Y-76210000D03*
%TO.P,J1,12,Pin_12*%
%TO.N,/A15*%
X152400000Y-76210000D03*
%TO.P,J1,13,Pin_13*%
%TO.N,/A12*%
X149860000Y-78750000D03*
%TO.P,J1,14,Pin_14*%
%TO.N,/A13*%
X152400000Y-78750000D03*
%TO.P,J1,15,Pin_15*%
%TO.N,/A10*%
X149860000Y-81290000D03*
%TO.P,J1,16,Pin_16*%
%TO.N,/A11*%
X152400000Y-81290000D03*
%TO.P,J1,17,Pin_17*%
%TO.N,/A8*%
X149860000Y-83830000D03*
%TO.P,J1,18,Pin_18*%
%TO.N,/A9*%
X152400000Y-83830000D03*
%TO.P,J1,19,Pin_19*%
%TO.N,/GND*%
X149860000Y-86370000D03*
%TO.P,J1,20,Pin_20*%
%TO.N,/5V*%
X152400000Y-86370000D03*
%TO.P,J1,21,Pin_21*%
%TO.N,/A6*%
X149860000Y-88910000D03*
%TO.P,J1,22,Pin_22*%
%TO.N,/A7*%
X152400000Y-88910000D03*
%TO.P,J1,23,Pin_23*%
%TO.N,/A4*%
X149860000Y-91450000D03*
%TO.P,J1,24,Pin_24*%
%TO.N,/A5*%
X152400000Y-91450000D03*
%TO.P,J1,25,Pin_25*%
%TO.N,/A2*%
X149860000Y-93990000D03*
%TO.P,J1,26,Pin_26*%
%TO.N,/A3*%
X152400000Y-93990000D03*
%TO.P,J1,27,Pin_27*%
%TO.N,/A0*%
X149860000Y-96530000D03*
%TO.P,J1,28,Pin_28*%
%TO.N,/A1*%
X152400000Y-96530000D03*
%TO.P,J1,29,Pin_29*%
%TO.N,/GND*%
X149860000Y-99070000D03*
%TO.P,J1,30,Pin_30*%
%TO.N,/5V*%
X152400000Y-99070000D03*
%TO.P,J1,31,Pin_31*%
%TO.N,/MD6*%
X149860000Y-101610000D03*
%TO.P,J1,32,Pin_32*%
%TO.N,/MD7*%
X152400000Y-101610000D03*
%TO.P,J1,33,Pin_33*%
%TO.N,/MD4*%
X149860000Y-104150000D03*
%TO.P,J1,34,Pin_34*%
%TO.N,/MD5*%
X152400000Y-104150000D03*
%TO.P,J1,35,Pin_35*%
%TO.N,/MD2*%
X149860000Y-106690000D03*
%TO.P,J1,36,Pin_36*%
%TO.N,/MD3*%
X152400000Y-106690000D03*
%TO.P,J1,37,Pin_37*%
%TO.N,/MD0*%
X149860000Y-109230000D03*
%TO.P,J1,38,Pin_38*%
%TO.N,/MD1*%
X152400000Y-109230000D03*
%TO.P,J1,39,Pin_39*%
%TO.N,/GND*%
X149860000Y-111770000D03*
%TO.P,J1,40,Pin_40*%
%TO.N,/5V*%
X152400000Y-111770000D03*
%TO.P,J1,41,Pin_41*%
%TO.N,/PHI2*%
X149860000Y-114310000D03*
%TO.P,J1,42,Pin_42*%
%TO.N,/PHI1*%
X152400000Y-114310000D03*
%TO.P,J1,43,Pin_43*%
%TO.N,/GCLK*%
X149860000Y-116850000D03*
%TO.P,J1,44,Pin_44*%
%TO.N,/~{IRQ_EXT}*%
X152400000Y-116850000D03*
%TO.P,J1,45,Pin_45*%
%TO.N,/R~{W}*%
X149860000Y-119390000D03*
%TO.P,J1,46,Pin_46*%
%TO.N,/~{CS_EXT}*%
X152400000Y-119390000D03*
%TO.P,J1,47,Pin_47*%
%TO.N,/~{WSE_EXT}*%
X149860000Y-121930000D03*
%TO.P,J1,48,Pin_48*%
%TO.N,/~{CS_IO}*%
X152400000Y-121930000D03*
%TD*%
D20*
%TO.P,J0,1,Pin_1*%
%TO.N,/TCK_08*%
X184145000Y-138425000D03*
D21*
%TO.P,J0,2,Pin_2*%
%TO.N,/GND*%
X184145000Y-140965000D03*
%TO.P,J0,3,Pin_3*%
%TO.N,/TDO_08*%
X181605000Y-138425000D03*
%TO.P,J0,4,Pin_4*%
%TO.N,/5V*%
X181605000Y-140965000D03*
%TO.P,J0,5,Pin_5*%
%TO.N,/TMS_08*%
X179065000Y-138425000D03*
%TO.P,J0,6,Pin_6*%
%TO.N,unconnected-(J0-Pad6)*%
X179065000Y-140965000D03*
%TO.P,J0,7,Pin_7*%
%TO.N,unconnected-(J0-Pad7)*%
X176525000Y-138425000D03*
%TO.P,J0,8,Pin_8*%
%TO.N,unconnected-(J0-Pad8)*%
X176525000Y-140965000D03*
%TO.P,J0,9,Pin_9*%
%TO.N,/TDI_08*%
X173985000Y-138425000D03*
%TO.P,J0,10,Pin_10*%
%TO.N,/GND*%
X173985000Y-140965000D03*
%TD*%
D17*
%TO.P,C9,1*%
%TO.N,/GND*%
X146050000Y-116760000D03*
%TO.P,C9,2*%
%TO.N,/5V*%
X146050000Y-111760000D03*
%TD*%
D10*
%TO.P,U10,1,~{RST}*%
%TO.N,/~{RST}*%
X156660000Y-130820000D03*
D11*
%TO.P,U10,2,Vcc*%
%TO.N,/5V*%
X156660000Y-128280000D03*
%TO.P,U10,3,GND*%
%TO.N,/GND*%
X156660000Y-125740000D03*
%TD*%
D20*
%TO.P,J3,1,Pin_1*%
%TO.N,/PB4*%
X149860000Y-50815000D03*
D21*
%TO.P,J3,2,Pin_2*%
%TO.N,/PB5*%
X149860000Y-53355000D03*
%TO.P,J3,3,Pin_3*%
%TO.N,/PB6*%
X149860000Y-55895000D03*
%TD*%
D17*
%TO.P,C2,1*%
%TO.N,/GND*%
X109300000Y-58420000D03*
%TO.P,C2,2*%
%TO.N,Net-(C2-Pad2)*%
X114300000Y-58420000D03*
%TD*%
D22*
%TO.P,U8,1,GND*%
%TO.N,/GND*%
X119380000Y-107950000D03*
D23*
%TO.P,U8,2,VPB*%
%TO.N,unconnected-(U8-Pad2)*%
X116840000Y-105410000D03*
%TO.P,U8,3,RDY*%
%TO.N,/RDY*%
X116840000Y-107950000D03*
%TO.P,U8,4,~{ABT}*%
%TO.N,/~{ABT}*%
X114300000Y-105410000D03*
%TO.P,U8,5,~{IRQ}*%
%TO.N,/~{IRQ_CPU}*%
X114300000Y-107950000D03*
%TO.P,U8,6,~{MLB}*%
%TO.N,unconnected-(U8-Pad6)*%
X111760000Y-105410000D03*
%TO.P,U8,7,~{NMI}*%
%TO.N,/~{NMI}*%
X109220000Y-107950000D03*
%TO.P,U8,8,VPA*%
%TO.N,/VPA*%
X111760000Y-107950000D03*
%TO.P,U8,9,Vcc*%
%TO.N,/5V*%
X109220000Y-110490000D03*
%TO.P,U8,10,A0*%
%TO.N,/A0*%
X111760000Y-110490000D03*
%TO.P,U8,11,A1*%
%TO.N,/A1*%
X109220000Y-113030000D03*
%TO.P,U8,12,NC*%
%TO.N,unconnected-(U8-Pad12)*%
X111760000Y-113030000D03*
%TO.P,U8,13,A2*%
%TO.N,/A2*%
X109220000Y-115570000D03*
%TO.P,U8,14,A3*%
%TO.N,/A3*%
X111760000Y-115570000D03*
%TO.P,U8,15,A4*%
%TO.N,/A4*%
X109220000Y-118110000D03*
%TO.P,U8,16,A5*%
%TO.N,/A5*%
X111760000Y-118110000D03*
%TO.P,U8,17,A6*%
%TO.N,/A6*%
X109220000Y-120650000D03*
%TO.P,U8,18,A7*%
%TO.N,/A7*%
X111760000Y-123190000D03*
%TO.P,U8,19,A8*%
%TO.N,/A8*%
X111760000Y-120650000D03*
%TO.P,U8,20,A9*%
%TO.N,/A9*%
X114300000Y-123190000D03*
%TO.P,U8,21,A10*%
%TO.N,/A10*%
X114300000Y-120650000D03*
%TO.P,U8,22,A11*%
%TO.N,/A11*%
X116840000Y-123190000D03*
%TO.P,U8,23,GND*%
%TO.N,/GND*%
X116840000Y-120650000D03*
%TO.P,U8,24,GND*%
X119380000Y-123190000D03*
%TO.P,U8,25,A12*%
%TO.N,/A12*%
X119380000Y-120650000D03*
%TO.P,U8,26,A13*%
%TO.N,/A13*%
X121920000Y-123190000D03*
%TO.P,U8,27,A14*%
%TO.N,/A14*%
X121920000Y-120650000D03*
%TO.P,U8,28,A15*%
%TO.N,/A15*%
X124460000Y-123190000D03*
%TO.P,U8,29,AD7*%
%TO.N,/AD7*%
X127000000Y-120650000D03*
%TO.P,U8,30,AD6*%
%TO.N,/AD6*%
X124460000Y-120650000D03*
%TO.P,U8,31,AD5*%
%TO.N,/AD5*%
X127000000Y-118110000D03*
%TO.P,U8,32,AD4*%
%TO.N,/AD4*%
X124460000Y-118110000D03*
%TO.P,U8,33,AD3*%
%TO.N,/AD3*%
X127000000Y-115570000D03*
%TO.P,U8,34,AD2*%
%TO.N,/AD2*%
X124460000Y-115570000D03*
%TO.P,U8,35,AD1*%
%TO.N,/AD1*%
X127000000Y-113030000D03*
%TO.P,U8,36,AD0*%
%TO.N,/AD0*%
X124460000Y-113030000D03*
%TO.P,U8,37,Vcc*%
%TO.N,/5V*%
X127000000Y-110490000D03*
%TO.P,U8,38,R/~{W}*%
%TO.N,/R~{W}*%
X124460000Y-110490000D03*
%TO.P,U8,39,E*%
%TO.N,unconnected-(U8-Pad39)*%
X127000000Y-107950000D03*
%TO.P,U8,40,BE*%
%TO.N,/BE*%
X124460000Y-105410000D03*
%TO.P,U8,41,CLK*%
%TO.N,/PHI2*%
X124460000Y-107950000D03*
%TO.P,U8,42,MX*%
%TO.N,unconnected-(U8-Pad42)*%
X121920000Y-105410000D03*
%TO.P,U8,43,VDA*%
%TO.N,/VDA*%
X121920000Y-107950000D03*
%TO.P,U8,44,~{RST}*%
%TO.N,/~{RST}*%
X119380000Y-105410000D03*
%TD*%
D17*
%TO.P,C3,1*%
%TO.N,Net-(BJ0-Pad1)*%
X168910000Y-54570000D03*
%TO.P,C3,2*%
%TO.N,/GND*%
X168910000Y-49570000D03*
%TD*%
D24*
%TO.P,USB0,1,VCC*%
%TO.N,/USB_5V*%
X114320000Y-54240000D03*
D25*
%TO.P,USB0,2,DM*%
%TO.N,Net-(C2-Pad2)*%
X116820000Y-54240000D03*
%TO.P,USB0,3,DP*%
%TO.N,Net-(C1-Pad1)*%
X116820000Y-52240000D03*
%TO.P,USB0,4,GND*%
%TO.N,/GND*%
X114320000Y-52240000D03*
D26*
%TO.P,USB0,MH1,GND*%
X121590000Y-49530000D03*
%TO.P,USB0,MH2,GND*%
X109550000Y-49530000D03*
%TD*%
D20*
%TO.P,J2,1,Pin_1*%
%TO.N,/CA1*%
X143515000Y-60325000D03*
D21*
%TO.P,J2,2,Pin_2*%
%TO.N,/CA2*%
X143515000Y-62865000D03*
%TO.P,J2,3,Pin_3*%
%TO.N,/GND*%
X140975000Y-60325000D03*
%TO.P,J2,4,Pin_4*%
%TO.N,/5V*%
X140975000Y-62865000D03*
%TO.P,J2,5,Pin_5*%
%TO.N,/PA0*%
X138435000Y-60325000D03*
%TO.P,J2,6,Pin_6*%
%TO.N,/PA1*%
X138435000Y-62865000D03*
%TO.P,J2,7,Pin_7*%
%TO.N,/PA2*%
X135895000Y-60325000D03*
%TO.P,J2,8,Pin_8*%
%TO.N,/PA3*%
X135895000Y-62865000D03*
%TO.P,J2,9,Pin_9*%
%TO.N,/PA4*%
X133355000Y-60325000D03*
%TO.P,J2,10,Pin_10*%
%TO.N,/PA5*%
X133355000Y-62865000D03*
%TO.P,J2,11,Pin_11*%
%TO.N,/GND*%
X130815000Y-60325000D03*
%TO.P,J2,12,Pin_12*%
%TO.N,/5V*%
X130815000Y-62865000D03*
%TO.P,J2,13,Pin_13*%
%TO.N,/PA6*%
X128275000Y-60325000D03*
%TO.P,J2,14,Pin_14*%
%TO.N,/PA7*%
X128275000Y-62865000D03*
%TD*%
D27*
%TO.P,H1,1,1*%
%TO.N,/GND*%
X191600000Y-140800000D03*
%TD*%
%TO.P,H3,1,1*%
%TO.N,/GND*%
X101600000Y-50800000D03*
%TD*%
D17*
%TO.P,R0,1*%
%TO.N,Net-(C2-Pad2)*%
X111760000Y-61595000D03*
D19*
%TO.P,R0,2*%
%TO.N,Net-(R0-Pad2)*%
X114300000Y-61595000D03*
%TD*%
D17*
%TO.P,C14,1*%
%TO.N,/GND*%
X121960000Y-129540000D03*
%TO.P,C14,2*%
%TO.N,/5V*%
X126960000Y-129540000D03*
%TD*%
%TO.P,R1,1*%
%TO.N,Net-(C1-Pad1)*%
X119380000Y-61595000D03*
D19*
%TO.P,R1,2*%
%TO.N,Net-(R1-Pad2)*%
X116840000Y-61595000D03*
%TD*%
D24*
%TO.P,PS0,1,DATA*%
%TO.N,/PS2K_D*%
X134590000Y-52530000D03*
D25*
%TO.P,PS0,2,NC*%
%TO.N,/PS2M_D*%
X137190000Y-52530000D03*
%TO.P,PS0,3,GND*%
%TO.N,/GND*%
X132540000Y-52530000D03*
%TO.P,PS0,4,5V*%
%TO.N,/5V*%
X139240000Y-52530000D03*
%TO.P,PS0,5,CLK*%
%TO.N,/PS2K_C*%
X132540000Y-55020000D03*
%TO.P,PS0,6,NC*%
%TO.N,/PS2M_C*%
X139240000Y-55020000D03*
D28*
%TO.P,PS0,MH1,GND*%
%TO.N,/GND*%
X135890000Y-48720000D03*
%TO.P,PS0,MH2,GND*%
X142650000Y-49530000D03*
%TO.P,PS0,MH3,GND*%
X129130000Y-49530000D03*
%TD*%
D22*
%TO.P,U3,1,INPUT/GCLR*%
%TO.N,/~{RST}*%
X175260000Y-71120000D03*
D23*
%TO.P,U3,2,INPUT/OE2/GCLK2*%
%TO.N,/GCLK*%
X175260000Y-73660000D03*
%TO.P,U3,3,VCCINT_1*%
%TO.N,/5V*%
X172720000Y-71120000D03*
%TO.P,U3,4,I/O_1*%
%TO.N,/~{CS_VIA}*%
X172720000Y-73660000D03*
%TO.P,U3,5,I/O_2*%
%TO.N,/~{IRQ_VIA}*%
X170180000Y-71120000D03*
%TO.P,U3,6,I/O_3*%
%TO.N,/FT_WR*%
X170180000Y-73660000D03*
%TO.P,U3,7,GND_1*%
%TO.N,/GND*%
X167640000Y-71120000D03*
%TO.P,U3,8,I/O_4*%
%TO.N,/~{FT_RD}*%
X167640000Y-73660000D03*
%TO.P,U3,9,I/O_5*%
%TO.N,/~{FT_TXE}*%
X165100000Y-71120000D03*
%TO.P,U3,10,I/O_6*%
%TO.N,/~{FT_RXF}*%
X165100000Y-73660000D03*
%TO.P,U3,11,I/O_7*%
%TO.N,/~{WSE}*%
X162560000Y-71120000D03*
%TO.P,U3,12,I/O/PD1*%
%TO.N,/MD0*%
X160020000Y-73660000D03*
%TO.P,U3,13,VCCIO_1*%
%TO.N,/5V*%
X162560000Y-73660000D03*
%TO.P,U3,14,I/O/TDI*%
%TO.N,/TDI_08*%
X160020000Y-76200000D03*
%TO.P,U3,15,I/O_8*%
%TO.N,/MD1*%
X162560000Y-76200000D03*
%TO.P,U3,16,I/O_9*%
%TO.N,/MD2*%
X160020000Y-78740000D03*
%TO.P,U3,17,I/O_10*%
%TO.N,/MD3*%
X162560000Y-78740000D03*
%TO.P,U3,18,I/O_11*%
%TO.N,/MD4*%
X160020000Y-81280000D03*
%TO.P,U3,19,GND_2*%
%TO.N,/GND*%
X162560000Y-81280000D03*
%TO.P,U3,20,I/O_12*%
%TO.N,/MD5*%
X160020000Y-83820000D03*
%TO.P,U3,21,I/O_13*%
%TO.N,/MD6*%
X162560000Y-83820000D03*
%TO.P,U3,22,I/O_14*%
%TO.N,/MD7*%
X160020000Y-86360000D03*
%TO.P,U3,23,I/O/TMS*%
%TO.N,/TMS_08*%
X162560000Y-86360000D03*
%TO.P,U3,24,I/O_15*%
%TO.N,/VPA*%
X160020000Y-88900000D03*
%TO.P,U3,25,I/O_16*%
%TO.N,/VDA*%
X162560000Y-88900000D03*
%TO.P,U3,26,VCCIO_2*%
%TO.N,/5V*%
X160020000Y-91440000D03*
%TO.P,U3,27,I/O_17*%
%TO.N,/R~{W}*%
X162560000Y-91440000D03*
%TO.P,U3,28,I/O_18*%
%TO.N,/AD0*%
X160020000Y-93980000D03*
%TO.P,U3,29,I/O_19*%
%TO.N,/AD1*%
X162560000Y-93980000D03*
%TO.P,U3,30,I/O_20*%
%TO.N,/AD2*%
X160020000Y-96520000D03*
%TO.P,U3,31,I/O_21*%
%TO.N,/AD3*%
X162560000Y-96520000D03*
%TO.P,U3,32,GND_3*%
%TO.N,/GND*%
X160020000Y-99060000D03*
%TO.P,U3,33,I/O_22*%
%TO.N,/AD4*%
X162560000Y-101600000D03*
%TO.P,U3,34,I/O_23*%
%TO.N,/AD5*%
X162560000Y-99060000D03*
%TO.P,U3,35,I/O_24*%
%TO.N,/AD6*%
X165100000Y-101600000D03*
%TO.P,U3,36,I/O_25*%
%TO.N,/AD7*%
X165100000Y-99060000D03*
%TO.P,U3,37,I/O_26*%
%TO.N,/A15*%
X167640000Y-101600000D03*
%TO.P,U3,38,VCCIO_3*%
%TO.N,/5V*%
X167640000Y-99060000D03*
%TO.P,U3,39,I/O_27*%
%TO.N,/A14*%
X170180000Y-101600000D03*
%TO.P,U3,40,I/O_28*%
%TO.N,/A13*%
X170180000Y-99060000D03*
%TO.P,U3,41,I/O_29*%
%TO.N,/A12*%
X172720000Y-101600000D03*
%TO.P,U3,42,GND_4*%
%TO.N,/GND*%
X172720000Y-99060000D03*
%TO.P,U3,43,VCCINT_2*%
%TO.N,/5V*%
X175260000Y-101600000D03*
%TO.P,U3,44,I/O_30*%
%TO.N,/A11*%
X175260000Y-99060000D03*
%TO.P,U3,45,I/O/PD2*%
%TO.N,/A10*%
X177800000Y-101600000D03*
%TO.P,U3,46,I/O_31*%
%TO.N,/A9*%
X177800000Y-99060000D03*
%TO.P,U3,47,GND_5*%
%TO.N,/GND*%
X180340000Y-101600000D03*
%TO.P,U3,48,I/O_32*%
%TO.N,/A8*%
X180340000Y-99060000D03*
%TO.P,U3,49,I/O_33*%
%TO.N,/A7*%
X182880000Y-101600000D03*
%TO.P,U3,50,I/O_34*%
%TO.N,/A6*%
X182880000Y-99060000D03*
%TO.P,U3,51,I/O_35*%
%TO.N,/A5*%
X185420000Y-101600000D03*
%TO.P,U3,52,I/O_36*%
%TO.N,/A4*%
X185420000Y-99060000D03*
%TO.P,U3,53,VCCIO_4*%
%TO.N,/5V*%
X187960000Y-101600000D03*
%TO.P,U3,54,I/O_37*%
%TO.N,/A3*%
X190500000Y-99060000D03*
%TO.P,U3,55,I/O_38*%
%TO.N,/A2*%
X187960000Y-99060000D03*
%TO.P,U3,56,I/O_39*%
%TO.N,/A1*%
X190500000Y-96520000D03*
%TO.P,U3,57,I/O_40*%
%TO.N,/A0*%
X187960000Y-96520000D03*
%TO.P,U3,58,I/O_41*%
%TO.N,/A16*%
X190500000Y-93980000D03*
%TO.P,U3,59,GND_6*%
%TO.N,/GND*%
X187960000Y-93980000D03*
%TO.P,U3,60,I/O_42*%
%TO.N,/A17*%
X190500000Y-91440000D03*
%TO.P,U3,61,I/O_43*%
%TO.N,/A18*%
X187960000Y-91440000D03*
%TO.P,U3,62,I/O/TCK*%
%TO.N,/TCK_08*%
X190500000Y-88900000D03*
%TO.P,U3,63,I/O_44*%
%TO.N,/A19*%
X187960000Y-88900000D03*
%TO.P,U3,64,I/O_45*%
%TO.N,/A20*%
X190500000Y-86360000D03*
%TO.P,U3,65,I/O_46*%
%TO.N,/A21*%
X187960000Y-86360000D03*
%TO.P,U3,66,VCCIO_5*%
%TO.N,/5V*%
X190500000Y-83820000D03*
%TO.P,U3,67,I/O_47*%
%TO.N,/A22*%
X187960000Y-83820000D03*
%TO.P,U3,68,I/O_48*%
%TO.N,/A23*%
X190500000Y-81280000D03*
%TO.P,U3,69,I/O_49*%
%TO.N,/~{OE_MEM}*%
X187960000Y-81280000D03*
%TO.P,U3,70,I/O_50*%
%TO.N,/~{WE_MEM}*%
X190500000Y-78740000D03*
%TO.P,U3,71,I/O/TDO*%
%TO.N,/TDO_08*%
X187960000Y-78740000D03*
%TO.P,U3,72,GND_7*%
%TO.N,/GND*%
X190500000Y-76200000D03*
%TO.P,U3,73,I/O_51*%
%TO.N,/~{CS_RAM1}*%
X187960000Y-76200000D03*
%TO.P,U3,74,I/O_52*%
%TO.N,/~{CS_RAM0}*%
X190500000Y-73660000D03*
%TO.P,U3,75,I/O_53*%
%TO.N,/~{CS_IO}*%
X187960000Y-71120000D03*
%TO.P,U3,76,I/O_54*%
%TO.N,/~{CS_EXT}*%
X187960000Y-73660000D03*
%TO.P,U3,77,I/O_55*%
%TO.N,/~{WSE_EXT}*%
X185420000Y-71120000D03*
%TO.P,U3,78,VCCIO_6*%
%TO.N,/5V*%
X185420000Y-73660000D03*
%TO.P,U3,79,I/O_56*%
%TO.N,/~{IRQ_CPU}*%
X182880000Y-71120000D03*
%TO.P,U3,80,I/O_57*%
%TO.N,/~{CS_ROM}*%
X182880000Y-73660000D03*
%TO.P,U3,81,I/O/GCLK3*%
%TO.N,/T1_CLK*%
X180340000Y-71120000D03*
%TO.P,U3,82,GND_8*%
%TO.N,/GND*%
X180340000Y-73660000D03*
%TO.P,U3,83,INPUT/GCLK1*%
%TO.N,/PHI1*%
X177800000Y-71120000D03*
%TO.P,U3,84,INPUT/OE1*%
%TO.N,/~{IRQ_EXT}*%
X177800000Y-73660000D03*
%TD*%
D11*
%TO.P,SW0,1*%
%TO.N,/~{RST}*%
X158675000Y-136815000D03*
%TO.P,SW0,2*%
X165175000Y-136815000D03*
%TO.P,SW0,3*%
%TO.N,/GND*%
X158675000Y-141315000D03*
%TO.P,SW0,4*%
X165175000Y-141315000D03*
%TD*%
D17*
%TO.P,C5,1*%
%TO.N,/GND*%
X99140000Y-74930000D03*
%TO.P,C5,2*%
%TO.N,/5V*%
X104140000Y-74930000D03*
%TD*%
D22*
%TO.P,U4,1,GND*%
%TO.N,/GND*%
X133350000Y-72390000D03*
D23*
%TO.P,U4,2,PA0*%
%TO.N,/PA0*%
X130810000Y-69850000D03*
%TO.P,U4,3,PA1*%
%TO.N,/PA1*%
X130810000Y-72390000D03*
%TO.P,U4,4,PA2*%
%TO.N,/PA2*%
X128270000Y-69850000D03*
%TO.P,U4,5,PA3*%
%TO.N,/PA3*%
X128270000Y-72390000D03*
%TO.P,U4,6,PA4*%
%TO.N,/PA4*%
X125730000Y-69850000D03*
%TO.P,U4,7,PA5*%
%TO.N,/PA5*%
X123190000Y-72390000D03*
%TO.P,U4,8,PA6*%
%TO.N,/PA6*%
X125730000Y-72390000D03*
%TO.P,U4,9,PA7*%
%TO.N,/PA7*%
X123190000Y-74930000D03*
%TO.P,U4,10,PB0*%
%TO.N,/PS2K_C*%
X125730000Y-74930000D03*
%TO.P,U4,11,NC*%
%TO.N,unconnected-(U4-Pad11)*%
X123190000Y-77470000D03*
%TO.P,U4,12,PB1*%
%TO.N,/PS2K_D*%
X125730000Y-77470000D03*
%TO.P,U4,13,PB2*%
%TO.N,/PS2M_C*%
X123190000Y-80010000D03*
%TO.P,U4,14,PB3*%
%TO.N,/PS2M_D*%
X125730000Y-80010000D03*
%TO.P,U4,15,PB4*%
%TO.N,/PB4*%
X123190000Y-82550000D03*
%TO.P,U4,16,PB5*%
%TO.N,/PB5*%
X125730000Y-82550000D03*
%TO.P,U4,17,PB6*%
%TO.N,/PB6*%
X123190000Y-85090000D03*
%TO.P,U4,18,PB7*%
%TO.N,/T1_CLK*%
X125730000Y-87630000D03*
%TO.P,U4,19,CB1*%
%TO.N,/PS2M_C*%
X125730000Y-85090000D03*
%TO.P,U4,20,CB2*%
%TO.N,/PS2K_C*%
X128270000Y-87630000D03*
%TO.P,U4,21,Vcc*%
%TO.N,/5V*%
X128270000Y-85090000D03*
%TO.P,U4,22,NC*%
%TO.N,unconnected-(U4-Pad22)*%
X130810000Y-87630000D03*
%TO.P,U4,23,~{IRQ}*%
%TO.N,/~{IRQ_VIA}*%
X130810000Y-85090000D03*
%TO.P,U4,24,R/~{W}*%
%TO.N,/R~{W}*%
X133350000Y-87630000D03*
%TO.P,U4,25,~{CS2}*%
%TO.N,/~{CS_VIA}*%
X133350000Y-85090000D03*
%TO.P,U4,26,CS1*%
%TO.N,/5V*%
X135890000Y-87630000D03*
%TO.P,U4,27,PHI2*%
%TO.N,/GCLK*%
X135890000Y-85090000D03*
%TO.P,U4,28,D7*%
%TO.N,/MD7*%
X138430000Y-87630000D03*
%TO.P,U4,29,D6*%
%TO.N,/MD6*%
X140970000Y-85090000D03*
%TO.P,U4,30,D5*%
%TO.N,/MD5*%
X138430000Y-85090000D03*
%TO.P,U4,31,D4*%
%TO.N,/MD4*%
X140970000Y-82550000D03*
%TO.P,U4,32,D3*%
%TO.N,/MD3*%
X138430000Y-82550000D03*
%TO.P,U4,33,NC*%
%TO.N,unconnected-(U4-Pad33)*%
X140970000Y-80010000D03*
%TO.P,U4,34,D2*%
%TO.N,/MD2*%
X138430000Y-80010000D03*
%TO.P,U4,35,D1*%
%TO.N,/MD1*%
X140970000Y-77470000D03*
%TO.P,U4,36,D0*%
%TO.N,/MD0*%
X138430000Y-77470000D03*
%TO.P,U4,37,~{RES}*%
%TO.N,/~{RST}*%
X140970000Y-74930000D03*
%TO.P,U4,38,NC*%
%TO.N,unconnected-(U4-Pad38)*%
X138430000Y-74930000D03*
%TO.P,U4,39,RS3*%
%TO.N,/A3*%
X140970000Y-72390000D03*
%TO.P,U4,40,RS2*%
%TO.N,/A2*%
X138430000Y-69850000D03*
%TO.P,U4,41,RS1*%
%TO.N,/A1*%
X138430000Y-72390000D03*
%TO.P,U4,42,RS0*%
%TO.N,/A0*%
X135890000Y-69850000D03*
%TO.P,U4,43,CA2*%
%TO.N,/CA2*%
X135890000Y-72390000D03*
%TO.P,U4,44,CA1*%
%TO.N,/CA1*%
X133350000Y-69850000D03*
%TD*%
D27*
%TO.P,H0,1,1*%
%TO.N,/GND*%
X191600000Y-50800000D03*
%TD*%
D29*
%TO.P,U0,1,VI*%
%TO.N,Net-(BJ0-Pad1)*%
X176530000Y-49840000D03*
D30*
%TO.P,U0,2,GND*%
%TO.N,/GND*%
X179070000Y-49840000D03*
%TO.P,U0,3,VO*%
%TO.N,/PWR_IN*%
X181610000Y-49840000D03*
%TD*%
D31*
%TO.P,D0,1,K*%
%TO.N,/GND*%
X161290000Y-63500000D03*
D32*
%TO.P,D0,2,A*%
%TO.N,Net-(D0-Pad2)*%
X163830000Y-63500000D03*
%TD*%
D17*
%TO.P,C10,1*%
%TO.N,/GND*%
X165140000Y-133350000D03*
%TO.P,C10,2*%
%TO.N,/5V*%
X170140000Y-133350000D03*
%TD*%
D22*
%TO.P,U5,1,A18*%
%TO.N,/GND*%
X109220000Y-82550000D03*
D23*
%TO.P,U5,2,A16*%
X106680000Y-80010000D03*
%TO.P,U5,3,A15*%
%TO.N,/A15*%
X106680000Y-82550000D03*
%TO.P,U5,4,A12*%
%TO.N,/A12*%
X104140000Y-80010000D03*
%TO.P,U5,5,A7*%
%TO.N,/A7*%
X101600000Y-82550000D03*
%TO.P,U5,6,A6*%
%TO.N,/A6*%
X104140000Y-82550000D03*
%TO.P,U5,7,A5*%
%TO.N,/A5*%
X101600000Y-85090000D03*
%TO.P,U5,8,A4*%
%TO.N,/A4*%
X104140000Y-85090000D03*
%TO.P,U5,9,A3*%
%TO.N,/A3*%
X101600000Y-87630000D03*
%TO.P,U5,10,A2*%
%TO.N,/A2*%
X104140000Y-87630000D03*
%TO.P,U5,11,A1*%
%TO.N,/A1*%
X101600000Y-90170000D03*
%TO.P,U5,12,A0*%
%TO.N,/A0*%
X104140000Y-90170000D03*
%TO.P,U5,13,DQ0*%
%TO.N,/MD0*%
X101600000Y-92710000D03*
%TO.P,U5,14,DQ1*%
%TO.N,/MD1*%
X104140000Y-95250000D03*
%TO.P,U5,15,DQ2*%
%TO.N,/MD2*%
X104140000Y-92710000D03*
%TO.P,U5,16,VSS*%
%TO.N,/GND*%
X106680000Y-95250000D03*
%TO.P,U5,17,DQ3*%
%TO.N,/MD3*%
X106680000Y-92710000D03*
%TO.P,U5,18,DQ4*%
%TO.N,/MD4*%
X109220000Y-95250000D03*
%TO.P,U5,19,DQ5*%
%TO.N,/MD5*%
X109220000Y-92710000D03*
%TO.P,U5,20,DQ6*%
%TO.N,/MD6*%
X111760000Y-95250000D03*
%TO.P,U5,21,DQ7*%
%TO.N,/MD7*%
X114300000Y-92710000D03*
%TO.P,U5,22,~{CS}*%
%TO.N,/~{CS_ROM}*%
X111760000Y-92710000D03*
%TO.P,U5,23,A10*%
%TO.N,/A10*%
X114300000Y-90170000D03*
%TO.P,U5,24,~{OE}*%
%TO.N,/~{OE_MEM}*%
X111760000Y-90170000D03*
%TO.P,U5,25,A11*%
%TO.N,/A11*%
X114300000Y-87630000D03*
%TO.P,U5,26,A9*%
%TO.N,/A9*%
X111760000Y-87630000D03*
%TO.P,U5,27,A8*%
%TO.N,/A8*%
X114300000Y-85090000D03*
%TO.P,U5,28,A13*%
%TO.N,/A13*%
X111760000Y-85090000D03*
%TO.P,U5,29,A14*%
%TO.N,/A14*%
X114300000Y-82550000D03*
%TO.P,U5,30,A17*%
%TO.N,/GND*%
X111760000Y-80010000D03*
%TO.P,U5,31,~{WE}*%
%TO.N,/5V*%
X111760000Y-82550000D03*
%TO.P,U5,32,VDD*%
X109220000Y-80010000D03*
%TD*%
D33*
%TO.P,U9,1,A->B*%
%TO.N,/R~{W}*%
X142230000Y-125725000D03*
D19*
%TO.P,U9,2,A0*%
%TO.N,/MD7*%
X142230000Y-123185000D03*
%TO.P,U9,3,A1*%
%TO.N,/MD6*%
X142230000Y-120645000D03*
%TO.P,U9,4,A2*%
%TO.N,/MD5*%
X142230000Y-118105000D03*
%TO.P,U9,5,A3*%
%TO.N,/MD4*%
X142230000Y-115565000D03*
%TO.P,U9,6,A4*%
%TO.N,/MD3*%
X142230000Y-113025000D03*
%TO.P,U9,7,A5*%
%TO.N,/MD2*%
X142230000Y-110485000D03*
%TO.P,U9,8,A6*%
%TO.N,/MD1*%
X142230000Y-107945000D03*
%TO.P,U9,9,A7*%
%TO.N,/MD0*%
X142230000Y-105405000D03*
%TO.P,U9,10,GND*%
%TO.N,/GND*%
X142230000Y-102865000D03*
%TO.P,U9,11,B7*%
%TO.N,/AD0*%
X134610000Y-102865000D03*
%TO.P,U9,12,B6*%
%TO.N,/AD1*%
X134610000Y-105405000D03*
%TO.P,U9,13,B5*%
%TO.N,/AD2*%
X134610000Y-107945000D03*
%TO.P,U9,14,B4*%
%TO.N,/AD3*%
X134610000Y-110485000D03*
%TO.P,U9,15,B3*%
%TO.N,/AD4*%
X134610000Y-113025000D03*
%TO.P,U9,16,B2*%
%TO.N,/AD5*%
X134610000Y-115565000D03*
%TO.P,U9,17,B1*%
%TO.N,/AD6*%
X134610000Y-118105000D03*
%TO.P,U9,18,B0*%
%TO.N,/AD7*%
X134610000Y-120645000D03*
%TO.P,U9,19,CE*%
%TO.N,/PHI1*%
X134610000Y-123185000D03*
%TO.P,U9,20,VCC*%
%TO.N,/5V*%
X134610000Y-125725000D03*
%TD*%
D33*
%TO.P,X0,1,EN*%
%TO.N,unconnected-(X0-Pad1)*%
X109855000Y-140970000D03*
D17*
%TO.P,X0,4,GND*%
%TO.N,/GND*%
X117475000Y-140970000D03*
%TO.P,X0,5,OUT*%
%TO.N,Net-(U2-Pad11)*%
X117475000Y-133350000D03*
%TO.P,X0,8,Vcc*%
%TO.N,/5V*%
X109855000Y-133350000D03*
%TD*%
D33*
%TO.P,U2,1,~{R}*%
%TO.N,/5V*%
X124455000Y-140960000D03*
D19*
%TO.P,U2,2,D*%
%TO.N,Net-(U2-Pad12)*%
X126995000Y-140960000D03*
%TO.P,U2,3,C*%
%TO.N,Net-(U2-Pad11)*%
X129535000Y-140960000D03*
%TO.P,U2,4,~{S}*%
%TO.N,/5V*%
X132075000Y-140960000D03*
%TO.P,U2,5,Q*%
%TO.N,/GCLK*%
X134615000Y-140960000D03*
%TO.P,U2,6,~{Q}*%
%TO.N,Net-(U2-Pad12)*%
X137155000Y-140960000D03*
%TO.P,U2,7,GND*%
%TO.N,/GND*%
X139695000Y-140960000D03*
%TO.P,U2,8,~{Q}*%
%TO.N,/PHI1*%
X139695000Y-133340000D03*
%TO.P,U2,9,Q*%
%TO.N,/PHI2*%
X137155000Y-133340000D03*
%TO.P,U2,10,~{S}*%
%TO.N,/~{WSE}*%
X134615000Y-133340000D03*
%TO.P,U2,11,C*%
%TO.N,Net-(U2-Pad11)*%
X132075000Y-133340000D03*
%TO.P,U2,12,D*%
%TO.N,Net-(U2-Pad12)*%
X129535000Y-133340000D03*
%TO.P,U2,13,~{R}*%
%TO.N,/5V*%
X126995000Y-133340000D03*
%TO.P,U2,14,VCC*%
X124455000Y-133340000D03*
%TD*%
D17*
%TO.P,C12,1*%
%TO.N,/GND*%
X180380000Y-66040000D03*
%TO.P,C12,2*%
%TO.N,/5V*%
X185380000Y-66040000D03*
%TD*%
D27*
%TO.P,H2,1,1*%
%TO.N,/GND*%
X101600000Y-140800000D03*
%TD*%
D17*
%TO.P,C6,1*%
%TO.N,/GND*%
X146050000Y-73660000D03*
%TO.P,C6,2*%
%TO.N,/5V*%
X146050000Y-78660000D03*
%TD*%
%TO.P,C8,1*%
%TO.N,/GND*%
X146050000Y-104100000D03*
%TO.P,C8,2*%
%TO.N,/5V*%
X146050000Y-99100000D03*
%TD*%
%TO.P,R2,1*%
%TO.N,/5V*%
X170180000Y-63500000D03*
D19*
%TO.P,R2,2*%
%TO.N,Net-(D0-Pad2)*%
X167640000Y-63500000D03*
%TD*%
D33*
%TO.P,RN0,1,common*%
%TO.N,/5V*%
X121905000Y-94615000D03*
D19*
%TO.P,RN0,2,R1*%
%TO.N,/~{IRQ_EXT}*%
X124445000Y-94615000D03*
%TO.P,RN0,3,R2*%
%TO.N,/~{CS_VIA}*%
X126985000Y-94615000D03*
%TO.P,RN0,4,R3*%
%TO.N,/PS2K_C*%
X129525000Y-94615000D03*
%TO.P,RN0,5,R4*%
%TO.N,/PS2K_D*%
X132065000Y-94615000D03*
%TO.P,RN0,6,R5*%
%TO.N,/PS2M_C*%
X134605000Y-94615000D03*
%TO.P,RN0,7,R6*%
%TO.N,/PS2M_D*%
X137145000Y-94615000D03*
%TO.P,RN0,8,R7*%
%TO.N,/RDY*%
X139685000Y-94615000D03*
%TO.P,RN0,9,R8*%
%TO.N,/~{ABT}*%
X142225000Y-94615000D03*
%TD*%
D17*
%TO.P,R3,1*%
%TO.N,/5V*%
X101600000Y-102870000D03*
D19*
%TO.P,R3,2*%
%TO.N,/~{RST}*%
X104140000Y-102870000D03*
%TD*%
D34*
%TO.P,TP0,1,1*%
%TO.N,/GND*%
X101600000Y-133350000D03*
X101600000Y-128270000D03*
%TD*%
D35*
%TO.N,/GND*%
X186127900Y-118745000D03*
X164395800Y-120449600D03*
%TO.N,/5V*%
X174952000Y-120015000D03*
X114023500Y-66798000D03*
%TO.N,/TMS_08*%
X177193800Y-94677400D03*
%TO.N,/PS2K_D*%
X130446200Y-77793500D03*
%TO.N,/PS2K_C*%
X123826100Y-71100000D03*
X131219600Y-75917800D03*
%TO.N,/A0*%
X143744300Y-79325200D03*
X147882400Y-77391700D03*
X165986700Y-108291500D03*
%TO.N,/A1*%
X164247400Y-110499500D03*
X146383400Y-89367400D03*
%TO.N,/A2*%
X186106700Y-112595700D03*
X106989300Y-100583000D03*
X161414400Y-109976200D03*
%TO.N,/A3*%
X148171600Y-93307700D03*
X180018800Y-107646200D03*
X103013600Y-100589000D03*
X161093800Y-108975800D03*
X182828600Y-112713100D03*
%TO.N,/A4*%
X161655700Y-107328500D03*
X189061000Y-123825000D03*
X100458100Y-98802600D03*
%TO.N,/A5*%
X165776300Y-124649300D03*
X186121300Y-124037800D03*
%TO.N,/A6*%
X184464700Y-125212200D03*
X139205700Y-122464700D03*
X135818800Y-93124000D03*
X132487600Y-125735100D03*
%TO.N,/A7*%
X166276400Y-126810100D03*
X184614400Y-126841100D03*
X170267400Y-130853500D03*
%TO.N,/A8*%
X119994600Y-103079800D03*
X168672100Y-129016700D03*
X185812500Y-128952000D03*
%TO.N,/A9*%
X159435900Y-132320600D03*
X176862700Y-129538900D03*
X164411600Y-130153400D03*
%TO.N,/A10*%
X175165900Y-128792000D03*
X157890500Y-92900200D03*
%TO.N,/A11*%
X168996900Y-127655900D03*
X166159000Y-106327500D03*
%TO.N,/A12*%
X117765300Y-116526900D03*
X111382000Y-103251000D03*
X173527900Y-132073000D03*
X126532500Y-139548900D03*
X173809000Y-125957000D03*
%TO.N,/A13*%
X156994500Y-78520700D03*
X170863100Y-125405500D03*
X128397000Y-143042700D03*
X171582900Y-136602600D03*
%TO.N,/A14*%
X167668700Y-97430400D03*
X176409900Y-106048800D03*
X171864200Y-106095700D03*
X176392400Y-113665000D03*
X173988100Y-123919300D03*
%TO.N,/A15*%
X153884400Y-120653800D03*
X138333400Y-127043200D03*
X117264800Y-85432100D03*
X153456600Y-127975200D03*
X132890400Y-123803700D03*
X170567700Y-112196300D03*
%TO.N,/~{IRQ_EXT}*%
X136514100Y-118996200D03*
X131773000Y-105867200D03*
X170496200Y-93519200D03*
X127710900Y-104253100D03*
%TO.N,/MD0*%
X109255600Y-72617700D03*
X158359200Y-115531400D03*
X118946100Y-77019300D03*
X148262900Y-75034300D03*
X180049700Y-114208700D03*
X182368000Y-116527000D03*
X108795600Y-63214400D03*
%TO.N,/MD1*%
X170117400Y-114246100D03*
X159884800Y-116330800D03*
X169733900Y-96491000D03*
X164340200Y-79131700D03*
X155304100Y-108948600D03*
X167355300Y-104635600D03*
%TO.N,/MD2*%
X175095500Y-87584300D03*
X173636400Y-116840000D03*
X161150600Y-116476100D03*
X154826100Y-106891200D03*
%TO.N,/MD3*%
X164546900Y-117318800D03*
X148648100Y-108217800D03*
X114257200Y-71233500D03*
%TO.N,/MD4*%
X143039500Y-91432100D03*
X144676000Y-118155500D03*
X143906000Y-109542000D03*
%TO.N,/MD5*%
X146269000Y-107267300D03*
X168829200Y-119723800D03*
X111424100Y-73331300D03*
X147898200Y-105754700D03*
X161099100Y-101398100D03*
%TO.N,/MD6*%
X145030500Y-93195400D03*
X112378000Y-73978300D03*
X169723000Y-121536300D03*
X137052400Y-98229600D03*
%TO.N,/MD7*%
X112356200Y-71568200D03*
X160338300Y-123601700D03*
X122190000Y-87622500D03*
X159176400Y-98044600D03*
%TO.N,/A16*%
X176095800Y-111841000D03*
X174468100Y-103942800D03*
%TO.N,/A18*%
X181029500Y-108207900D03*
X153648700Y-71995600D03*
%TO.N,/A20*%
X156235500Y-65382200D03*
%TO.N,/A22*%
X186194300Y-80769300D03*
%TO.N,/~{CS_IO}*%
X195203000Y-128557400D03*
X163601600Y-133406900D03*
%TO.N,/RDY*%
X138527800Y-100825200D03*
%TO.N,/~{RST}*%
X144230300Y-119552300D03*
X144507200Y-90106700D03*
X148198600Y-123354500D03*
X140380800Y-96699100D03*
X119144800Y-100209200D03*
%TO.N,/~{ABT}*%
X114719100Y-100292200D03*
%TO.N,/~{CS_VIA}*%
X139246200Y-73772900D03*
X163830100Y-61945100D03*
%TO.N,/~{IRQ_CPU}*%
X112138300Y-103912700D03*
X107504300Y-96964800D03*
%TO.N,/VPA*%
X131380300Y-99540400D03*
X126728000Y-105724900D03*
%TO.N,/AD7*%
X154513700Y-123121000D03*
X159674300Y-122041000D03*
X155109300Y-125806100D03*
X147750300Y-127626400D03*
X157014400Y-107182000D03*
X150973300Y-126111800D03*
X138291900Y-125749700D03*
%TO.N,/AD5*%
X150695700Y-133311200D03*
X181502500Y-72677200D03*
X171366200Y-91741600D03*
X195951400Y-127640400D03*
X184825300Y-69678300D03*
X135075600Y-129199500D03*
X140513000Y-130071800D03*
X156522900Y-137837900D03*
X138635700Y-131342000D03*
%TO.N,/R~{W}*%
X138521200Y-123427700D03*
%TO.N,/VDA*%
X118974900Y-72697900D03*
X166193212Y-53608208D03*
X170805700Y-89394900D03*
X125404300Y-47918600D03*
X123261800Y-89603800D03*
X119366800Y-71697500D03*
X121654700Y-90763000D03*
%TO.N,/T1_CLK*%
X139165600Y-71010500D03*
%TO.N,/~{CS_ROM}*%
X120885000Y-79751500D03*
X109962600Y-85116500D03*
%TO.N,/~{OE_MEM}*%
X113062400Y-75250500D03*
X120254200Y-69210600D03*
X180559200Y-77256400D03*
%TO.N,/~{CS_RAM0}*%
X186106700Y-114746900D03*
%TO.N,/~{CS_RAM1}*%
X175922800Y-108816400D03*
%TO.N,/3V3*%
X114576900Y-65915800D03*
%TO.N,/~{FT_TXE}*%
X153291200Y-60173300D03*
%TO.N,/~{FT_RXF}*%
X151808700Y-59810600D03*
%TO.N,/PS2M_D*%
X133803500Y-80863200D03*
X127382400Y-73669400D03*
%TO.N,/PS2M_C*%
X128861900Y-90200800D03*
X130833000Y-73839800D03*
%TO.N,/~{IRQ_VIA}*%
X135343200Y-73839800D03*
X137023300Y-68250500D03*
%TO.N,/~{CS_EXT}*%
X172876100Y-92102200D03*
%TO.N,/FT_WR*%
X122414500Y-66652700D03*
%TO.N,/~{WSE_EXT}*%
X155362200Y-122554800D03*
X160762400Y-135555900D03*
X191182200Y-132673000D03*
%TO.N,/GCLK*%
X167542000Y-80025800D03*
%TO.N,/PHI2*%
X129650900Y-120013200D03*
%TO.N,/PHI1*%
X164017800Y-103618400D03*
X169832300Y-90473400D03*
X163719100Y-92289800D03*
%TO.N,/~{WSE}*%
X157553200Y-103088500D03*
X169683200Y-92917400D03*
X153915700Y-136490400D03*
%TD*%
D36*
%TO.N,/TCK_08*%
X184145000Y-138425000D02*
X184145000Y-137249700D01*
X184145000Y-137249700D02*
X191546000Y-129848700D01*
X191546000Y-129848700D02*
X191546000Y-89946000D01*
X191546000Y-89946000D02*
X190500000Y-88900000D01*
%TO.N,/TDO_08*%
X189456100Y-99919200D02*
X189456100Y-80236100D01*
X181605000Y-135369300D02*
X189799400Y-127174900D01*
X189799400Y-127174900D02*
X189799400Y-100262500D01*
X189799400Y-100262500D02*
X189456100Y-99919200D01*
X181605000Y-138425000D02*
X181605000Y-135369300D01*
X189456100Y-80236100D02*
X187960000Y-78740000D01*
%TO.N,/TMS_08*%
X179065000Y-137249700D02*
X178807000Y-136991700D01*
X179065000Y-138425000D02*
X179065000Y-137249700D01*
X179303400Y-104005500D02*
X179303400Y-96787000D01*
X179303400Y-96787000D02*
X177193800Y-94677400D01*
X178807000Y-136991700D02*
X178807000Y-104501900D01*
X178807000Y-104501900D02*
X179303400Y-104005500D01*
%TO.N,/TDI_08*%
X168064200Y-93012800D02*
X171217700Y-96166300D01*
X171217700Y-102000800D02*
X172589500Y-103372600D01*
X168064200Y-83665000D02*
X168064200Y-93012800D01*
X172589500Y-103372600D02*
X172589500Y-116224300D01*
X165171600Y-78937300D02*
X165171600Y-80772400D01*
X161073000Y-77253000D02*
X163487300Y-77253000D01*
X173985000Y-138425000D02*
X173985000Y-137249700D01*
X165171600Y-80772400D02*
X168064200Y-83665000D01*
X172589500Y-116224300D02*
X172460800Y-116353000D01*
X163487300Y-77253000D02*
X165171600Y-78937300D01*
X172460800Y-116353000D02*
X172460800Y-135725500D01*
X160020000Y-76200000D02*
X161073000Y-77253000D01*
X172460800Y-135725500D02*
X173985000Y-137249700D01*
X171217700Y-96166300D02*
X171217700Y-102000800D01*
%TO.N,/PS2K_D*%
X132065000Y-94615000D02*
X130939700Y-94615000D01*
X130939700Y-94615000D02*
X130939700Y-94896400D01*
X132217700Y-53775000D02*
X133345000Y-53775000D01*
X122994100Y-76200000D02*
X121655100Y-74861000D01*
X128880500Y-90926100D02*
X129162400Y-90926100D01*
X126487300Y-95740300D02*
X125834100Y-95087100D01*
X129162400Y-90926100D02*
X129765100Y-90323400D01*
X125834100Y-93972500D02*
X128880500Y-90926100D01*
X121655100Y-64337600D02*
X132217700Y-53775000D01*
X130095800Y-95740300D02*
X126487300Y-95740300D01*
X129765100Y-78474600D02*
X130446200Y-77793500D01*
X129765100Y-90323400D02*
X129765100Y-78474600D01*
X133345000Y-53775000D02*
X134590000Y-52530000D01*
X125730000Y-77470000D02*
X124460000Y-76200000D01*
X130939700Y-94896400D02*
X130095800Y-95740300D01*
X125834100Y-95087100D02*
X125834100Y-93972500D01*
X121655100Y-74861000D02*
X121655100Y-64337600D01*
X124460000Y-76200000D02*
X122994100Y-76200000D01*
%TO.N,/PS2K_C*%
X124460000Y-73660000D02*
X125730000Y-74930000D01*
X129314700Y-86585300D02*
X128270000Y-87630000D01*
X123826100Y-71100000D02*
X124460000Y-71733900D01*
X124460000Y-71733900D02*
X124460000Y-73660000D01*
X129314700Y-77822700D02*
X129314700Y-86585300D01*
X131219600Y-75917800D02*
X129314700Y-77822700D01*
%TO.N,/A0*%
X147200800Y-92045800D02*
X147200800Y-90866900D01*
X146080200Y-90097400D02*
X143744300Y-87761500D01*
X110656700Y-103551400D02*
X110723400Y-103618100D01*
X157385200Y-100071000D02*
X157385200Y-94057500D01*
X146921300Y-92325300D02*
X147200800Y-92045800D01*
X149860000Y-96530000D02*
X149646500Y-96530000D01*
X151969000Y-87640000D02*
X151224600Y-86895600D01*
X156714900Y-91517900D02*
X152837000Y-87640000D01*
X148459500Y-84093700D02*
X148459500Y-77968800D01*
X105189000Y-97695400D02*
X110656700Y-103163100D01*
X146921300Y-93804800D02*
X146921300Y-92325300D01*
X151224600Y-86895600D02*
X151224600Y-86050400D01*
X147200800Y-90866900D02*
X146431300Y-90097400D01*
X156714900Y-93387200D02*
X156714900Y-91517900D01*
X104140000Y-90170000D02*
X105189000Y-91219000D01*
X165986700Y-108291500D02*
X165692700Y-108291500D01*
X147882400Y-77114800D02*
X147882400Y-77391700D01*
X150307600Y-85133400D02*
X149499200Y-85133400D01*
X110723400Y-103618100D02*
X110723400Y-109453400D01*
X143744300Y-87761500D02*
X143744300Y-79325200D01*
X146431300Y-90097400D02*
X146080200Y-90097400D01*
X139581000Y-68813400D02*
X147882400Y-77114800D01*
X158109900Y-100795700D02*
X157385200Y-100071000D01*
X158196900Y-100795700D02*
X158109900Y-100795700D01*
X135890000Y-69850000D02*
X136449600Y-69850000D01*
X165692700Y-108291500D02*
X158196900Y-100795700D01*
X151224600Y-86050400D02*
X150307600Y-85133400D01*
X136449600Y-69850000D02*
X137486200Y-68813400D01*
X148459500Y-77968800D02*
X147882400Y-77391700D01*
X137486200Y-68813400D02*
X139581000Y-68813400D01*
X105189000Y-91219000D02*
X105189000Y-97695400D01*
X157385200Y-94057500D02*
X156714900Y-93387200D01*
X149499200Y-85133400D02*
X148459500Y-84093700D01*
X110656700Y-103163100D02*
X110656700Y-103551400D01*
X152837000Y-87640000D02*
X151969000Y-87640000D01*
X110723400Y-109453400D02*
X111760000Y-110490000D01*
X149646500Y-96530000D02*
X146921300Y-93804800D01*
%TO.N,/A1*%
X106339500Y-101372100D02*
X100558700Y-95591300D01*
X146383400Y-89367400D02*
X147651100Y-90635100D01*
X158713900Y-107218700D02*
X158713900Y-108410400D01*
X146383400Y-89367400D02*
X144469600Y-87453600D01*
X155260400Y-103765200D02*
X158713900Y-107218700D01*
X106339500Y-110149500D02*
X106339500Y-101372100D01*
X100558700Y-95591300D02*
X100558700Y-91211300D01*
X163979400Y-110767500D02*
X164247400Y-110499500D01*
X153980400Y-98698000D02*
X153980400Y-100864600D01*
X147397800Y-93592900D02*
X149159600Y-95354700D01*
X151812400Y-96530000D02*
X151224700Y-96530000D01*
X100558700Y-91211300D02*
X101600000Y-90170000D01*
X144469600Y-76910800D02*
X141420100Y-73861300D01*
X153980400Y-100864600D02*
X155260400Y-102144600D01*
X147397800Y-92700200D02*
X147397800Y-93592900D01*
X158713900Y-108410400D02*
X161071000Y-110767500D01*
X141420100Y-73861300D02*
X140360400Y-73861300D01*
X147651100Y-92446900D02*
X147397800Y-92700200D01*
X150416800Y-95354700D02*
X151224700Y-96162600D01*
X144469600Y-87453600D02*
X144469600Y-76910800D01*
X155260400Y-102144600D02*
X155260400Y-103765200D01*
X140360400Y-73861300D02*
X138889100Y-72390000D01*
X151812400Y-96530000D02*
X153980400Y-98698000D01*
X138889100Y-72390000D02*
X138430000Y-72390000D01*
X147651100Y-90635100D02*
X147651100Y-92446900D01*
X109220000Y-113030000D02*
X106339500Y-110149500D01*
X161071000Y-110767500D02*
X163979400Y-110767500D01*
X149159600Y-95354700D02*
X150416800Y-95354700D01*
X152400000Y-96530000D02*
X151812400Y-96530000D01*
X151224700Y-96162600D02*
X151224700Y-96530000D01*
%TO.N,/A2*%
X138430000Y-69850000D02*
X139928200Y-69850000D01*
X139928200Y-69850000D02*
X144080700Y-74002500D01*
X151035300Y-94357400D02*
X151035300Y-93990000D01*
X188998500Y-100098500D02*
X188998500Y-109703900D01*
X151843200Y-95165300D02*
X151035300Y-94357400D01*
X103085700Y-88684300D02*
X103085700Y-96679400D01*
X188998500Y-109703900D02*
X186106700Y-112595700D01*
X106989300Y-100583000D02*
X110273000Y-103866700D01*
X154430700Y-96897500D02*
X152698500Y-95165300D01*
X187960000Y-99060000D02*
X188998500Y-100098500D01*
X152698500Y-95165300D02*
X151843200Y-95165300D01*
X148551700Y-91873800D02*
X149492600Y-92814700D01*
X159164200Y-107022600D02*
X155935800Y-103794200D01*
X148551700Y-89926000D02*
X148551700Y-91873800D01*
X144080700Y-74725900D02*
X148009200Y-78654400D01*
X149860000Y-93990000D02*
X151035300Y-93990000D01*
X159164200Y-108180400D02*
X159164200Y-107022600D01*
X161414400Y-109976200D02*
X160960000Y-109976200D01*
X148009200Y-89383500D02*
X148551700Y-89926000D01*
X155935800Y-103794200D02*
X155935800Y-102183100D01*
X110273000Y-103866700D02*
X110273000Y-114517000D01*
X155935800Y-102183100D02*
X154430700Y-100678000D01*
X104140000Y-87630000D02*
X103085700Y-88684300D01*
X110273000Y-114517000D02*
X109220000Y-115570000D01*
X154430700Y-100678000D02*
X154430700Y-96897500D01*
X160960000Y-109976200D02*
X159164200Y-108180400D01*
X144080700Y-74002500D02*
X144080700Y-74725900D01*
X103085700Y-96679400D02*
X106989300Y-100583000D01*
X149860000Y-93990000D02*
X149860000Y-92814700D01*
X148009200Y-78654400D02*
X148009200Y-89383500D01*
X149492600Y-92814700D02*
X149860000Y-92814700D01*
%TO.N,/A3*%
X148101400Y-90112600D02*
X147304100Y-89315300D01*
X103013600Y-99512500D02*
X100108300Y-96607200D01*
X147304100Y-89315300D02*
X147304100Y-89191100D01*
X148101400Y-93237500D02*
X148101400Y-90112600D01*
X144919900Y-86931100D02*
X144919900Y-76339900D01*
X103013600Y-100589000D02*
X103013600Y-99512500D01*
X144919900Y-76339900D02*
X140970000Y-72390000D01*
X108750800Y-116611700D02*
X103013600Y-110874500D01*
X152638800Y-94465000D02*
X155417800Y-97244000D01*
X155417800Y-97244000D02*
X155417800Y-101028200D01*
X160480100Y-108362100D02*
X161093800Y-108975800D01*
X156611300Y-102221700D02*
X156611300Y-103205400D01*
X100108300Y-89121700D02*
X101600000Y-87630000D01*
X155417800Y-101028200D02*
X156611300Y-102221700D01*
X147304100Y-89191100D02*
X146755100Y-88642100D01*
X156611300Y-103205400D02*
X160480100Y-107074200D01*
X146630900Y-88642100D02*
X144919900Y-86931100D01*
X180018900Y-109903400D02*
X180018900Y-107646200D01*
X146755100Y-88642100D02*
X146630900Y-88642100D01*
X111760000Y-115570000D02*
X110718300Y-116611700D01*
X152400000Y-94465000D02*
X152638800Y-94465000D01*
X100108300Y-96607200D02*
X100108300Y-89121700D01*
X103013600Y-110874500D02*
X103013600Y-100589000D01*
X148171600Y-93307700D02*
X148101400Y-93237500D01*
X110718300Y-116611700D02*
X108750800Y-116611700D01*
X182828600Y-112713100D02*
X180018900Y-109903400D01*
X180018900Y-107646200D02*
X180018800Y-107646200D01*
X152400000Y-93990000D02*
X152400000Y-94465000D01*
X160480100Y-107074200D02*
X160480100Y-108362100D01*
%TO.N,/A4*%
X100458100Y-109348100D02*
X100458100Y-98802600D01*
X152720700Y-92625300D02*
X151843200Y-92625300D01*
X157637100Y-102146600D02*
X157550100Y-102146600D01*
X155868100Y-100464600D02*
X155868100Y-95772700D01*
X109220000Y-118110000D02*
X100458100Y-109348100D01*
X186473000Y-108806600D02*
X184908600Y-110371000D01*
X158293400Y-102802900D02*
X157637100Y-102146600D01*
X151843200Y-92625300D02*
X151035300Y-91817400D01*
X100458100Y-98802600D02*
X99657900Y-98002400D01*
X184908600Y-119672600D02*
X189061000Y-123825000D01*
X101402300Y-86360000D02*
X102870000Y-86360000D01*
X157550100Y-102146600D02*
X155868100Y-100464600D01*
X99657900Y-98002400D02*
X99657900Y-88104400D01*
X161655700Y-106339200D02*
X158293400Y-102976900D01*
X185420000Y-99060000D02*
X186473000Y-100113000D01*
X186473000Y-100113000D02*
X186473000Y-108806600D01*
X149860000Y-91450000D02*
X151035300Y-91450000D01*
X99657900Y-88104400D02*
X101402300Y-86360000D01*
X184908600Y-110371000D02*
X184908600Y-119672600D01*
X158293400Y-102976900D02*
X158293400Y-102802900D01*
X155868100Y-95772700D02*
X152720700Y-92625300D01*
X161655700Y-107328500D02*
X161655700Y-106339200D01*
X102870000Y-86360000D02*
X104140000Y-85090000D01*
X151035300Y-91817400D02*
X151035300Y-91450000D01*
%TO.N,/A5*%
X184458300Y-122374800D02*
X186121300Y-124037800D01*
X157823700Y-101696300D02*
X157736700Y-101696300D01*
X185420000Y-101600000D02*
X184458300Y-102561700D01*
X158743700Y-102790300D02*
X158743700Y-102616300D01*
X111760000Y-118110000D02*
X110688400Y-119181600D01*
X166199700Y-110246300D02*
X158743700Y-102790300D01*
X99195000Y-109580300D02*
X99195000Y-87495000D01*
X165776300Y-124649300D02*
X166199700Y-124225900D01*
X166199700Y-124225900D02*
X166199700Y-110246300D01*
X99195000Y-87495000D02*
X101600000Y-85090000D01*
X157736700Y-101696300D02*
X156484600Y-100444200D01*
X184458300Y-102561700D02*
X184458300Y-122374800D01*
X110688400Y-119181600D02*
X108796300Y-119181600D01*
X156484600Y-100444200D02*
X156484600Y-95534600D01*
X158743700Y-102616300D02*
X157823700Y-101696300D01*
X108796300Y-119181600D02*
X99195000Y-109580300D01*
X156484600Y-95534600D02*
X152400000Y-91450000D01*
%TO.N,/A6*%
X139301100Y-122560100D02*
X139205700Y-122464700D01*
X102870000Y-83820000D02*
X104140000Y-82550000D01*
X182880000Y-99060000D02*
X184008000Y-100188000D01*
X109220000Y-120650000D02*
X98719900Y-110149900D01*
X98719900Y-110149900D02*
X98719900Y-86494300D01*
X132487600Y-125735100D02*
X134566500Y-127814000D01*
X135818800Y-101836200D02*
X135818800Y-93124000D01*
X138088200Y-104105600D02*
X135818800Y-101836200D01*
X98719900Y-86494300D02*
X101394200Y-83820000D01*
X139205700Y-122464700D02*
X138088200Y-121347200D01*
X138606600Y-127814000D02*
X139301100Y-127119500D01*
X184008000Y-124755500D02*
X184464700Y-125212200D01*
X101394200Y-83820000D02*
X102870000Y-83820000D01*
X139301100Y-127119500D02*
X139301100Y-122560100D01*
X184008000Y-100188000D02*
X184008000Y-124755500D01*
X138088200Y-121347200D02*
X138088200Y-104105600D01*
X134566500Y-127814000D02*
X138606600Y-127814000D01*
%TO.N,/A7*%
X111760000Y-126006100D02*
X111760000Y-123190000D01*
X111760000Y-123190000D02*
X110277300Y-123190000D01*
X152767300Y-90085300D02*
X152400000Y-90085300D01*
X110277300Y-123190000D02*
X98217500Y-111130200D01*
X125731700Y-141363600D02*
X125731700Y-139977800D01*
X183557700Y-102277700D02*
X183557700Y-125784400D01*
X125732878Y-141988878D02*
X125732878Y-141363320D01*
X125731700Y-139977800D02*
X111760000Y-126006100D01*
X156934900Y-94252900D02*
X152767300Y-90085300D01*
X159194000Y-102603700D02*
X159194000Y-102429700D01*
X168615500Y-131789000D02*
X168615500Y-134904800D01*
X166276400Y-127646700D02*
X169517100Y-130887400D01*
X170267400Y-130853500D02*
X169551000Y-130853500D01*
X183557700Y-125784400D02*
X184614400Y-126841100D01*
X166276400Y-126810100D02*
X166674900Y-126411600D01*
X166674900Y-110084600D02*
X159194000Y-102603700D01*
X169517100Y-130887400D02*
X168615500Y-131789000D01*
X152400000Y-88910000D02*
X152400000Y-90085300D01*
X158010300Y-101246000D02*
X157923300Y-101246000D01*
X159702900Y-143817400D02*
X127561400Y-143817400D01*
X156934900Y-100257600D02*
X156934900Y-94252900D01*
X127561400Y-143817400D02*
X125732878Y-141988878D01*
X182880000Y-101600000D02*
X183557700Y-102277700D01*
X157923300Y-101246000D02*
X156934900Y-100257600D01*
X169551000Y-130853500D02*
X169517100Y-130887400D01*
X159194000Y-102429700D02*
X158010300Y-101246000D01*
X98217500Y-85932500D02*
X101600000Y-82550000D01*
X166276400Y-126810100D02*
X166276400Y-127646700D01*
X98217500Y-111130200D02*
X98217500Y-85932500D01*
X168615500Y-134904800D02*
X159702900Y-143817400D01*
X166674900Y-126411600D02*
X166674900Y-110084600D01*
%TO.N,/A8*%
X181376500Y-102569300D02*
X181376500Y-100096500D01*
X164048000Y-106009900D02*
X157835600Y-99797500D01*
X157835600Y-99797500D02*
X157835500Y-99797500D01*
X119994600Y-103079800D02*
X119870100Y-102955300D01*
X151035300Y-84197400D02*
X151035300Y-83830000D01*
X157165200Y-93200600D02*
X157165200Y-89458100D01*
X149860000Y-83830000D02*
X151035300Y-83830000D01*
X179281600Y-104664200D02*
X181376500Y-102569300D01*
X181376500Y-100096500D02*
X180340000Y-99060000D01*
X185812500Y-128952000D02*
X185699600Y-128952000D01*
X167523700Y-108745200D02*
X164788400Y-106009900D01*
X152712400Y-85005300D02*
X151843200Y-85005300D01*
X167523700Y-127868300D02*
X167523700Y-108745200D01*
X164788400Y-106009900D02*
X164048000Y-106009900D01*
X168672100Y-129016700D02*
X167523700Y-127868300D01*
X119870100Y-90660100D02*
X114300000Y-85090000D01*
X157165200Y-89458100D02*
X152712400Y-85005300D01*
X179281600Y-122534000D02*
X179281600Y-104664200D01*
X157835500Y-99797500D02*
X157835500Y-93870900D01*
X151843200Y-85005300D02*
X151035300Y-84197400D01*
X157835500Y-93870900D02*
X157165200Y-93200600D01*
X185699600Y-128952000D02*
X179281600Y-122534000D01*
X119870100Y-102955300D02*
X119870100Y-90660100D01*
%TO.N,/A9*%
X112796700Y-104356100D02*
X112868300Y-104284500D01*
X112796700Y-121686700D02*
X112796700Y-104356100D01*
X178853000Y-103819000D02*
X178853000Y-100113000D01*
X112796700Y-88666700D02*
X111760000Y-87630000D01*
X112796700Y-100215800D02*
X112796700Y-88666700D01*
X159435900Y-132320600D02*
X161603100Y-130153400D01*
X176862700Y-129538900D02*
X177721700Y-128679900D01*
X178853000Y-100113000D02*
X177800000Y-99060000D01*
X112868300Y-104284500D02*
X112868300Y-100287400D01*
X177721700Y-128679900D02*
X177721700Y-104950300D01*
X112868300Y-100287400D02*
X112796700Y-100215800D01*
X161603100Y-130153400D02*
X164411600Y-130153400D01*
X177721700Y-104950300D02*
X178853000Y-103819000D01*
X114300000Y-123190000D02*
X112796700Y-121686700D01*
%TO.N,/A10*%
X177271400Y-126686500D02*
X177271400Y-102128600D01*
X149860000Y-81290000D02*
X151035300Y-81290000D01*
X177271400Y-102128600D02*
X177800000Y-101600000D01*
X113327400Y-99926300D02*
X113247100Y-99846000D01*
X113247100Y-99846000D02*
X113247100Y-91222900D01*
X113247100Y-91222900D02*
X114300000Y-90170000D01*
X113247100Y-104542600D02*
X113327400Y-104462300D01*
X152701700Y-82465300D02*
X151843200Y-82465300D01*
X151843200Y-82465300D02*
X151035300Y-81657400D01*
X157890500Y-87654100D02*
X152701700Y-82465300D01*
X151035300Y-81657400D02*
X151035300Y-81290000D01*
X113247100Y-119597100D02*
X113247100Y-104542600D01*
X157890500Y-92900200D02*
X157890500Y-87654100D01*
X114300000Y-120650000D02*
X113247100Y-119597100D01*
X113327400Y-104462300D02*
X113327400Y-99926300D01*
X175165900Y-128792000D02*
X177271400Y-126686500D01*
%TO.N,/A11*%
X158394300Y-92378200D02*
X158394300Y-87284300D01*
X158394300Y-87284300D02*
X152400000Y-81290000D01*
X158449800Y-93366700D02*
X158615800Y-93200700D01*
X164781700Y-104950200D02*
X163625200Y-104950200D01*
X168103900Y-126762900D02*
X168996900Y-127655900D01*
X158615800Y-92599700D02*
X158394300Y-92378200D01*
X166159000Y-106327500D02*
X164781700Y-104950200D01*
X115782200Y-122132200D02*
X116840000Y-123190000D01*
X158615800Y-93200700D02*
X158615800Y-92599700D01*
X115782200Y-89112200D02*
X115782200Y-122132200D01*
X168103900Y-108272400D02*
X168103900Y-126762900D01*
X166159000Y-106327500D02*
X168103900Y-108272400D01*
X114300000Y-87630000D02*
X115782200Y-89112200D01*
X163625200Y-104950200D02*
X158449800Y-99774800D01*
X158449800Y-99774800D02*
X158449800Y-93366700D01*
%TO.N,/A12*%
X149548100Y-77574700D02*
X147533100Y-75559700D01*
X171668100Y-100548100D02*
X172720000Y-101600000D01*
X173809000Y-131791900D02*
X173809000Y-125957000D01*
X153111200Y-72483800D02*
X153348300Y-72720900D01*
X173527900Y-132073000D02*
X173809000Y-131791900D01*
X161523400Y-74147500D02*
X162305900Y-74930000D01*
X120431300Y-133447700D02*
X120431300Y-121701300D01*
X149860000Y-77574700D02*
X149548100Y-77574700D01*
X119380000Y-118141600D02*
X119380000Y-120650000D01*
X105641400Y-97510400D02*
X105641400Y-81511400D01*
X149375600Y-72483800D02*
X153111200Y-72483800D01*
X161523400Y-73677900D02*
X161523400Y-74147500D01*
X160447800Y-72602300D02*
X161523400Y-73677900D01*
X168514500Y-92774400D02*
X171668100Y-95928000D01*
X172720000Y-101600000D02*
X173040700Y-101920700D01*
X147533100Y-74326300D02*
X149375600Y-72483800D01*
X117765300Y-116526900D02*
X119380000Y-118141600D01*
X171668100Y-95928000D02*
X171668100Y-100548100D01*
X162819700Y-74930000D02*
X165929800Y-78040100D01*
X120431300Y-121701300D02*
X119380000Y-120650000D01*
X147533100Y-75559700D02*
X147533100Y-74326300D01*
X172911100Y-116539600D02*
X172911100Y-125059100D01*
X111382000Y-103251000D02*
X105641400Y-97510400D01*
X165929800Y-80601500D02*
X168514500Y-83186200D01*
X168514500Y-83186200D02*
X168514500Y-92774400D01*
X172911100Y-125059100D02*
X173809000Y-125957000D01*
X173040700Y-116410000D02*
X172911100Y-116539600D01*
X173040700Y-101920700D02*
X173040700Y-116410000D01*
X162305900Y-74930000D02*
X162819700Y-74930000D01*
X126532500Y-139548900D02*
X120431300Y-133447700D01*
X154067800Y-72602300D02*
X160447800Y-72602300D01*
X165929800Y-78040100D02*
X165929800Y-80601500D01*
X153949200Y-72720900D02*
X154067800Y-72602300D01*
X149860000Y-78750000D02*
X149860000Y-77574700D01*
X153348300Y-72720900D02*
X153949200Y-72720900D01*
X105641400Y-81511400D02*
X104140000Y-80010000D01*
%TO.N,/A13*%
X168635500Y-96418300D02*
X170180000Y-97962800D01*
X120883400Y-122153400D02*
X121920000Y-123190000D01*
X130677000Y-131644900D02*
X122222100Y-123190000D01*
X128395600Y-141460800D02*
X128395600Y-143000600D01*
X170863100Y-125405500D02*
X171341000Y-124927600D01*
X128395600Y-137014700D02*
X130677000Y-134733300D01*
X171582900Y-126125300D02*
X170863100Y-125405500D01*
X168635500Y-94858000D02*
X168635500Y-96418300D01*
X170988600Y-103921000D02*
X169138600Y-102071000D01*
X157811800Y-77703400D02*
X163027300Y-77703400D01*
X130677000Y-134733300D02*
X130677000Y-131644900D01*
X113030000Y-86360000D02*
X114576800Y-86360000D01*
X128395600Y-141460800D02*
X128395600Y-137014700D01*
X118034300Y-89817500D02*
X118034300Y-110291600D01*
X156994500Y-78520700D02*
X157811800Y-77703400D01*
X164271000Y-81145700D02*
X167163600Y-84038300D01*
X120883400Y-113140700D02*
X120883400Y-122153400D01*
X114576800Y-86360000D02*
X118034300Y-89817500D01*
X171341000Y-124927600D02*
X171341000Y-111639400D01*
X163598000Y-78274100D02*
X163598000Y-80164800D01*
X171341000Y-111639400D02*
X170988600Y-111287000D01*
X118034300Y-110291600D02*
X120883400Y-113140700D01*
X169138600Y-100101400D02*
X170180000Y-99060000D01*
X170180000Y-97962800D02*
X170180000Y-99060000D01*
X170988600Y-111287000D02*
X170988600Y-103921000D01*
X167163600Y-93386100D02*
X168635500Y-94858000D01*
X111760000Y-85090000D02*
X113030000Y-86360000D01*
X164271000Y-80837800D02*
X164271000Y-81145700D01*
X169138600Y-102071000D02*
X169138600Y-100101400D01*
X163598000Y-80164800D02*
X164271000Y-80837800D01*
X171582900Y-136602600D02*
X171582900Y-126125300D01*
X122222100Y-123190000D02*
X121920000Y-123190000D01*
X163027300Y-77703400D02*
X163598000Y-78274100D01*
X167163600Y-84038300D02*
X167163600Y-93386100D01*
X128395600Y-143000600D02*
X128397000Y-143002000D01*
%TO.N,/A14*%
X170180000Y-101600000D02*
X171864200Y-103284200D01*
X120719900Y-102656700D02*
X120320400Y-102257200D01*
X166855500Y-96617200D02*
X167668700Y-97430400D01*
X121920000Y-120650000D02*
X121920000Y-109806200D01*
X151035300Y-76210000D02*
X151035300Y-76577400D01*
X157804000Y-82390700D02*
X162640100Y-82390700D01*
X176821100Y-113236300D02*
X176821100Y-106460000D01*
X166263000Y-93759300D02*
X166855500Y-94351800D01*
X120719900Y-108606100D02*
X120719900Y-102656700D01*
X166263000Y-86013600D02*
X166263000Y-93759300D01*
X120320400Y-102257200D02*
X120320400Y-89520700D01*
X151843200Y-77385300D02*
X152798600Y-77385300D01*
X176821100Y-106460000D02*
X176409900Y-106048800D01*
X121920000Y-109806200D02*
X120719900Y-108606100D01*
X166855500Y-94351800D02*
X166855500Y-96617200D01*
X120320400Y-89520700D02*
X114300000Y-83500300D01*
X149860000Y-76210000D02*
X151035300Y-76210000D01*
X114300000Y-83500300D02*
X114300000Y-82550000D01*
X162640100Y-82390700D02*
X166263000Y-86013600D01*
X176392400Y-113665000D02*
X176392400Y-121515000D01*
X176392400Y-113665000D02*
X176821100Y-113236300D01*
X151035300Y-76577400D02*
X151843200Y-77385300D01*
X152798600Y-77385300D02*
X157804000Y-82390700D01*
X176392400Y-121515000D02*
X173988100Y-123919300D01*
X171864200Y-103284200D02*
X171864200Y-106095700D01*
%TO.N,/A15*%
X153884400Y-120653800D02*
X153591600Y-120946600D01*
X167305800Y-94165200D02*
X167305800Y-95725500D01*
X117370900Y-85432100D02*
X123127000Y-91188200D01*
X122958100Y-121688100D02*
X124460000Y-123190000D01*
X166713300Y-93572700D02*
X167305800Y-94165200D01*
X153575300Y-76210000D02*
X157192300Y-79827000D01*
X123408400Y-103959000D02*
X123408400Y-106408100D01*
X163820700Y-81024400D02*
X163820700Y-81332300D01*
X167640000Y-101600000D02*
X170292600Y-104252600D01*
X167305800Y-95725500D02*
X168688200Y-97107900D01*
X170292600Y-104252600D02*
X170292600Y-111921200D01*
X133686300Y-124599600D02*
X132890400Y-123803700D01*
X123127000Y-91188200D02*
X123127000Y-103677600D01*
X138333400Y-127043200D02*
X135889800Y-124599600D01*
X162623300Y-79827000D02*
X163820700Y-81024400D01*
X152400000Y-76210000D02*
X153575300Y-76210000D01*
X153591600Y-127840200D02*
X153456600Y-127975200D01*
X123408400Y-106408100D02*
X122958100Y-106858400D01*
X166713300Y-84224900D02*
X166713300Y-93572700D01*
X153591600Y-120946600D02*
X153591600Y-127840200D01*
X123127000Y-103677600D02*
X123408400Y-103959000D01*
X157192300Y-79827000D02*
X162623300Y-79827000D01*
X163820700Y-81332300D02*
X166713300Y-84224900D01*
X135889800Y-124599600D02*
X133686300Y-124599600D01*
X117264800Y-85432100D02*
X117370900Y-85432100D01*
X168688200Y-97107900D02*
X168688200Y-100551800D01*
X168688200Y-100551800D02*
X167640000Y-101600000D01*
X170292600Y-111921200D02*
X170567700Y-112196300D01*
X122958100Y-106858400D02*
X122958100Y-121688100D01*
%TO.N,/~{IRQ_EXT}*%
X124445000Y-100987200D02*
X127710900Y-104253100D01*
X170190600Y-92228600D02*
X170496200Y-92534200D01*
X170190600Y-91254600D02*
X170190600Y-92228600D01*
X136514100Y-110750500D02*
X136514100Y-118996200D01*
X131773000Y-105867200D02*
X131773000Y-106766300D01*
X124445000Y-94615000D02*
X124445000Y-100987200D01*
X170080300Y-89094600D02*
X170080300Y-89695300D01*
X134978600Y-109215000D02*
X136514100Y-110750500D01*
X170080300Y-89695300D02*
X170606600Y-90221600D01*
X170606600Y-90221600D02*
X170606600Y-90838600D01*
X177800000Y-73660000D02*
X177800000Y-81374900D01*
X134221700Y-109215000D02*
X134978600Y-109215000D01*
X170606600Y-90838600D02*
X170190600Y-91254600D01*
X177800000Y-81374900D02*
X170080300Y-89094600D01*
X131773000Y-106766300D02*
X134221700Y-109215000D01*
X170496200Y-92534200D02*
X170496200Y-93519200D01*
%TO.N,/MD0*%
X180049700Y-114208700D02*
X182368000Y-116527000D01*
X141106100Y-96999600D02*
X141106100Y-96398600D01*
X115345800Y-70305700D02*
X115345800Y-65586400D01*
X149860000Y-109230000D02*
X148684700Y-109230000D01*
X147922800Y-107895300D02*
X147922800Y-108518200D01*
X148634500Y-109229900D02*
X148684700Y-109229900D01*
X143355300Y-105405000D02*
X145432500Y-105405000D01*
X152958100Y-108050000D02*
X153641200Y-108733100D01*
X160020000Y-73660000D02*
X158645700Y-75034300D01*
X136926600Y-78973400D02*
X138430000Y-77470000D01*
X137393500Y-90521000D02*
X137393500Y-83816300D01*
X141106100Y-96398600D02*
X140955000Y-96247500D01*
X141030500Y-103361500D02*
X141030500Y-97075200D01*
X148684700Y-109229900D02*
X148684700Y-109230000D01*
X147922800Y-108518200D02*
X148634500Y-109229900D01*
X151040000Y-108050000D02*
X152958100Y-108050000D01*
X142230000Y-105405000D02*
X142230000Y-104279700D01*
X145432500Y-105405000D02*
X147922800Y-107895300D01*
X158359200Y-115182000D02*
X158359200Y-115531400D01*
X158645700Y-75034300D02*
X148262900Y-75034300D01*
X115345800Y-73419000D02*
X115345800Y-70305700D01*
X136926600Y-83349400D02*
X136926600Y-78973400D01*
X149860000Y-109230000D02*
X151040000Y-108050000D01*
X140955000Y-94082500D02*
X137393500Y-90521000D01*
X137393500Y-83816300D02*
X136926600Y-83349400D01*
X142230000Y-105405000D02*
X143355300Y-105405000D01*
X141030500Y-97075200D02*
X141106100Y-96999600D01*
X153641200Y-108733100D02*
X153641200Y-110464000D01*
X153641200Y-110464000D02*
X158359200Y-115182000D01*
X118946100Y-77019300D02*
X115345800Y-73419000D01*
X141948700Y-104279700D02*
X141030500Y-103361500D01*
X115345800Y-65586400D02*
X112973800Y-63214400D01*
X140955000Y-96247500D02*
X140955000Y-94082500D01*
X112973800Y-63214400D02*
X108795600Y-63214400D01*
X142230000Y-104279700D02*
X141948700Y-104279700D01*
X111567600Y-70305700D02*
X109255600Y-72617700D01*
X115345800Y-70305700D02*
X111567600Y-70305700D01*
%TO.N,/MD1*%
X155304100Y-110176700D02*
X159884800Y-114757400D01*
X164721300Y-79512800D02*
X164721300Y-80959100D01*
X159884800Y-114757400D02*
X159884800Y-116330800D01*
X167613900Y-93199500D02*
X169733900Y-95319500D01*
X151224700Y-109597400D02*
X151224700Y-109230000D01*
X167613900Y-83851700D02*
X167613900Y-93199500D01*
X164340200Y-79131700D02*
X164721300Y-79512800D01*
X145851600Y-110441300D02*
X150380800Y-110441300D01*
X164721300Y-80959100D02*
X167613900Y-83851700D01*
X143355300Y-107945000D02*
X145851600Y-110441300D01*
X152400000Y-109230000D02*
X151224700Y-109230000D01*
X150380800Y-110441300D02*
X151224700Y-109597400D01*
X169733900Y-95319500D02*
X169733900Y-96491000D01*
X169842300Y-113971000D02*
X170117400Y-114246100D01*
X155304100Y-108948600D02*
X155304100Y-110176700D01*
X169842300Y-107122600D02*
X169842300Y-113971000D01*
X167355300Y-104635600D02*
X169842300Y-107122600D01*
X142539200Y-107945000D02*
X142230000Y-107945000D01*
X142539200Y-107945000D02*
X143355300Y-107945000D01*
%TO.N,/MD2*%
X138163200Y-83820000D02*
X137390300Y-83047100D01*
X156363300Y-109772100D02*
X161150600Y-114559400D01*
X143805600Y-99325700D02*
X143805600Y-93472000D01*
X173636400Y-103748800D02*
X173636400Y-116840000D01*
X174152300Y-103232900D02*
X173636400Y-103748800D01*
X149357700Y-105514700D02*
X147662300Y-103819300D01*
X175095500Y-87584300D02*
X174152300Y-88527500D01*
X161150600Y-114559400D02*
X161150600Y-116476100D01*
X137390300Y-83047100D02*
X137390300Y-81049700D01*
X137390300Y-81049700D02*
X138430000Y-80010000D01*
X139474900Y-84668900D02*
X138626000Y-83820000D01*
X138626000Y-83820000D02*
X138163200Y-83820000D01*
X140684900Y-90351300D02*
X140684900Y-87555300D01*
X147662300Y-103182400D02*
X143805600Y-99325700D01*
X174152300Y-88527500D02*
X174152300Y-103232900D01*
X143805600Y-93472000D02*
X140684900Y-90351300D01*
X149860000Y-105514700D02*
X149357700Y-105514700D01*
X156363300Y-108428400D02*
X156363300Y-109772100D01*
X140684900Y-87555300D02*
X139474900Y-86345300D01*
X147662300Y-103819300D02*
X147662300Y-103182400D01*
X154826100Y-106891200D02*
X156363300Y-108428400D01*
X139474900Y-86345300D02*
X139474900Y-84668900D01*
X149860000Y-106690000D02*
X149860000Y-105514700D01*
%TO.N,/MD3*%
X156289100Y-107482400D02*
X157466100Y-108659400D01*
X154810100Y-102331200D02*
X154810100Y-105849400D01*
X142035800Y-88661000D02*
X144409600Y-91034800D01*
X150398500Y-108054600D02*
X148811300Y-108054600D01*
X113828000Y-70804300D02*
X114257200Y-71233500D01*
X141384500Y-81497000D02*
X142035800Y-82148300D01*
X139483000Y-81497000D02*
X141384500Y-81497000D01*
X150346900Y-97894600D02*
X151224700Y-98772400D01*
X152400000Y-106102300D02*
X152350800Y-106102300D01*
X145755800Y-94088300D02*
X149562100Y-97894600D01*
X111532100Y-71367000D02*
X111532100Y-71226200D01*
X151224700Y-100405900D02*
X152884800Y-100405900D01*
X107716600Y-91673400D02*
X107716600Y-75182500D01*
X111954000Y-70804300D02*
X113828000Y-70804300D01*
X157466100Y-108659400D02*
X157466100Y-110238000D01*
X107716600Y-75182500D02*
X111532100Y-71367000D01*
X152884800Y-100405900D02*
X154810100Y-102331200D01*
X157466100Y-110238000D02*
X164546900Y-117318800D01*
X144409600Y-91387300D02*
X145755800Y-92733500D01*
X145755800Y-92733500D02*
X145755800Y-94088300D01*
X152032600Y-105514700D02*
X151224700Y-104706800D01*
X152400000Y-106102300D02*
X152400000Y-105514700D01*
X151224700Y-104706800D02*
X151224700Y-100405900D01*
X144409600Y-91034800D02*
X144409600Y-91387300D01*
X142035800Y-82148300D02*
X142035800Y-88661000D01*
X106680000Y-92710000D02*
X107716600Y-91673400D01*
X152400000Y-106690000D02*
X152400000Y-106102300D01*
X138430000Y-82550000D02*
X139483000Y-81497000D01*
X152400000Y-105514700D02*
X152032600Y-105514700D01*
X154810100Y-105849400D02*
X156289100Y-107328400D01*
X151224700Y-98772400D02*
X151224700Y-100405900D01*
X149562100Y-97894600D02*
X150346900Y-97894600D01*
X148811300Y-108054600D02*
X148648100Y-108217800D01*
X156289100Y-107328400D02*
X156289100Y-107482400D01*
X111532100Y-71226200D02*
X111954000Y-70804300D01*
X152350800Y-106102300D02*
X150398500Y-108054600D01*
%TO.N,/MD4*%
X139925300Y-83594700D02*
X140970000Y-82550000D01*
X142230000Y-115485500D02*
X144676000Y-117931500D01*
X144255900Y-92648500D02*
X143039500Y-91432100D01*
X148684700Y-103567900D02*
X144255900Y-99139100D01*
X142230000Y-114439700D02*
X143068000Y-114439700D01*
X148684700Y-104150000D02*
X148684700Y-103567900D01*
X149860000Y-104150000D02*
X148684700Y-104150000D01*
X144676000Y-117931500D02*
X144676000Y-118155500D01*
X139925300Y-86158700D02*
X139925300Y-83594700D01*
X142230000Y-115565000D02*
X142230000Y-115485500D01*
X144255900Y-99139100D02*
X144255900Y-92648500D01*
X142230000Y-115412600D02*
X142230000Y-114439700D01*
X141135200Y-87368600D02*
X139925300Y-86158700D01*
X142230000Y-115412600D02*
X142230000Y-115485500D01*
X141135200Y-89527800D02*
X141135200Y-87368600D01*
X143906000Y-113601700D02*
X143906000Y-109542000D01*
X143039500Y-91432100D02*
X141135200Y-89527800D01*
X143068000Y-114439700D02*
X143906000Y-113601700D01*
%TO.N,/MD5*%
X141104700Y-107430400D02*
X141729800Y-106805300D01*
X140234600Y-87966800D02*
X140234600Y-90560100D01*
X165266500Y-104349400D02*
X168829200Y-107912100D01*
X141948600Y-116979700D02*
X141104700Y-116135800D01*
X168829200Y-107912100D02*
X168829200Y-119723800D01*
X108183400Y-76572000D02*
X111424100Y-73331300D01*
X141104700Y-116135800D02*
X141104700Y-107430400D01*
X143350400Y-93675900D02*
X143350400Y-99507400D01*
X161099100Y-101398100D02*
X161099100Y-101780100D01*
X143350400Y-99507400D02*
X147212000Y-103369000D01*
X161099100Y-84899100D02*
X161099100Y-101398100D01*
X160020000Y-83820000D02*
X161099100Y-84899100D01*
X142230000Y-118105000D02*
X142230000Y-116979700D01*
X108183400Y-91673400D02*
X108183400Y-76572000D01*
X142230000Y-116979700D02*
X141948600Y-116979700D01*
X141729800Y-106805300D02*
X145807000Y-106805300D01*
X147212000Y-103369000D02*
X147212000Y-105068500D01*
X140234600Y-90560100D02*
X143350400Y-93675900D01*
X145807000Y-106805300D02*
X146269000Y-107267300D01*
X147212000Y-105068500D02*
X147898200Y-105754700D01*
X138430000Y-86162200D02*
X140234600Y-87966800D01*
X161099100Y-101780100D02*
X163668400Y-104349400D01*
X109220000Y-92710000D02*
X108183400Y-91673400D01*
X138430000Y-85090000D02*
X138430000Y-86162200D01*
X163668400Y-104349400D02*
X165266500Y-104349400D01*
%TO.N,/MD6*%
X165812700Y-93945900D02*
X165812700Y-87072700D01*
X141585500Y-88847600D02*
X143959300Y-91221400D01*
X141585500Y-85705500D02*
X141585500Y-88847600D01*
X109193200Y-90780100D02*
X109193200Y-84780900D01*
X110490000Y-92076900D02*
X109193200Y-90780100D01*
X169392000Y-107698200D02*
X164063500Y-102369700D01*
X149534700Y-100434700D02*
X145030500Y-95930500D01*
X140970000Y-85090000D02*
X141585500Y-85705500D01*
X110462700Y-75893600D02*
X112378000Y-73978300D01*
X109193200Y-84780900D02*
X110462700Y-83511400D01*
X137052400Y-100534300D02*
X137052400Y-98229600D01*
X169392000Y-119260800D02*
X169392000Y-107698200D01*
X139001200Y-118541500D02*
X139001200Y-102483100D01*
X149860000Y-100434700D02*
X149534700Y-100434700D01*
X111760000Y-95250000D02*
X110490000Y-93980000D01*
X164063500Y-101161300D02*
X164735500Y-100489300D01*
X110462700Y-83511400D02*
X110462700Y-75893600D01*
X145030500Y-92645100D02*
X145030500Y-93195400D01*
X164063500Y-102369700D02*
X164063500Y-101161300D01*
X169723000Y-121536300D02*
X169723000Y-119591800D01*
X165177800Y-100489300D02*
X166153700Y-99513400D01*
X166153700Y-94286900D02*
X165812700Y-93945900D01*
X145030500Y-95930500D02*
X145030500Y-93195400D01*
X149860000Y-101610000D02*
X149860000Y-100434700D01*
X165812700Y-87072700D02*
X162560000Y-83820000D01*
X142230000Y-120645000D02*
X141104700Y-120645000D01*
X139001200Y-102483100D02*
X137052400Y-100534300D01*
X143959300Y-91221400D02*
X143959300Y-91573900D01*
X143959300Y-91573900D02*
X145030500Y-92645100D01*
X110490000Y-93980000D02*
X110490000Y-92076900D01*
X141104700Y-120645000D02*
X139001200Y-118541500D01*
X166153700Y-99513400D02*
X166153700Y-94286900D01*
X164735500Y-100489300D02*
X165177800Y-100489300D01*
X169723000Y-119591800D02*
X169392000Y-119260800D01*
%TO.N,/MD7*%
X151217700Y-114614500D02*
X151217700Y-111217100D01*
X158930400Y-97798600D02*
X158930400Y-93523000D01*
X158930400Y-93523000D02*
X159066100Y-93387300D01*
X159066100Y-93387300D02*
X159066100Y-92413100D01*
X157633900Y-115335000D02*
X157633900Y-115831800D01*
X151217700Y-111217100D02*
X151880100Y-110554700D01*
X158930400Y-92277400D02*
X158930400Y-87449600D01*
X159176400Y-98044600D02*
X158930400Y-97798600D01*
X152853600Y-110554700D02*
X157633900Y-115335000D01*
X158930400Y-87449600D02*
X160020000Y-86360000D01*
X160161900Y-123601700D02*
X160338300Y-123601700D01*
X159085600Y-116079200D02*
X158908100Y-116256700D01*
X154100800Y-104184800D02*
X154100800Y-109610300D01*
X152400000Y-101610000D02*
X152400000Y-102785300D01*
X158908100Y-122347900D02*
X160161900Y-123601700D01*
X157633900Y-115831800D02*
X158058800Y-116256700D01*
X118643900Y-84076400D02*
X118643900Y-77855900D01*
X159085600Y-114595100D02*
X159085600Y-116079200D01*
X122190000Y-87622500D02*
X118643900Y-84076400D01*
X142836300Y-122059700D02*
X149410700Y-115485300D01*
X152701300Y-102785300D02*
X154100800Y-104184800D01*
X149410700Y-115485300D02*
X150346900Y-115485300D01*
X142230000Y-123185000D02*
X142230000Y-122059700D01*
X158058800Y-116256700D02*
X158908100Y-116256700D01*
X158908100Y-116256700D02*
X158908100Y-122347900D01*
X118643900Y-77855900D02*
X112356200Y-71568200D01*
X151880100Y-110554700D02*
X152853600Y-110554700D01*
X142230000Y-122059700D02*
X142836300Y-122059700D01*
X159066100Y-92413100D02*
X158930400Y-92277400D01*
X150346900Y-115485300D02*
X151217700Y-114614500D01*
X154100800Y-109610300D02*
X159085600Y-114595100D01*
X152400000Y-102785300D02*
X152701300Y-102785300D01*
%TO.N,/A16*%
X174468100Y-110457100D02*
X175852000Y-111841000D01*
X174468100Y-103942800D02*
X174468100Y-110457100D01*
X175852000Y-111841000D02*
X176095800Y-111841000D01*
%TO.N,/A18*%
X181827000Y-107410400D02*
X181029500Y-108207900D01*
X149860000Y-68590000D02*
X151035300Y-68590000D01*
X151035300Y-68222700D02*
X151864700Y-67393300D01*
X152919700Y-67393300D02*
X153648700Y-68122300D01*
X151864700Y-67393300D02*
X152919700Y-67393300D01*
X187960000Y-91440000D02*
X181827000Y-97573000D01*
X181827000Y-97573000D02*
X181827000Y-107410400D01*
X151035300Y-68590000D02*
X151035300Y-68222700D01*
X153648700Y-68122300D02*
X153648700Y-71995600D01*
%TO.N,/A20*%
X151035300Y-65682600D02*
X151843200Y-64874700D01*
X155728000Y-64874700D02*
X156235500Y-65382200D01*
X151035300Y-66050000D02*
X151035300Y-65682600D01*
X149860000Y-66050000D02*
X151035300Y-66050000D01*
X151843200Y-64874700D02*
X155728000Y-64874700D01*
%TO.N,/A22*%
X187960000Y-83820000D02*
X186194300Y-82054300D01*
X186194300Y-82054300D02*
X186194300Y-80769300D01*
%TO.N,/~{CS_IO}*%
X163601600Y-133070000D02*
X165144400Y-131527200D01*
X152400000Y-121930000D02*
X152400000Y-120754700D01*
X155171400Y-119877000D02*
X153635500Y-119877000D01*
X195203000Y-76255800D02*
X195203000Y-128557400D01*
X152757800Y-120754700D02*
X152400000Y-120754700D01*
X165144400Y-129850000D02*
X155171400Y-119877000D01*
X163601600Y-133406900D02*
X163601600Y-133070000D01*
X165144400Y-131527200D02*
X165144400Y-129850000D01*
X153635500Y-119877000D02*
X152757800Y-120754700D01*
X190067200Y-71120000D02*
X195203000Y-76255800D01*
X187960000Y-71120000D02*
X190067200Y-71120000D01*
%TO.N,/RDY*%
X139685000Y-95740300D02*
X138527800Y-96897500D01*
X139685000Y-94615000D02*
X139685000Y-95740300D01*
X138527800Y-96897500D02*
X138527800Y-100825200D01*
%TO.N,/~{RST}*%
X151827800Y-127405300D02*
X151827800Y-125915300D01*
X144230300Y-119552300D02*
X144053000Y-119375000D01*
X156660000Y-131895300D02*
X156660000Y-134800000D01*
X156660000Y-130820000D02*
X155242500Y-130820000D01*
X141908500Y-119375000D02*
X140380800Y-117847300D01*
X156660000Y-131357600D02*
X156660000Y-130820000D01*
X140380800Y-117847300D02*
X140380800Y-96699100D01*
X156660000Y-131357600D02*
X156660000Y-131895300D01*
X142703400Y-88302900D02*
X142703400Y-76663400D01*
X119144800Y-105174800D02*
X119144800Y-100209200D01*
X144053000Y-119375000D02*
X141908500Y-119375000D01*
X144507200Y-90106700D02*
X142703400Y-88302900D01*
X155242500Y-130820000D02*
X151827800Y-127405300D01*
X149267000Y-123354500D02*
X148198600Y-123354500D01*
X142703400Y-76663400D02*
X140970000Y-74930000D01*
X151827800Y-125915300D02*
X149267000Y-123354500D01*
X119380000Y-105410000D02*
X119144800Y-105174800D01*
X156660000Y-134800000D02*
X158675000Y-136815000D01*
%TO.N,/~{NMI}*%
X149040000Y-131895300D02*
X149040000Y-134385800D01*
X149040000Y-130820000D02*
X149040000Y-131895300D01*
X150045800Y-134385800D02*
X152475000Y-136815000D01*
X149040000Y-134385800D02*
X150045800Y-134385800D01*
X148404200Y-134385800D02*
X149040000Y-134385800D01*
X145975000Y-136815000D02*
X148404200Y-134385800D01*
%TO.N,/~{ABT}*%
X114719100Y-104990900D02*
X114719100Y-100292200D01*
X114300000Y-105410000D02*
X114719100Y-104990900D01*
%TO.N,/~{CS_VIA}*%
X126985000Y-94615000D02*
X126985000Y-93489700D01*
X133057000Y-84797000D02*
X133350000Y-85090000D01*
X133057000Y-78770400D02*
X133057000Y-84797000D01*
X164078800Y-61945100D02*
X171667000Y-69533300D01*
X171667000Y-72607000D02*
X172720000Y-73660000D01*
X131920700Y-88804700D02*
X131920700Y-86519300D01*
X138054500Y-73772900D02*
X133057000Y-78770400D01*
X126985000Y-93489700D02*
X127235700Y-93489700D01*
X163830100Y-61945100D02*
X164078800Y-61945100D01*
X171667000Y-69533300D02*
X171667000Y-72607000D01*
X127235700Y-93489700D02*
X131920700Y-88804700D01*
X131920700Y-86519300D02*
X133350000Y-85090000D01*
X139246200Y-73772900D02*
X138054500Y-73772900D01*
%TO.N,/~{IRQ_CPU}*%
X112138300Y-101598800D02*
X112138300Y-103912700D01*
X107504300Y-96964800D02*
X112138300Y-101598800D01*
%TO.N,/VPA*%
X126728000Y-105724900D02*
X127474500Y-104978400D01*
X131380300Y-101609500D02*
X131380300Y-99540400D01*
X127474500Y-104978400D02*
X128011400Y-104978400D01*
X128011400Y-104978400D02*
X131380300Y-101609500D01*
%TO.N,/AD7*%
X147750300Y-127626400D02*
X148407000Y-126969700D01*
X148407000Y-126969700D02*
X150115400Y-126969700D01*
X155109300Y-125806100D02*
X155109300Y-123716600D01*
X134610000Y-120645000D02*
X134610000Y-121770300D01*
X134610000Y-121770300D02*
X134796700Y-121770300D01*
X165272200Y-116199000D02*
X165272200Y-117619300D01*
X160850500Y-122041000D02*
X159674300Y-122041000D01*
X150115400Y-126969700D02*
X150973300Y-126111800D01*
X138291900Y-125265500D02*
X138291900Y-125749700D01*
X134796700Y-121770300D02*
X138291900Y-125265500D01*
X158263600Y-108431200D02*
X158263600Y-109190400D01*
X155109300Y-123716600D02*
X154513700Y-123121000D01*
X165272200Y-117619300D02*
X160850500Y-122041000D01*
X158263600Y-109190400D02*
X165272200Y-116199000D01*
X157014400Y-107182000D02*
X158263600Y-108431200D01*
%TO.N,/AD5*%
X134926300Y-129199500D02*
X135075600Y-129199500D01*
X150695700Y-133311200D02*
X151996200Y-133311200D01*
X151996200Y-133311200D02*
X156522900Y-137837900D01*
X171654800Y-91453000D02*
X171366200Y-91741600D01*
X181502500Y-72677200D02*
X181502500Y-78429200D01*
X195951400Y-127640400D02*
X195951400Y-76367300D01*
X128773500Y-118110000D02*
X130376200Y-119712700D01*
X127000000Y-118110000D02*
X128773500Y-118110000D01*
X195951400Y-76367300D02*
X189262400Y-69678300D01*
X139905900Y-130071800D02*
X140513000Y-130071800D01*
X130376200Y-124649400D02*
X134926300Y-129199500D01*
X130376200Y-119712700D02*
X130376200Y-124649400D01*
X138635700Y-131342000D02*
X139905900Y-130071800D01*
X189262400Y-69678300D02*
X184825300Y-69678300D01*
X171654800Y-88276900D02*
X171654800Y-91453000D01*
X181502500Y-78429200D02*
X171654800Y-88276900D01*
%TO.N,/AD4*%
X133484700Y-113025000D02*
X129669700Y-116840000D01*
X129669700Y-117068500D02*
X125501500Y-117068500D01*
X125501500Y-117068500D02*
X124460000Y-118110000D01*
X134610000Y-113025000D02*
X133484700Y-113025000D01*
X129669700Y-116840000D02*
X129669700Y-117068500D01*
%TO.N,/AD3*%
X133484700Y-110485000D02*
X128399700Y-115570000D01*
X128399700Y-115570000D02*
X127000000Y-115570000D01*
X134610000Y-110485000D02*
X133484700Y-110485000D01*
%TO.N,/AD0*%
X133484700Y-102865000D02*
X133484700Y-103005700D01*
X127281500Y-109208900D02*
X126789800Y-109208900D01*
X134610000Y-102865000D02*
X133484700Y-102865000D01*
X125730000Y-110268700D02*
X125730000Y-111760000D01*
X126789800Y-109208900D02*
X125730000Y-110268700D01*
X133484700Y-103005700D02*
X127281500Y-109208900D01*
X125730000Y-111760000D02*
X124460000Y-113030000D01*
%TO.N,/R~{W}*%
X137275000Y-103929300D02*
X137275000Y-122181500D01*
X125889400Y-107594700D02*
X128055400Y-105428700D01*
X137275000Y-122181500D02*
X138521200Y-123427700D01*
X134267700Y-100922000D02*
X137275000Y-103929300D01*
X148684700Y-120395600D02*
X148684700Y-119390000D01*
X133350000Y-100922000D02*
X133350000Y-87630000D01*
X133350000Y-100922000D02*
X134267700Y-100922000D01*
X128843300Y-105428700D02*
X133350000Y-100922000D01*
X142230000Y-125725000D02*
X143355300Y-125725000D01*
X149860000Y-119390000D02*
X148684700Y-119390000D01*
X128055400Y-105428700D02*
X128843300Y-105428700D01*
X125889400Y-109060600D02*
X125889400Y-107594700D01*
X124460000Y-110490000D02*
X125889400Y-109060600D01*
X143355300Y-125725000D02*
X148684700Y-120395600D01*
%TO.N,/VDA*%
X123261800Y-89603800D02*
X123261800Y-87668500D01*
X183944100Y-76624500D02*
X172150800Y-88417800D01*
X170640900Y-91441200D02*
X171116300Y-90965800D01*
X120573100Y-56409300D02*
X120573100Y-62271200D01*
X172150800Y-92015100D02*
X171694200Y-92471700D01*
X179945500Y-67357500D02*
X180600400Y-67357500D01*
X120573100Y-62271200D02*
X119076800Y-63767500D01*
X170640900Y-92042000D02*
X170640900Y-91441200D01*
X171116300Y-89705500D02*
X170805700Y-89394900D01*
X180600400Y-67357500D02*
X183944100Y-70701200D01*
X120770700Y-102070600D02*
X120770700Y-91647000D01*
X167393604Y-54808600D02*
X166193212Y-53608208D01*
X171070600Y-92471700D02*
X170640900Y-92042000D01*
X120770700Y-91647000D02*
X121654700Y-90763000D01*
X125404300Y-47918600D02*
X125404300Y-51578100D01*
X167396600Y-54808600D02*
X179945500Y-67357500D01*
X119076800Y-63767500D02*
X119076800Y-71407500D01*
X121920000Y-107034300D02*
X122958100Y-105996200D01*
X171116300Y-90965800D02*
X171116300Y-89705500D01*
X171694200Y-92471700D02*
X171070600Y-92471700D01*
X119671400Y-84078100D02*
X119671400Y-73394400D01*
X183944100Y-70701200D02*
X183944100Y-76624500D01*
X122958100Y-105996200D02*
X122958100Y-104258000D01*
X121920000Y-107950000D02*
X121920000Y-107034300D01*
X119076800Y-71407500D02*
X119366800Y-71697500D01*
X172150800Y-88417800D02*
X172150800Y-92015100D01*
X122958100Y-104258000D02*
X120770700Y-102070600D01*
X125404300Y-51578100D02*
X120573100Y-56409300D01*
X123261800Y-87668500D02*
X119671400Y-84078100D01*
X119671400Y-73394400D02*
X118974900Y-72697900D01*
X167396600Y-54808600D02*
X167393604Y-54808600D01*
%TO.N,/T1_CLK*%
X128860400Y-80528800D02*
X127159400Y-82229800D01*
X139165600Y-71010500D02*
X135762400Y-71010500D01*
X134460700Y-73165400D02*
X132433600Y-75192500D01*
X132433600Y-75192500D02*
X130919200Y-75192500D01*
X134460700Y-72312200D02*
X134460700Y-73165400D01*
X127159400Y-82229800D02*
X127159400Y-86200600D01*
X130919200Y-75192500D02*
X128860400Y-77251300D01*
X135762400Y-71010500D02*
X134460700Y-72312200D01*
X128860400Y-77251300D02*
X128860400Y-80528800D01*
X127159400Y-86200600D02*
X125730000Y-87630000D01*
%TO.N,/~{CS_ROM}*%
X155152600Y-46560700D02*
X135073300Y-46560700D01*
X123464500Y-60016700D02*
X119528900Y-63952300D01*
X119528900Y-63952300D02*
X119528900Y-70482100D01*
X135073300Y-46560700D02*
X123464500Y-58169500D01*
X120567900Y-79434400D02*
X120885000Y-79751500D01*
X161046200Y-52454300D02*
X155152600Y-46560700D01*
X163245500Y-52454300D02*
X161046200Y-52454300D01*
X123464500Y-58169500D02*
X123464500Y-60016700D01*
X109962600Y-90912600D02*
X109962600Y-85116500D01*
X181773600Y-70982400D02*
X163245500Y-52454300D01*
X181773600Y-71922600D02*
X181773600Y-70982400D01*
X120567900Y-71521100D02*
X120567900Y-79434400D01*
X182880000Y-73660000D02*
X182880000Y-73028900D01*
X181773700Y-71922600D02*
X181773600Y-71922600D01*
X111760000Y-92710000D02*
X109962600Y-90912600D01*
X119528900Y-70482100D02*
X120567900Y-71521100D01*
X182880000Y-73028900D02*
X181773700Y-71922600D01*
%TO.N,/~{OE_MEM}*%
X110700100Y-84675500D02*
X111322200Y-84053400D01*
X141665400Y-51655300D02*
X141009800Y-50999700D01*
X124074100Y-60044000D02*
X120254200Y-63863900D01*
X179286800Y-75984000D02*
X179286800Y-71140900D01*
X131844600Y-50999700D02*
X124074100Y-58770200D01*
X150840100Y-49626400D02*
X145951000Y-49626400D01*
X141009800Y-50999700D02*
X131844600Y-50999700D01*
X176805300Y-68659400D02*
X173741800Y-68659400D01*
X120254200Y-63863900D02*
X120254200Y-69210600D01*
X163555300Y-57793500D02*
X158662700Y-57793500D01*
X145951000Y-49626400D02*
X143922100Y-51655300D01*
X143922100Y-51655300D02*
X141665400Y-51655300D01*
X179286800Y-71140900D02*
X176805300Y-68659400D01*
X158662700Y-57793500D02*
X151427400Y-50558200D01*
X110700100Y-89110100D02*
X110700100Y-84675500D01*
X151427400Y-50558200D02*
X151427400Y-50213700D01*
X168910000Y-63148200D02*
X163555300Y-57793500D01*
X168910000Y-63827600D02*
X168910000Y-63148200D01*
X111760000Y-90170000D02*
X110700100Y-89110100D01*
X180559200Y-77256400D02*
X179286800Y-75984000D01*
X111739900Y-84053400D02*
X113062400Y-82730900D01*
X113062400Y-82730900D02*
X113062400Y-75250500D01*
X151427400Y-50213700D02*
X150840100Y-49626400D01*
X124074100Y-58770200D02*
X124074100Y-60044000D01*
X173741800Y-68659400D02*
X168910000Y-63827600D01*
X111322200Y-84053400D02*
X111739900Y-84053400D01*
%TO.N,/~{CS_RAM0}*%
X187745300Y-80010000D02*
X188169200Y-80010000D01*
X188998300Y-91875200D02*
X188163500Y-92710000D01*
X190500000Y-73660000D02*
X189148900Y-75011100D01*
X185358900Y-110782600D02*
X185358900Y-113999100D01*
X186923400Y-109218100D02*
X185358900Y-110782600D01*
X188169200Y-80010000D02*
X188998300Y-80839100D01*
X188163500Y-92710000D02*
X187745200Y-92710000D01*
X185358900Y-113999100D02*
X186106700Y-114746900D01*
X186923400Y-93531800D02*
X186923400Y-109218100D01*
X186905800Y-78307000D02*
X186905800Y-79170500D01*
X187742800Y-77470000D02*
X186905800Y-78307000D01*
X187745200Y-92710000D02*
X186923400Y-93531800D01*
X189148900Y-76500600D02*
X188179500Y-77470000D01*
X188998300Y-80839100D02*
X188998300Y-91875200D01*
X186905800Y-79170500D02*
X187745300Y-80010000D01*
X188179500Y-77470000D02*
X187742800Y-77470000D01*
X189148900Y-75011100D02*
X189148900Y-76500600D01*
%TO.N,/~{CS_RAM1}*%
X175684500Y-104372800D02*
X175684500Y-108578100D01*
X176468500Y-87691500D02*
X176468500Y-103588800D01*
X175684500Y-108578100D02*
X175922800Y-108816400D01*
X187960000Y-76200000D02*
X176468500Y-87691500D01*
X176468500Y-103588800D02*
X175684500Y-104372800D01*
%TO.N,/3V3*%
X108034200Y-65915800D02*
X114576900Y-65915800D01*
X104140000Y-69810000D02*
X108034200Y-65915800D01*
%TO.N,/~{FT_TXE}*%
X164237900Y-71120000D02*
X153291200Y-60173300D01*
X165100000Y-71120000D02*
X164237900Y-71120000D01*
%TO.N,/~{FT_RXF}*%
X160639000Y-68640900D02*
X160639000Y-70668200D01*
X151808700Y-59810600D02*
X160639000Y-68640900D01*
X160639000Y-70668200D02*
X162520100Y-72549300D01*
X162520100Y-72549300D02*
X163989300Y-72549300D01*
X163989300Y-72549300D02*
X165100000Y-73660000D01*
%TO.N,/PB5*%
X140547400Y-67525200D02*
X136669000Y-67525200D01*
X132783300Y-71045900D02*
X132303100Y-71526100D01*
X133645800Y-71045900D02*
X132783300Y-71045900D01*
X128410100Y-79869900D02*
X125730000Y-82550000D01*
X151035300Y-57037300D02*
X140547400Y-67525200D01*
X132303100Y-73414100D02*
X130975000Y-74742200D01*
X149860000Y-53355000D02*
X149860000Y-54530300D01*
X128410100Y-77064600D02*
X128410100Y-79869900D01*
X149860000Y-54530300D02*
X150227400Y-54530300D01*
X134620000Y-70071700D02*
X133645800Y-71045900D01*
X151035300Y-55338200D02*
X151035300Y-57037300D01*
X136669000Y-67525200D02*
X134620000Y-69574200D01*
X150227400Y-54530300D02*
X151035300Y-55338200D01*
X132303100Y-71526100D02*
X132303100Y-73414100D01*
X130732500Y-74742200D02*
X128410100Y-77064600D01*
X130975000Y-74742200D02*
X130732500Y-74742200D01*
X134620000Y-69574200D02*
X134620000Y-70071700D01*
%TO.N,/PS2M_D*%
X127382400Y-78357600D02*
X125730000Y-80010000D01*
X127382400Y-73669400D02*
X127382400Y-78357600D01*
X137145000Y-93489700D02*
X137145000Y-93232200D01*
X137145000Y-94615000D02*
X137145000Y-93489700D01*
X134620000Y-81679700D02*
X133803500Y-80863200D01*
X134620000Y-90707200D02*
X134620000Y-81679700D01*
X137145000Y-93232200D02*
X134620000Y-90707200D01*
%TO.N,/PS2M_C*%
X127959800Y-76713000D02*
X127959800Y-79256100D01*
X127959800Y-79256100D02*
X125936200Y-81279700D01*
X124693400Y-88104800D02*
X126789400Y-90200800D01*
X125730000Y-85090000D02*
X124693100Y-84053100D01*
X124693100Y-84053100D02*
X124693100Y-81279700D01*
X123423400Y-80010000D02*
X123190000Y-80010000D01*
X125936200Y-81279700D02*
X124693100Y-81279700D01*
X124693400Y-86126600D02*
X124693400Y-88104800D01*
X130833000Y-73839800D02*
X127959800Y-76713000D01*
X126789400Y-90200800D02*
X128861900Y-90200800D01*
X125730000Y-85090000D02*
X124693400Y-86126600D01*
X124693100Y-81279700D02*
X123423400Y-80010000D01*
%TO.N,/PA0*%
X138435000Y-60325000D02*
X138435000Y-61500300D01*
X138067600Y-61500300D02*
X137259700Y-62308200D01*
X137259700Y-62308200D02*
X137259700Y-63400300D01*
X137259700Y-63400300D02*
X130810000Y-69850000D01*
X138435000Y-61500300D02*
X138067600Y-61500300D01*
%TO.N,/PA1*%
X138435000Y-64040300D02*
X137627000Y-64040300D01*
X131852700Y-69814600D02*
X131852700Y-71347300D01*
X137627000Y-64040300D02*
X131852700Y-69814600D01*
X131852700Y-71347300D02*
X130810000Y-72390000D01*
X138435000Y-62865000D02*
X138435000Y-64040300D01*
%TO.N,/PA5*%
X123100800Y-72300800D02*
X123190000Y-72390000D01*
X123100800Y-70799600D02*
X123100800Y-72300800D01*
X133355000Y-62865000D02*
X132179700Y-62865000D01*
X132179700Y-63232400D02*
X131371800Y-64040300D01*
X129860100Y-64040300D02*
X123100800Y-70799600D01*
X132179700Y-62865000D02*
X132179700Y-63232400D01*
X131371800Y-64040300D02*
X129860100Y-64040300D01*
%TO.N,/PA7*%
X128275000Y-64040300D02*
X122153400Y-70161900D01*
X128275000Y-62865000D02*
X128275000Y-64040300D01*
X122153400Y-73893400D02*
X123190000Y-74930000D01*
X122153400Y-70161900D02*
X122153400Y-73893400D01*
%TO.N,/~{IRQ_VIA}*%
X135343200Y-73839800D02*
X135343200Y-75489100D01*
X140459100Y-68250400D02*
X137023300Y-68250400D01*
X153494500Y-59046000D02*
X149663500Y-59046000D01*
X170180000Y-71120000D02*
X166187700Y-67127700D01*
X166187700Y-67127700D02*
X161576200Y-67127700D01*
X130810000Y-80022300D02*
X130810000Y-85090000D01*
X137023300Y-68250400D02*
X137023300Y-68250500D01*
X149663500Y-59046000D02*
X140459100Y-68250400D01*
X161576200Y-67127700D02*
X153494500Y-59046000D01*
X135343200Y-75489100D02*
X130810000Y-80022300D01*
%TO.N,/~{CS_EXT}*%
X172876100Y-88743900D02*
X172876100Y-92102200D01*
X187960000Y-73660000D02*
X172876100Y-88743900D01*
%TO.N,/FT_WR*%
X160064600Y-61896900D02*
X160064600Y-64562200D01*
X150311100Y-52143400D02*
X160064600Y-61896900D01*
X171216600Y-70658900D02*
X171216600Y-72623400D01*
X149171400Y-52143400D02*
X150311100Y-52143400D01*
X165733400Y-65175700D02*
X171216600Y-70658900D01*
X171216600Y-72623400D02*
X170180000Y-73660000D01*
X128195500Y-58699200D02*
X142615600Y-58699200D01*
X160064600Y-64562200D02*
X160678100Y-65175700D01*
X160678100Y-65175700D02*
X165733400Y-65175700D01*
X122414500Y-64480200D02*
X128195500Y-58699200D01*
X142615600Y-58699200D02*
X149171400Y-52143400D01*
X122414500Y-66652700D02*
X122414500Y-64480200D01*
%TO.N,Net-(C1-Pad1)*%
X119380000Y-60960000D02*
X119380000Y-61595000D01*
X116840000Y-58420000D02*
X119380000Y-60960000D01*
%TO.N,Net-(C2-Pad2)*%
X111760000Y-60960000D02*
X114300000Y-58420000D01*
X114300000Y-58420000D02*
X114300000Y-56760000D01*
X114300000Y-56760000D02*
X116820000Y-54240000D01*
X111760000Y-61595000D02*
X111760000Y-60960000D01*
%TO.N,/~{WSE_EXT}*%
X157993300Y-125185900D02*
X155362200Y-122554800D01*
X191182200Y-132673000D02*
X192045500Y-131809700D01*
X192045500Y-73735200D02*
X190485100Y-72174800D01*
X192045500Y-131809700D02*
X192045500Y-73735200D01*
X190485100Y-72174800D02*
X186474800Y-72174800D01*
X186474800Y-72174800D02*
X185420000Y-71120000D01*
X160762400Y-135555900D02*
X157993300Y-132786800D01*
X157993300Y-132786800D02*
X157993300Y-125185900D01*
%TO.N,/GCLK*%
X149860000Y-116850000D02*
X149860000Y-118025300D01*
X134615000Y-140960000D02*
X134615000Y-139834700D01*
X148994400Y-118025300D02*
X142667200Y-124352500D01*
X139931000Y-127365200D02*
X137898900Y-129397300D01*
X138538600Y-102657500D02*
X136326900Y-100445800D01*
X138275200Y-95530700D02*
X138275200Y-92428400D01*
X136943200Y-86143200D02*
X135890000Y-85090000D01*
X168894200Y-80025800D02*
X175260000Y-73660000D01*
X142667200Y-124352500D02*
X139931000Y-124352500D01*
X137898900Y-129397300D02*
X137898900Y-132203200D01*
X137898900Y-132203200D02*
X138322400Y-132626700D01*
X139931000Y-121335800D02*
X138538600Y-119943400D01*
X136943200Y-91096400D02*
X136943200Y-86143200D01*
X149860000Y-118025300D02*
X148994400Y-118025300D01*
X138538600Y-119943400D02*
X138538600Y-102657500D01*
X139931000Y-124352500D02*
X139931000Y-121335800D01*
X167542000Y-80025800D02*
X168894200Y-80025800D01*
X139931000Y-124352500D02*
X139931000Y-127365200D01*
X138322400Y-132626700D02*
X138322400Y-136127300D01*
X136326900Y-100445800D02*
X136326900Y-97479000D01*
X138275200Y-92428400D02*
X136943200Y-91096400D01*
X138322400Y-136127300D02*
X134615000Y-139834700D01*
X136326900Y-97479000D02*
X138275200Y-95530700D01*
%TO.N,/PHI2*%
X135128100Y-134522900D02*
X136029700Y-133621300D01*
X124227700Y-119380000D02*
X124710500Y-119380000D01*
X123408400Y-109001600D02*
X123408400Y-118560700D01*
X127157700Y-122281000D02*
X127383100Y-122281000D01*
X133484600Y-133832500D02*
X134175000Y-134522900D01*
X137155000Y-133340000D02*
X136029700Y-133340000D01*
X123408400Y-118560700D02*
X124227700Y-119380000D01*
X134175000Y-134522900D02*
X135128100Y-134522900D01*
X127383100Y-122281000D02*
X127383100Y-122293200D01*
X125496600Y-120619900D02*
X127157700Y-122281000D01*
X133484600Y-128394700D02*
X133484600Y-133832500D01*
X127383100Y-122281000D02*
X129650900Y-120013200D01*
X125496600Y-120166100D02*
X125496600Y-120619900D01*
X136029700Y-133621300D02*
X136029700Y-133340000D01*
X124710500Y-119380000D02*
X125496600Y-120166100D01*
X127383100Y-122293200D02*
X133484600Y-128394700D01*
X124460000Y-107950000D02*
X123408400Y-109001600D01*
%TO.N,/PHI1*%
X169630000Y-88908000D02*
X169630000Y-90271100D01*
X169630000Y-90271100D02*
X169832300Y-90473400D01*
X152400000Y-114310000D02*
X152400000Y-115485300D01*
X164017800Y-103618400D02*
X163604900Y-103205500D01*
X176530000Y-82008000D02*
X169630000Y-88908000D01*
X139695000Y-133340000D02*
X139695000Y-132214700D01*
X177800000Y-71120000D02*
X176530000Y-72390000D01*
X152032600Y-115485300D02*
X152400000Y-115485300D01*
X139695000Y-132214700D02*
X144694300Y-127215400D01*
X149560300Y-120565400D02*
X150443300Y-120565400D01*
X163604900Y-103205500D02*
X163604900Y-92404000D01*
X151224700Y-119784000D02*
X151224700Y-116293200D01*
X144694300Y-127215400D02*
X144694300Y-125431400D01*
X144694300Y-125431400D02*
X149560300Y-120565400D01*
X163604900Y-92404000D02*
X163719100Y-92289800D01*
X151224700Y-116293200D02*
X152032600Y-115485300D01*
X176530000Y-72390000D02*
X176530000Y-82008000D01*
X150443300Y-120565400D02*
X151224700Y-119784000D01*
%TO.N,/PB6*%
X123296000Y-81148500D02*
X124242700Y-82095200D01*
X135384800Y-59149600D02*
X134625000Y-59909400D01*
X149860000Y-55895000D02*
X148684700Y-55895000D01*
X126657100Y-73369000D02*
X126657100Y-73969800D01*
X126951300Y-72188300D02*
X126951300Y-73074800D01*
X134625000Y-59909400D02*
X134625000Y-64553000D01*
X126657100Y-73969800D02*
X126804200Y-74116900D01*
X129540000Y-69638000D02*
X129540000Y-70100500D01*
X129540000Y-70100500D02*
X128753900Y-70886600D01*
X122105600Y-80393400D02*
X122860700Y-81148500D01*
X122105600Y-79594700D02*
X122105600Y-80393400D01*
X126804200Y-74116900D02*
X126804200Y-77873500D01*
X122860700Y-81148500D02*
X123296000Y-81148500D01*
X124242700Y-84037300D02*
X123190000Y-85090000D01*
X122960300Y-78740000D02*
X122105600Y-79594700D01*
X128753900Y-70886600D02*
X128253000Y-70886600D01*
X126951300Y-73074800D02*
X126657100Y-73369000D01*
X124242700Y-82095200D02*
X124242700Y-84037300D01*
X126804200Y-77873500D02*
X125937700Y-78740000D01*
X128253000Y-70886600D02*
X126951300Y-72188300D01*
X134625000Y-64553000D02*
X129540000Y-69638000D01*
X148684700Y-55895000D02*
X145430100Y-59149600D01*
X145430100Y-59149600D02*
X135384800Y-59149600D01*
X125937700Y-78740000D02*
X122960300Y-78740000D01*
%TO.N,Net-(U2-Pad12)*%
X127257800Y-140697200D02*
X127257800Y-136742500D01*
X126995000Y-140960000D02*
X127257800Y-140697200D01*
X127257800Y-136742500D02*
X129535000Y-134465300D01*
X129535000Y-133340000D02*
X129535000Y-134465300D01*
%TO.N,Net-(U2-Pad11)*%
X129535000Y-137005300D02*
X132075000Y-134465300D01*
X132075000Y-133340000D02*
X132075000Y-134465300D01*
X129535000Y-140960000D02*
X129535000Y-137005300D01*
%TO.N,/~{WSE}*%
X165455400Y-72549300D02*
X166522400Y-73616300D01*
X165722500Y-110889500D02*
X162886800Y-108053800D01*
X160930400Y-106465700D02*
X157553200Y-103088500D01*
X164987700Y-121012800D02*
X165722500Y-120278000D01*
X161467200Y-138616300D02*
X166265400Y-133818100D01*
X164987700Y-128669800D02*
X164987700Y-121012800D01*
X162886800Y-108053800D02*
X161355300Y-108053800D01*
X166522400Y-80557200D02*
X169107000Y-83141800D01*
X156041600Y-138616300D02*
X161467200Y-138616300D01*
X164626200Y-72549300D02*
X165455400Y-72549300D01*
X161355300Y-108053800D02*
X160930400Y-107628900D01*
X166522400Y-73616300D02*
X166522400Y-80557200D01*
X160930400Y-107628900D02*
X160930400Y-106465700D01*
X162560000Y-71120000D02*
X163196900Y-71120000D01*
X166265400Y-129947500D02*
X164987700Y-128669800D01*
X169107000Y-92341200D02*
X169683200Y-92917400D01*
X153915700Y-136490400D02*
X156041600Y-138616300D01*
X165722500Y-120278000D02*
X165722500Y-110889500D01*
X166265400Y-133818100D02*
X166265400Y-129947500D01*
X169107000Y-83141800D02*
X169107000Y-92341200D01*
X163196900Y-71120000D02*
X164626200Y-72549300D01*
%TO.N,/PB4*%
X140796400Y-52105700D02*
X147394000Y-52105700D01*
X128569500Y-54911700D02*
X132031100Y-51450100D01*
X123190000Y-82550000D02*
X121610400Y-80970400D01*
X140140800Y-51450100D02*
X140796400Y-52105700D01*
X128569500Y-56786300D02*
X128569500Y-54911700D01*
X121204800Y-64151000D02*
X128569500Y-56786300D01*
X149860000Y-50815000D02*
X148684700Y-50815000D01*
X147394000Y-52105700D02*
X148684700Y-50815000D01*
X121610400Y-76830600D02*
X121204800Y-76425000D01*
X121610400Y-80970400D02*
X121610400Y-76830600D01*
X132031100Y-51450100D02*
X140140800Y-51450100D01*
X121204800Y-76425000D02*
X121204800Y-64151000D01*
%TD*%
M02*
