M48
; DRILL file {KiCad (6.0.4)} date Mon Jul 11 08:06:58 2022
; FORMAT={-:-/ absolute / metric / decimal}
; #@! TF.CreationDate,2022-07-11T08:06:58+02:00
; #@! TF.GenerationSoftware,Kicad,Pcbnew,(6.0.4)
; #@! TF.FileFunction,Plated,1,4,PTH
FMAT,2
METRIC
; #@! TA.AperFunction,Plated,PTH,ViaDrill
T1C0.400
; #@! TA.AperFunction,Plated,PTH,ComponentDrill
T2C0.600
; #@! TA.AperFunction,Plated,PTH,ComponentDrill
T3C0.700
; #@! TA.AperFunction,Plated,PTH,ComponentDrill
T4C0.800
; #@! TA.AperFunction,Plated,PTH,ComponentDrill
T5C0.900
; #@! TA.AperFunction,Plated,PTH,ComponentDrill
T6C0.970
; #@! TA.AperFunction,Plated,PTH,ComponentDrill
T7C1.000
; #@! TA.AperFunction,Plated,PTH,ComponentDrill
T8C1.100
; #@! TA.AperFunction,Plated,PTH,ComponentDrill
T9C1.300
; #@! TA.AperFunction,Plated,PTH,ComponentDrill
T10C2.193
; #@! TA.AperFunction,Plated,PTH,ComponentDrill
T11C2.350
; #@! TA.AperFunction,Plated,PTH,ComponentDrill
T12C2.370
; #@! TA.AperFunction,Plated,PTH,ComponentDrill
T13C3.200
%
G90
G05
T1
X100.458Y-98.803
X103.014Y-100.589
X106.989Y-100.583
X107.504Y-96.965
X108.796Y-63.214
X109.256Y-72.618
X109.963Y-85.117
X111.382Y-103.251
X111.424Y-73.331
X112.138Y-103.913
X112.356Y-71.568
X112.378Y-73.978
X113.062Y-75.251
X114.023Y-66.798
X114.257Y-71.233
X114.577Y-65.916
X114.719Y-100.292
X117.265Y-85.432
X117.765Y-116.527
X118.946Y-77.019
X118.975Y-72.698
X119.145Y-100.209
X119.367Y-71.697
X119.995Y-103.08
X120.254Y-69.211
X120.885Y-79.751
X121.655Y-90.763
X122.19Y-87.623
X122.414Y-66.653
X123.262Y-89.604
X123.826Y-71.1
X125.404Y-47.919
X126.532Y-139.549
X126.728Y-105.725
X127.382Y-73.669
X127.711Y-104.253
X128.397Y-143.043
X128.862Y-90.201
X129.651Y-120.013
X130.446Y-77.793
X130.833Y-73.84
X131.22Y-75.918
X131.38Y-99.54
X131.773Y-105.867
X132.488Y-125.735
X132.89Y-123.804
X133.803Y-80.863
X135.076Y-129.2
X135.343Y-73.84
X135.819Y-93.124
X136.514Y-118.996
X137.023Y-68.251
X137.052Y-98.23
X138.292Y-125.75
X138.333Y-127.043
X138.521Y-123.428
X138.528Y-100.825
X138.636Y-131.342
X139.166Y-71.01
X139.206Y-122.465
X139.246Y-73.773
X140.381Y-96.699
X140.513Y-130.072
X143.04Y-91.432
X143.744Y-79.325
X143.906Y-109.542
X144.23Y-119.552
X144.507Y-90.107
X144.676Y-118.155
X145.03Y-93.195
X146.269Y-107.267
X146.383Y-89.367
X147.75Y-127.626
X147.882Y-77.392
X147.898Y-105.755
X148.172Y-93.308
X148.199Y-123.354
X148.263Y-75.034
X148.648Y-108.218
X150.696Y-133.311
X150.973Y-126.112
X151.809Y-59.811
X153.291Y-60.173
X153.457Y-127.975
X153.649Y-71.996
X153.884Y-120.654
X153.916Y-136.49
X154.514Y-123.121
X154.826Y-106.891
X155.109Y-125.806
X155.304Y-108.949
X155.362Y-122.555
X156.236Y-65.382
X156.523Y-137.838
X156.994Y-78.521
X157.014Y-107.182
X157.553Y-103.088
X157.891Y-92.9
X158.359Y-115.531
X159.176Y-98.045
X159.436Y-132.321
X159.674Y-122.041
X159.885Y-116.331
X160.338Y-123.602
X160.762Y-135.556
X161.094Y-108.976
X161.099Y-101.398
X161.151Y-116.476
X161.414Y-109.976
X161.656Y-107.328
X163.602Y-133.407
X163.719Y-92.29
X163.83Y-61.945
X164.018Y-103.618
X164.247Y-110.499
X164.34Y-79.132
X164.396Y-120.45
X164.412Y-130.153
X164.547Y-117.319
X165.776Y-124.649
X165.987Y-108.291
X166.159Y-106.328
X166.193Y-53.608
X166.276Y-126.81
X167.355Y-104.636
X167.542Y-80.026
X167.669Y-97.43
X168.672Y-129.017
X168.829Y-119.724
X168.997Y-127.656
X169.683Y-92.917
X169.723Y-121.536
X169.734Y-96.491
X169.832Y-90.473
X170.117Y-114.246
X170.267Y-130.853
X170.496Y-93.519
X170.568Y-112.196
X170.806Y-89.395
X170.863Y-125.405
X171.366Y-91.742
X171.583Y-136.603
X171.864Y-106.096
X172.876Y-92.102
X173.528Y-132.073
X173.636Y-116.84
X173.809Y-125.957
X173.988Y-123.919
X174.468Y-103.943
X174.952Y-120.015
X175.095Y-87.584
X175.166Y-128.792
X175.923Y-108.816
X176.096Y-111.841
X176.392Y-113.665
X176.41Y-106.049
X176.863Y-129.539
X177.194Y-94.677
X180.019Y-107.646
X180.05Y-114.209
X180.559Y-77.256
X181.029Y-108.208
X181.502Y-72.677
X182.368Y-116.527
X182.829Y-112.713
X184.465Y-125.212
X184.614Y-126.841
X184.825Y-69.678
X185.812Y-128.952
X186.107Y-112.596
X186.107Y-114.747
X186.121Y-124.038
X186.128Y-118.745
X186.194Y-80.769
X189.061Y-123.825
X191.182Y-132.673
X195.203Y-128.557
X195.951Y-127.64
T2
X172.963Y-55.88
X174.963Y-55.88
T3
X184.055Y-60.64
X186.055Y-60.64
X188.055Y-60.64
T4
X99.14Y-74.93
X101.6Y-82.55
X101.6Y-85.09
X101.6Y-87.63
X101.6Y-90.17
X101.6Y-92.71
X101.6Y-102.87
X101.6Y-107.95
X104.14Y-64.81
X104.14Y-69.81
X104.14Y-74.93
X104.14Y-80.01
X104.14Y-82.55
X104.14Y-85.09
X104.14Y-87.63
X104.14Y-90.17
X104.14Y-92.71
X104.14Y-95.25
X104.14Y-102.87
X104.14Y-107.95
X106.68Y-80.01
X106.68Y-82.55
X106.68Y-92.71
X106.68Y-95.25
X109.22Y-80.01
X109.22Y-82.55
X109.22Y-92.71
X109.22Y-95.25
X109.22Y-107.95
X109.22Y-110.49
X109.22Y-113.03
X109.22Y-115.57
X109.22Y-118.11
X109.22Y-120.65
X109.3Y-58.42
X109.855Y-133.35
X109.855Y-140.97
X111.76Y-61.595
X111.76Y-80.01
X111.76Y-82.55
X111.76Y-85.09
X111.76Y-87.63
X111.76Y-90.17
X111.76Y-92.71
X111.76Y-95.25
X111.76Y-105.41
X111.76Y-107.95
X111.76Y-110.49
X111.76Y-113.03
X111.76Y-115.57
X111.76Y-118.11
X111.76Y-120.65
X111.76Y-123.19
X114.3Y-58.42
X114.3Y-61.595
X114.3Y-82.55
X114.3Y-85.09
X114.3Y-87.63
X114.3Y-90.17
X114.3Y-92.71
X114.3Y-105.41
X114.3Y-107.95
X114.3Y-120.65
X114.3Y-123.19
X116.84Y-58.42
X116.84Y-61.595
X116.84Y-105.41
X116.84Y-107.95
X116.84Y-120.65
X116.84Y-123.19
X117.475Y-133.35
X117.475Y-140.97
X119.38Y-61.595
X119.38Y-105.41
X119.38Y-107.95
X119.38Y-120.65
X119.38Y-123.19
X121.84Y-58.42
X121.905Y-94.615
X121.92Y-105.41
X121.92Y-107.95
X121.92Y-120.65
X121.92Y-123.19
X121.96Y-100.33
X121.96Y-129.54
X123.19Y-72.39
X123.19Y-74.93
X123.19Y-77.47
X123.19Y-80.01
X123.19Y-82.55
X123.19Y-85.09
X124.445Y-94.615
X124.455Y-133.34
X124.455Y-140.96
X124.46Y-105.41
X124.46Y-107.95
X124.46Y-110.49
X124.46Y-113.03
X124.46Y-115.57
X124.46Y-118.11
X124.46Y-120.65
X124.46Y-123.19
X125.73Y-69.85
X125.73Y-72.39
X125.73Y-74.93
X125.73Y-77.47
X125.73Y-80.01
X125.73Y-82.55
X125.73Y-85.09
X125.73Y-87.63
X126.96Y-100.33
X126.96Y-129.54
X126.985Y-94.615
X126.995Y-133.34
X126.995Y-140.96
X127.0Y-107.95
X127.0Y-110.49
X127.0Y-113.03
X127.0Y-115.57
X127.0Y-118.11
X127.0Y-120.65
X128.27Y-69.85
X128.27Y-72.39
X128.27Y-85.09
X128.27Y-87.63
X129.525Y-94.615
X129.535Y-133.34
X129.535Y-140.96
X130.81Y-69.85
X130.81Y-72.39
X130.81Y-85.09
X130.81Y-87.63
X132.065Y-94.615
X132.075Y-133.34
X132.075Y-140.96
X133.35Y-69.85
X133.35Y-72.39
X133.35Y-85.09
X133.35Y-87.63
X134.605Y-94.615
X134.61Y-102.865
X134.61Y-105.405
X134.61Y-107.945
X134.61Y-110.485
X134.61Y-113.025
X134.61Y-115.565
X134.61Y-118.105
X134.61Y-120.645
X134.61Y-123.185
X134.61Y-125.725
X134.615Y-133.34
X134.615Y-140.96
X135.89Y-69.85
X135.89Y-72.39
X135.89Y-85.09
X135.89Y-87.63
X137.145Y-94.615
X137.155Y-133.34
X137.155Y-140.96
X138.43Y-69.85
X138.43Y-72.39
X138.43Y-74.93
X138.43Y-77.47
X138.43Y-80.01
X138.43Y-82.55
X138.43Y-85.09
X138.43Y-87.63
X139.685Y-94.615
X139.695Y-133.34
X139.695Y-140.96
X140.97Y-72.39
X140.97Y-74.93
X140.97Y-77.47
X140.97Y-80.01
X140.97Y-82.55
X140.97Y-85.09
X142.225Y-94.615
X142.23Y-102.865
X142.23Y-105.405
X142.23Y-107.945
X142.23Y-110.485
X142.23Y-113.025
X142.23Y-115.565
X142.23Y-118.105
X142.23Y-120.645
X142.23Y-123.185
X142.23Y-125.725
X146.05Y-73.66
X146.05Y-78.66
X146.05Y-86.36
X146.05Y-91.36
X146.05Y-99.1
X146.05Y-104.1
X146.05Y-111.76
X146.05Y-116.76
X149.04Y-125.74
X149.04Y-128.28
X149.04Y-130.82
X156.66Y-125.74
X156.66Y-128.28
X156.66Y-130.82
X160.02Y-73.66
X160.02Y-76.2
X160.02Y-78.74
X160.02Y-81.28
X160.02Y-83.82
X160.02Y-86.36
X160.02Y-88.9
X160.02Y-91.44
X160.02Y-93.98
X160.02Y-96.52
X160.02Y-99.06
X162.56Y-71.12
X162.56Y-73.66
X162.56Y-76.2
X162.56Y-78.74
X162.56Y-81.28
X162.56Y-83.82
X162.56Y-86.36
X162.56Y-88.9
X162.56Y-91.44
X162.56Y-93.98
X162.56Y-96.52
X162.56Y-99.06
X162.56Y-101.6
X165.1Y-71.12
X165.1Y-73.66
X165.1Y-99.06
X165.1Y-101.6
X165.14Y-133.35
X167.64Y-63.5
X167.64Y-71.12
X167.64Y-73.66
X167.64Y-99.06
X167.64Y-101.6
X168.91Y-49.57
X168.91Y-54.57
X170.14Y-133.35
X170.18Y-63.5
X170.18Y-71.12
X170.18Y-73.66
X170.18Y-99.06
X170.18Y-101.6
X172.72Y-71.12
X172.72Y-73.66
X172.72Y-99.06
X172.72Y-101.6
X175.26Y-71.12
X175.26Y-73.66
X175.26Y-99.06
X175.26Y-101.6
X177.8Y-71.12
X177.8Y-73.66
X177.8Y-99.06
X177.8Y-101.6
X180.34Y-71.12
X180.34Y-73.66
X180.34Y-99.06
X180.34Y-101.6
X180.38Y-66.04
X180.38Y-133.35
X182.88Y-71.12
X182.88Y-73.66
X182.88Y-99.06
X182.88Y-101.6
X185.38Y-66.04
X185.38Y-133.35
X185.42Y-71.12
X185.42Y-73.66
X185.42Y-99.06
X185.42Y-101.6
X187.96Y-71.12
X187.96Y-73.66
X187.96Y-76.2
X187.96Y-78.74
X187.96Y-81.28
X187.96Y-83.82
X187.96Y-86.36
X187.96Y-88.9
X187.96Y-91.44
X187.96Y-93.98
X187.96Y-96.52
X187.96Y-99.06
X187.96Y-101.6
X190.5Y-73.66
X190.5Y-76.2
X190.5Y-78.74
X190.5Y-81.28
X190.5Y-83.82
X190.5Y-86.36
X190.5Y-88.9
X190.5Y-91.44
X190.5Y-93.98
X190.5Y-96.52
X190.5Y-99.06
T5
X161.29Y-63.5
X163.83Y-63.5
T6
X114.32Y-52.24
X114.32Y-54.24
X116.82Y-52.24
X116.82Y-54.24
X132.54Y-52.53
X132.54Y-55.02
X134.59Y-52.53
X137.19Y-52.53
X139.24Y-52.53
X139.24Y-55.02
T7
X128.275Y-60.325
X128.275Y-62.865
X130.815Y-60.325
X130.815Y-62.865
X133.355Y-60.325
X133.355Y-62.865
X135.895Y-60.325
X135.895Y-62.865
X138.435Y-60.325
X138.435Y-62.865
X140.975Y-60.325
X140.975Y-62.865
X143.515Y-60.325
X143.515Y-62.865
X145.975Y-136.815
X145.975Y-141.315
X149.86Y-50.815
X149.86Y-53.355
X149.86Y-55.895
X149.86Y-63.51
X149.86Y-66.05
X149.86Y-68.59
X149.86Y-71.13
X149.86Y-73.67
X149.86Y-76.21
X149.86Y-78.75
X149.86Y-81.29
X149.86Y-83.83
X149.86Y-86.37
X149.86Y-88.91
X149.86Y-91.45
X149.86Y-93.99
X149.86Y-96.53
X149.86Y-99.07
X149.86Y-101.61
X149.86Y-104.15
X149.86Y-106.69
X149.86Y-109.23
X149.86Y-111.77
X149.86Y-114.31
X149.86Y-116.85
X149.86Y-119.39
X149.86Y-121.93
X152.4Y-63.51
X152.4Y-66.05
X152.4Y-68.59
X152.4Y-71.13
X152.4Y-73.67
X152.4Y-76.21
X152.4Y-78.75
X152.4Y-81.29
X152.4Y-83.83
X152.4Y-86.37
X152.4Y-88.91
X152.4Y-91.45
X152.4Y-93.99
X152.4Y-96.53
X152.4Y-99.07
X152.4Y-101.61
X152.4Y-104.15
X152.4Y-106.69
X152.4Y-109.23
X152.4Y-111.77
X152.4Y-114.31
X152.4Y-116.85
X152.4Y-119.39
X152.4Y-121.93
X152.475Y-136.815
X152.475Y-141.315
X158.675Y-136.815
X158.675Y-141.315
X165.175Y-136.815
X165.175Y-141.315
X173.985Y-138.425
X173.985Y-140.965
X176.525Y-138.425
X176.525Y-140.965
X179.065Y-138.425
X179.065Y-140.965
X181.605Y-138.425
X181.605Y-140.965
X184.145Y-138.425
X184.145Y-140.965
T8
X176.53Y-49.84
X179.07Y-49.84
X181.61Y-49.84
T9
X101.6Y-128.27
X101.6Y-133.35
T10
X179.155Y-59.39
X192.955Y-59.39
T11
X109.55Y-49.53
X121.59Y-49.53
T12
X129.13Y-49.53
X135.89Y-48.72
X142.65Y-49.53
T13
X101.6Y-50.8
X101.6Y-140.8
X191.6Y-50.8
X191.6Y-140.8
T7
G00X156.59Y-51.245
M15
G01X156.59Y-53.245
M16
G05
G00X162.29Y-49.245
M15
G01X160.29Y-49.245
M16
G05
G00X162.29Y-55.245
M15
G01X160.29Y-55.245
M16
G05
T0
M30
