%TF.GenerationSoftware,KiCad,Pcbnew,(6.0.4)*%
%TF.CreationDate,2022-10-30T01:11:02+02:00*%
%TF.ProjectId,65C816_SBC,36354338-3136-45f5-9342-432e6b696361,rev?*%
%TF.SameCoordinates,Original*%
%TF.FileFunction,Legend,Top*%
%TF.FilePolarity,Positive*%
%FSLAX46Y46*%
G04 Gerber Fmt 4.6, Leading zero omitted, Abs format (unit mm)*
G04 Created by KiCad (PCBNEW (6.0.4)) date 2022-10-30 01:11:02*
%MOMM*%
%LPD*%
G01*
G04 APERTURE LIST*
%ADD10C,0.250000*%
%ADD11C,0.150000*%
%ADD12C,0.120000*%
%ADD13C,0.200000*%
%ADD14C,0.100000*%
G04 APERTURE END LIST*
D10*
X191944761Y-128999047D02*
X191944761Y-129380000D01*
X192040000Y-129570476D01*
X192135238Y-129665714D01*
X192420952Y-129856190D01*
X192801904Y-129951428D01*
X193563809Y-129951428D01*
X193754285Y-129856190D01*
X193849523Y-129760952D01*
X193944761Y-129570476D01*
X193944761Y-129189523D01*
X193849523Y-128999047D01*
X193754285Y-128903809D01*
X193563809Y-128808571D01*
X193087619Y-128808571D01*
X192897142Y-128903809D01*
X192801904Y-128999047D01*
X192706666Y-129189523D01*
X192706666Y-129570476D01*
X192801904Y-129760952D01*
X192897142Y-129856190D01*
X193087619Y-129951428D01*
X191944761Y-126999047D02*
X191944761Y-127951428D01*
X192897142Y-128046666D01*
X192801904Y-127951428D01*
X192706666Y-127760952D01*
X192706666Y-127284761D01*
X192801904Y-127094285D01*
X192897142Y-126999047D01*
X193087619Y-126903809D01*
X193563809Y-126903809D01*
X193754285Y-126999047D01*
X193849523Y-127094285D01*
X193944761Y-127284761D01*
X193944761Y-127760952D01*
X193849523Y-127951428D01*
X193754285Y-128046666D01*
X192801904Y-125760952D02*
X192706666Y-125951428D01*
X192611428Y-126046666D01*
X192420952Y-126141904D01*
X192325714Y-126141904D01*
X192135238Y-126046666D01*
X192040000Y-125951428D01*
X191944761Y-125760952D01*
X191944761Y-125380000D01*
X192040000Y-125189523D01*
X192135238Y-125094285D01*
X192325714Y-124999047D01*
X192420952Y-124999047D01*
X192611428Y-125094285D01*
X192706666Y-125189523D01*
X192801904Y-125380000D01*
X192801904Y-125760952D01*
X192897142Y-125951428D01*
X192992380Y-126046666D01*
X193182857Y-126141904D01*
X193563809Y-126141904D01*
X193754285Y-126046666D01*
X193849523Y-125951428D01*
X193944761Y-125760952D01*
X193944761Y-125380000D01*
X193849523Y-125189523D01*
X193754285Y-125094285D01*
X193563809Y-124999047D01*
X193182857Y-124999047D01*
X192992380Y-125094285D01*
X192897142Y-125189523D01*
X192801904Y-125380000D01*
X193944761Y-123094285D02*
X193944761Y-124237142D01*
X193944761Y-123665714D02*
X191944761Y-123665714D01*
X192230476Y-123856190D01*
X192420952Y-124046666D01*
X192516190Y-124237142D01*
X191944761Y-121380000D02*
X191944761Y-121760952D01*
X192040000Y-121951428D01*
X192135238Y-122046666D01*
X192420952Y-122237142D01*
X192801904Y-122332380D01*
X193563809Y-122332380D01*
X193754285Y-122237142D01*
X193849523Y-122141904D01*
X193944761Y-121951428D01*
X193944761Y-121570476D01*
X193849523Y-121380000D01*
X193754285Y-121284761D01*
X193563809Y-121189523D01*
X193087619Y-121189523D01*
X192897142Y-121284761D01*
X192801904Y-121380000D01*
X192706666Y-121570476D01*
X192706666Y-121951428D01*
X192801904Y-122141904D01*
X192897142Y-122237142D01*
X193087619Y-122332380D01*
X193849523Y-118903809D02*
X193944761Y-118618095D01*
X193944761Y-118141904D01*
X193849523Y-117951428D01*
X193754285Y-117856190D01*
X193563809Y-117760952D01*
X193373333Y-117760952D01*
X193182857Y-117856190D01*
X193087619Y-117951428D01*
X192992380Y-118141904D01*
X192897142Y-118522857D01*
X192801904Y-118713333D01*
X192706666Y-118808571D01*
X192516190Y-118903809D01*
X192325714Y-118903809D01*
X192135238Y-118808571D01*
X192040000Y-118713333D01*
X191944761Y-118522857D01*
X191944761Y-118046666D01*
X192040000Y-117760952D01*
X192897142Y-116237142D02*
X192992380Y-115951428D01*
X193087619Y-115856190D01*
X193278095Y-115760952D01*
X193563809Y-115760952D01*
X193754285Y-115856190D01*
X193849523Y-115951428D01*
X193944761Y-116141904D01*
X193944761Y-116903809D01*
X191944761Y-116903809D01*
X191944761Y-116237142D01*
X192040000Y-116046666D01*
X192135238Y-115951428D01*
X192325714Y-115856190D01*
X192516190Y-115856190D01*
X192706666Y-115951428D01*
X192801904Y-116046666D01*
X192897142Y-116237142D01*
X192897142Y-116903809D01*
X193754285Y-113760952D02*
X193849523Y-113856190D01*
X193944761Y-114141904D01*
X193944761Y-114332380D01*
X193849523Y-114618095D01*
X193659047Y-114808571D01*
X193468571Y-114903809D01*
X193087619Y-114999047D01*
X192801904Y-114999047D01*
X192420952Y-114903809D01*
X192230476Y-114808571D01*
X192040000Y-114618095D01*
X191944761Y-114332380D01*
X191944761Y-114141904D01*
X192040000Y-113856190D01*
X192135238Y-113760952D01*
X192611428Y-111570476D02*
X193944761Y-111094285D01*
X192611428Y-110618095D01*
X193944761Y-108808571D02*
X193944761Y-109951428D01*
X193944761Y-109380000D02*
X191944761Y-109380000D01*
X192230476Y-109570476D01*
X192420952Y-109760952D01*
X192516190Y-109951428D01*
D11*
X99607619Y-57610952D02*
X98893333Y-57610952D01*
X98750476Y-57563333D01*
X98655238Y-57468095D01*
X98607619Y-57325238D01*
X98607619Y-57230000D01*
X98607619Y-58563333D02*
X98607619Y-58087142D01*
X99607619Y-58087142D01*
X98702857Y-59468095D02*
X98655238Y-59420476D01*
X98607619Y-59277619D01*
X98607619Y-59182380D01*
X98655238Y-59039523D01*
X98750476Y-58944285D01*
X98845714Y-58896666D01*
X99036190Y-58849047D01*
X99179047Y-58849047D01*
X99369523Y-58896666D01*
X99464761Y-58944285D01*
X99560000Y-59039523D01*
X99607619Y-59182380D01*
X99607619Y-59277619D01*
X99560000Y-59420476D01*
X99512380Y-59468095D01*
X99607619Y-60182380D02*
X98893333Y-60182380D01*
X98750476Y-60134761D01*
X98655238Y-60039523D01*
X98607619Y-59896666D01*
X98607619Y-59801428D01*
X98607619Y-61134761D02*
X98607619Y-60658571D01*
X99607619Y-60658571D01*
X98702857Y-62039523D02*
X98655238Y-61991904D01*
X98607619Y-61849047D01*
X98607619Y-61753809D01*
X98655238Y-61610952D01*
X98750476Y-61515714D01*
X98845714Y-61468095D01*
X99036190Y-61420476D01*
X99179047Y-61420476D01*
X99369523Y-61468095D01*
X99464761Y-61515714D01*
X99560000Y-61610952D01*
X99607619Y-61753809D01*
X99607619Y-61849047D01*
X99560000Y-61991904D01*
X99512380Y-62039523D01*
X99607619Y-62753809D02*
X98893333Y-62753809D01*
X98750476Y-62706190D01*
X98655238Y-62610952D01*
X98607619Y-62468095D01*
X98607619Y-62372857D01*
X98607619Y-63706190D02*
X98607619Y-63230000D01*
X99607619Y-63230000D01*
X98702857Y-64610952D02*
X98655238Y-64563333D01*
X98607619Y-64420476D01*
X98607619Y-64325238D01*
X98655238Y-64182380D01*
X98750476Y-64087142D01*
X98845714Y-64039523D01*
X99036190Y-63991904D01*
X99179047Y-63991904D01*
X99369523Y-64039523D01*
X99464761Y-64087142D01*
X99560000Y-64182380D01*
X99607619Y-64325238D01*
X99607619Y-64420476D01*
X99560000Y-64563333D01*
X99512380Y-64610952D01*
X99607619Y-65325238D02*
X98893333Y-65325238D01*
X98750476Y-65277619D01*
X98655238Y-65182380D01*
X98607619Y-65039523D01*
X98607619Y-64944285D01*
X98607619Y-66277619D02*
X98607619Y-65801428D01*
X99607619Y-65801428D01*
X98702857Y-67182380D02*
X98655238Y-67134761D01*
X98607619Y-66991904D01*
X98607619Y-66896666D01*
X98655238Y-66753809D01*
X98750476Y-66658571D01*
X98845714Y-66610952D01*
X99036190Y-66563333D01*
X99179047Y-66563333D01*
X99369523Y-66610952D01*
X99464761Y-66658571D01*
X99560000Y-66753809D01*
X99607619Y-66896666D01*
X99607619Y-66991904D01*
X99560000Y-67134761D01*
X99512380Y-67182380D01*
%TO.C,U11*%
X144684904Y-125182380D02*
X144684904Y-125991904D01*
X144732523Y-126087142D01*
X144780142Y-126134761D01*
X144875380Y-126182380D01*
X145065857Y-126182380D01*
X145161095Y-126134761D01*
X145208714Y-126087142D01*
X145256333Y-125991904D01*
X145256333Y-125182380D01*
X146256333Y-126182380D02*
X145684904Y-126182380D01*
X145970619Y-126182380D02*
X145970619Y-125182380D01*
X145875380Y-125325238D01*
X145780142Y-125420476D01*
X145684904Y-125468095D01*
X147208714Y-126182380D02*
X146637285Y-126182380D01*
X146923000Y-126182380D02*
X146923000Y-125182380D01*
X146827761Y-125325238D01*
X146732523Y-125420476D01*
X146637285Y-125468095D01*
X145947142Y-133040380D02*
X145947142Y-132040380D01*
X146185238Y-132040380D01*
X146328095Y-132088000D01*
X146423333Y-132183238D01*
X146470952Y-132278476D01*
X146518571Y-132468952D01*
X146518571Y-132611809D01*
X146470952Y-132802285D01*
X146423333Y-132897523D01*
X146328095Y-132992761D01*
X146185238Y-133040380D01*
X145947142Y-133040380D01*
X146899523Y-132992761D02*
X147042380Y-133040380D01*
X147280476Y-133040380D01*
X147375714Y-132992761D01*
X147423333Y-132945142D01*
X147470952Y-132849904D01*
X147470952Y-132754666D01*
X147423333Y-132659428D01*
X147375714Y-132611809D01*
X147280476Y-132564190D01*
X147090000Y-132516571D01*
X146994761Y-132468952D01*
X146947142Y-132421333D01*
X146899523Y-132326095D01*
X146899523Y-132230857D01*
X146947142Y-132135619D01*
X146994761Y-132088000D01*
X147090000Y-132040380D01*
X147328095Y-132040380D01*
X147470952Y-132088000D01*
X148423333Y-133040380D02*
X147851904Y-133040380D01*
X148137619Y-133040380D02*
X148137619Y-132040380D01*
X148042380Y-132183238D01*
X147947142Y-132278476D01*
X147851904Y-132326095D01*
X148994761Y-132468952D02*
X148899523Y-132421333D01*
X148851904Y-132373714D01*
X148804285Y-132278476D01*
X148804285Y-132230857D01*
X148851904Y-132135619D01*
X148899523Y-132088000D01*
X148994761Y-132040380D01*
X149185238Y-132040380D01*
X149280476Y-132088000D01*
X149328095Y-132135619D01*
X149375714Y-132230857D01*
X149375714Y-132278476D01*
X149328095Y-132373714D01*
X149280476Y-132421333D01*
X149185238Y-132468952D01*
X148994761Y-132468952D01*
X148899523Y-132516571D01*
X148851904Y-132564190D01*
X148804285Y-132659428D01*
X148804285Y-132849904D01*
X148851904Y-132945142D01*
X148899523Y-132992761D01*
X148994761Y-133040380D01*
X149185238Y-133040380D01*
X149280476Y-132992761D01*
X149328095Y-132945142D01*
X149375714Y-132849904D01*
X149375714Y-132659428D01*
X149328095Y-132564190D01*
X149280476Y-132516571D01*
X149185238Y-132468952D01*
X150328095Y-133040380D02*
X149756666Y-133040380D01*
X150042380Y-133040380D02*
X150042380Y-132040380D01*
X149947142Y-132183238D01*
X149851904Y-132278476D01*
X149756666Y-132326095D01*
X150661428Y-132040380D02*
X151280476Y-132040380D01*
X150947142Y-132421333D01*
X151090000Y-132421333D01*
X151185238Y-132468952D01*
X151232857Y-132516571D01*
X151280476Y-132611809D01*
X151280476Y-132849904D01*
X151232857Y-132945142D01*
X151185238Y-132992761D01*
X151090000Y-133040380D01*
X150804285Y-133040380D01*
X150709047Y-132992761D01*
X150661428Y-132945142D01*
%TO.C,S0*%
X185293095Y-55395761D02*
X185435952Y-55443380D01*
X185674047Y-55443380D01*
X185769285Y-55395761D01*
X185816904Y-55348142D01*
X185864523Y-55252904D01*
X185864523Y-55157666D01*
X185816904Y-55062428D01*
X185769285Y-55014809D01*
X185674047Y-54967190D01*
X185483571Y-54919571D01*
X185388333Y-54871952D01*
X185340714Y-54824333D01*
X185293095Y-54729095D01*
X185293095Y-54633857D01*
X185340714Y-54538619D01*
X185388333Y-54491000D01*
X185483571Y-54443380D01*
X185721666Y-54443380D01*
X185864523Y-54491000D01*
X186483571Y-54443380D02*
X186578809Y-54443380D01*
X186674047Y-54491000D01*
X186721666Y-54538619D01*
X186769285Y-54633857D01*
X186816904Y-54824333D01*
X186816904Y-55062428D01*
X186769285Y-55252904D01*
X186721666Y-55348142D01*
X186674047Y-55395761D01*
X186578809Y-55443380D01*
X186483571Y-55443380D01*
X186388333Y-55395761D01*
X186340714Y-55348142D01*
X186293095Y-55252904D01*
X186245476Y-55062428D01*
X186245476Y-54824333D01*
X186293095Y-54633857D01*
X186340714Y-54538619D01*
X186388333Y-54491000D01*
X186483571Y-54443380D01*
X189158809Y-64079380D02*
X189158809Y-63079380D01*
X189539761Y-63079380D01*
X189635000Y-63127000D01*
X189682619Y-63174619D01*
X189730238Y-63269857D01*
X189730238Y-63412714D01*
X189682619Y-63507952D01*
X189635000Y-63555571D01*
X189539761Y-63603190D01*
X189158809Y-63603190D01*
X190301666Y-64079380D02*
X190206428Y-64031761D01*
X190158809Y-63984142D01*
X190111190Y-63888904D01*
X190111190Y-63603190D01*
X190158809Y-63507952D01*
X190206428Y-63460333D01*
X190301666Y-63412714D01*
X190444523Y-63412714D01*
X190539761Y-63460333D01*
X190587380Y-63507952D01*
X190635000Y-63603190D01*
X190635000Y-63888904D01*
X190587380Y-63984142D01*
X190539761Y-64031761D01*
X190444523Y-64079380D01*
X190301666Y-64079380D01*
X190968333Y-63412714D02*
X191158809Y-64079380D01*
X191349285Y-63603190D01*
X191539761Y-64079380D01*
X191730238Y-63412714D01*
X192492142Y-64031761D02*
X192396904Y-64079380D01*
X192206428Y-64079380D01*
X192111190Y-64031761D01*
X192063571Y-63936523D01*
X192063571Y-63555571D01*
X192111190Y-63460333D01*
X192206428Y-63412714D01*
X192396904Y-63412714D01*
X192492142Y-63460333D01*
X192539761Y-63555571D01*
X192539761Y-63650809D01*
X192063571Y-63746047D01*
X192968333Y-64079380D02*
X192968333Y-63412714D01*
X192968333Y-63603190D02*
X193015952Y-63507952D01*
X193063571Y-63460333D01*
X193158809Y-63412714D01*
X193254047Y-63412714D01*
%TO.C,BJ0*%
X157006785Y-57428571D02*
X157149642Y-57476190D01*
X157197261Y-57523809D01*
X157244880Y-57619047D01*
X157244880Y-57761904D01*
X157197261Y-57857142D01*
X157149642Y-57904761D01*
X157054404Y-57952380D01*
X156673452Y-57952380D01*
X156673452Y-56952380D01*
X157006785Y-56952380D01*
X157102023Y-57000000D01*
X157149642Y-57047619D01*
X157197261Y-57142857D01*
X157197261Y-57238095D01*
X157149642Y-57333333D01*
X157102023Y-57380952D01*
X157006785Y-57428571D01*
X156673452Y-57428571D01*
X157959166Y-56952380D02*
X157959166Y-57666666D01*
X157911547Y-57809523D01*
X157816309Y-57904761D01*
X157673452Y-57952380D01*
X157578214Y-57952380D01*
X158625833Y-56952380D02*
X158721071Y-56952380D01*
X158816309Y-57000000D01*
X158863928Y-57047619D01*
X158911547Y-57142857D01*
X158959166Y-57333333D01*
X158959166Y-57571428D01*
X158911547Y-57761904D01*
X158863928Y-57857142D01*
X158816309Y-57904761D01*
X158721071Y-57952380D01*
X158625833Y-57952380D01*
X158530595Y-57904761D01*
X158482976Y-57857142D01*
X158435357Y-57761904D01*
X158387738Y-57571428D01*
X158387738Y-57333333D01*
X158435357Y-57142857D01*
X158482976Y-57047619D01*
X158530595Y-57000000D01*
X158625833Y-56952380D01*
%TO.C,C13*%
X123817142Y-100687142D02*
X123769523Y-100734761D01*
X123626666Y-100782380D01*
X123531428Y-100782380D01*
X123388571Y-100734761D01*
X123293333Y-100639523D01*
X123245714Y-100544285D01*
X123198095Y-100353809D01*
X123198095Y-100210952D01*
X123245714Y-100020476D01*
X123293333Y-99925238D01*
X123388571Y-99830000D01*
X123531428Y-99782380D01*
X123626666Y-99782380D01*
X123769523Y-99830000D01*
X123817142Y-99877619D01*
X124769523Y-100782380D02*
X124198095Y-100782380D01*
X124483809Y-100782380D02*
X124483809Y-99782380D01*
X124388571Y-99925238D01*
X124293333Y-100020476D01*
X124198095Y-100068095D01*
X125102857Y-99782380D02*
X125721904Y-99782380D01*
X125388571Y-100163333D01*
X125531428Y-100163333D01*
X125626666Y-100210952D01*
X125674285Y-100258571D01*
X125721904Y-100353809D01*
X125721904Y-100591904D01*
X125674285Y-100687142D01*
X125626666Y-100734761D01*
X125531428Y-100782380D01*
X125245714Y-100782380D01*
X125150476Y-100734761D01*
X125102857Y-100687142D01*
%TO.C,U7*%
X166878095Y-106132380D02*
X166878095Y-106941904D01*
X166925714Y-107037142D01*
X166973333Y-107084761D01*
X167068571Y-107132380D01*
X167259047Y-107132380D01*
X167354285Y-107084761D01*
X167401904Y-107037142D01*
X167449523Y-106941904D01*
X167449523Y-106132380D01*
X167830476Y-106132380D02*
X168497142Y-106132380D01*
X168068571Y-107132380D01*
%TO.C,C1*%
X119173333Y-58777142D02*
X119125714Y-58824761D01*
X118982857Y-58872380D01*
X118887619Y-58872380D01*
X118744761Y-58824761D01*
X118649523Y-58729523D01*
X118601904Y-58634285D01*
X118554285Y-58443809D01*
X118554285Y-58300952D01*
X118601904Y-58110476D01*
X118649523Y-58015238D01*
X118744761Y-57920000D01*
X118887619Y-57872380D01*
X118982857Y-57872380D01*
X119125714Y-57920000D01*
X119173333Y-57967619D01*
X120125714Y-58872380D02*
X119554285Y-58872380D01*
X119840000Y-58872380D02*
X119840000Y-57872380D01*
X119744761Y-58015238D01*
X119649523Y-58110476D01*
X119554285Y-58158095D01*
%TO.C,C4*%
X173795933Y-59158142D02*
X173748314Y-59205761D01*
X173605457Y-59253380D01*
X173510219Y-59253380D01*
X173367361Y-59205761D01*
X173272123Y-59110523D01*
X173224504Y-59015285D01*
X173176885Y-58824809D01*
X173176885Y-58681952D01*
X173224504Y-58491476D01*
X173272123Y-58396238D01*
X173367361Y-58301000D01*
X173510219Y-58253380D01*
X173605457Y-58253380D01*
X173748314Y-58301000D01*
X173795933Y-58348619D01*
X174653076Y-58586714D02*
X174653076Y-59253380D01*
X174414980Y-58205761D02*
X174176885Y-58920047D01*
X174795933Y-58920047D01*
%TO.C,C7*%
X146407142Y-89026666D02*
X146454761Y-89074285D01*
X146502380Y-89217142D01*
X146502380Y-89312380D01*
X146454761Y-89455238D01*
X146359523Y-89550476D01*
X146264285Y-89598095D01*
X146073809Y-89645714D01*
X145930952Y-89645714D01*
X145740476Y-89598095D01*
X145645238Y-89550476D01*
X145550000Y-89455238D01*
X145502380Y-89312380D01*
X145502380Y-89217142D01*
X145550000Y-89074285D01*
X145597619Y-89026666D01*
X145502380Y-88693333D02*
X145502380Y-88026666D01*
X146502380Y-88455238D01*
%TO.C,R4*%
X101433333Y-106243380D02*
X101100000Y-105767190D01*
X100861904Y-106243380D02*
X100861904Y-105243380D01*
X101242857Y-105243380D01*
X101338095Y-105291000D01*
X101385714Y-105338619D01*
X101433333Y-105433857D01*
X101433333Y-105576714D01*
X101385714Y-105671952D01*
X101338095Y-105719571D01*
X101242857Y-105767190D01*
X100861904Y-105767190D01*
X102290476Y-105576714D02*
X102290476Y-106243380D01*
X102052380Y-105195761D02*
X101814285Y-105910047D01*
X102433333Y-105910047D01*
X102687619Y-109307380D02*
X103306666Y-109307380D01*
X102973333Y-109688333D01*
X103116190Y-109688333D01*
X103211428Y-109735952D01*
X103259047Y-109783571D01*
X103306666Y-109878809D01*
X103306666Y-110116904D01*
X103259047Y-110212142D01*
X103211428Y-110259761D01*
X103116190Y-110307380D01*
X102830476Y-110307380D01*
X102735238Y-110259761D01*
X102687619Y-110212142D01*
X103735238Y-110212142D02*
X103782857Y-110259761D01*
X103735238Y-110307380D01*
X103687619Y-110259761D01*
X103735238Y-110212142D01*
X103735238Y-110307380D01*
X104116190Y-109307380D02*
X104735238Y-109307380D01*
X104401904Y-109688333D01*
X104544761Y-109688333D01*
X104640000Y-109735952D01*
X104687619Y-109783571D01*
X104735238Y-109878809D01*
X104735238Y-110116904D01*
X104687619Y-110212142D01*
X104640000Y-110259761D01*
X104544761Y-110307380D01*
X104259047Y-110307380D01*
X104163809Y-110259761D01*
X104116190Y-110212142D01*
X105163809Y-110307380D02*
X105163809Y-109307380D01*
X105259047Y-109926428D02*
X105544761Y-110307380D01*
X105544761Y-109640714D02*
X105163809Y-110021666D01*
%TO.C,SW1*%
X147891666Y-135024761D02*
X148034523Y-135072380D01*
X148272619Y-135072380D01*
X148367857Y-135024761D01*
X148415476Y-134977142D01*
X148463095Y-134881904D01*
X148463095Y-134786666D01*
X148415476Y-134691428D01*
X148367857Y-134643809D01*
X148272619Y-134596190D01*
X148082142Y-134548571D01*
X147986904Y-134500952D01*
X147939285Y-134453333D01*
X147891666Y-134358095D01*
X147891666Y-134262857D01*
X147939285Y-134167619D01*
X147986904Y-134120000D01*
X148082142Y-134072380D01*
X148320238Y-134072380D01*
X148463095Y-134120000D01*
X148796428Y-134072380D02*
X149034523Y-135072380D01*
X149225000Y-134358095D01*
X149415476Y-135072380D01*
X149653571Y-134072380D01*
X150558333Y-135072380D02*
X149986904Y-135072380D01*
X150272619Y-135072380D02*
X150272619Y-134072380D01*
X150177380Y-134215238D01*
X150082142Y-134310476D01*
X149986904Y-134358095D01*
X148129761Y-144089380D02*
X148129761Y-143089380D01*
X148701190Y-144089380D01*
X148701190Y-143089380D01*
X149177380Y-144089380D02*
X149177380Y-143089380D01*
X149510714Y-143803666D01*
X149844047Y-143089380D01*
X149844047Y-144089380D01*
X150320238Y-144089380D02*
X150320238Y-143089380D01*
%TO.C,C11*%
X182237142Y-133707142D02*
X182189523Y-133754761D01*
X182046666Y-133802380D01*
X181951428Y-133802380D01*
X181808571Y-133754761D01*
X181713333Y-133659523D01*
X181665714Y-133564285D01*
X181618095Y-133373809D01*
X181618095Y-133230952D01*
X181665714Y-133040476D01*
X181713333Y-132945238D01*
X181808571Y-132850000D01*
X181951428Y-132802380D01*
X182046666Y-132802380D01*
X182189523Y-132850000D01*
X182237142Y-132897619D01*
X183189523Y-133802380D02*
X182618095Y-133802380D01*
X182903809Y-133802380D02*
X182903809Y-132802380D01*
X182808571Y-132945238D01*
X182713333Y-133040476D01*
X182618095Y-133088095D01*
X184141904Y-133802380D02*
X183570476Y-133802380D01*
X183856190Y-133802380D02*
X183856190Y-132802380D01*
X183760952Y-132945238D01*
X183665714Y-133040476D01*
X183570476Y-133088095D01*
%TO.C,C0*%
X103973333Y-67667142D02*
X103925714Y-67714761D01*
X103782857Y-67762380D01*
X103687619Y-67762380D01*
X103544761Y-67714761D01*
X103449523Y-67619523D01*
X103401904Y-67524285D01*
X103354285Y-67333809D01*
X103354285Y-67190952D01*
X103401904Y-67000476D01*
X103449523Y-66905238D01*
X103544761Y-66810000D01*
X103687619Y-66762380D01*
X103782857Y-66762380D01*
X103925714Y-66810000D01*
X103973333Y-66857619D01*
X104592380Y-66762380D02*
X104687619Y-66762380D01*
X104782857Y-66810000D01*
X104830476Y-66857619D01*
X104878095Y-66952857D01*
X104925714Y-67143333D01*
X104925714Y-67381428D01*
X104878095Y-67571904D01*
X104830476Y-67667142D01*
X104782857Y-67714761D01*
X104687619Y-67762380D01*
X104592380Y-67762380D01*
X104497142Y-67714761D01*
X104449523Y-67667142D01*
X104401904Y-67571904D01*
X104354285Y-67381428D01*
X104354285Y-67143333D01*
X104401904Y-66952857D01*
X104449523Y-66857619D01*
X104497142Y-66810000D01*
X104592380Y-66762380D01*
%TO.C,J1*%
X150796666Y-60632380D02*
X150796666Y-61346666D01*
X150749047Y-61489523D01*
X150653809Y-61584761D01*
X150510952Y-61632380D01*
X150415714Y-61632380D01*
X151796666Y-61632380D02*
X151225238Y-61632380D01*
X151510952Y-61632380D02*
X151510952Y-60632380D01*
X151415714Y-60775238D01*
X151320476Y-60870476D01*
X151225238Y-60918095D01*
%TO.C,J0*%
X178736666Y-135342380D02*
X178736666Y-136056666D01*
X178689047Y-136199523D01*
X178593809Y-136294761D01*
X178450952Y-136342380D01*
X178355714Y-136342380D01*
X179403333Y-135342380D02*
X179498571Y-135342380D01*
X179593809Y-135390000D01*
X179641428Y-135437619D01*
X179689047Y-135532857D01*
X179736666Y-135723333D01*
X179736666Y-135961428D01*
X179689047Y-136151904D01*
X179641428Y-136247142D01*
X179593809Y-136294761D01*
X179498571Y-136342380D01*
X179403333Y-136342380D01*
X179308095Y-136294761D01*
X179260476Y-136247142D01*
X179212857Y-136151904D01*
X179165238Y-135961428D01*
X179165238Y-135723333D01*
X179212857Y-135532857D01*
X179260476Y-135437619D01*
X179308095Y-135390000D01*
X179403333Y-135342380D01*
%TO.C,C9*%
X146407142Y-114426666D02*
X146454761Y-114474285D01*
X146502380Y-114617142D01*
X146502380Y-114712380D01*
X146454761Y-114855238D01*
X146359523Y-114950476D01*
X146264285Y-114998095D01*
X146073809Y-115045714D01*
X145930952Y-115045714D01*
X145740476Y-114998095D01*
X145645238Y-114950476D01*
X145550000Y-114855238D01*
X145502380Y-114712380D01*
X145502380Y-114617142D01*
X145550000Y-114474285D01*
X145597619Y-114426666D01*
X146502380Y-113950476D02*
X146502380Y-113760000D01*
X146454761Y-113664761D01*
X146407142Y-113617142D01*
X146264285Y-113521904D01*
X146073809Y-113474285D01*
X145692857Y-113474285D01*
X145597619Y-113521904D01*
X145550000Y-113569523D01*
X145502380Y-113664761D01*
X145502380Y-113855238D01*
X145550000Y-113950476D01*
X145597619Y-113998095D01*
X145692857Y-114045714D01*
X145930952Y-114045714D01*
X146026190Y-113998095D01*
X146073809Y-113950476D01*
X146121428Y-113855238D01*
X146121428Y-113664761D01*
X146073809Y-113569523D01*
X146026190Y-113521904D01*
X145930952Y-113474285D01*
%TO.C,U10*%
X152304904Y-125182380D02*
X152304904Y-125991904D01*
X152352523Y-126087142D01*
X152400142Y-126134761D01*
X152495380Y-126182380D01*
X152685857Y-126182380D01*
X152781095Y-126134761D01*
X152828714Y-126087142D01*
X152876333Y-125991904D01*
X152876333Y-125182380D01*
X153876333Y-126182380D02*
X153304904Y-126182380D01*
X153590619Y-126182380D02*
X153590619Y-125182380D01*
X153495380Y-125325238D01*
X153400142Y-125420476D01*
X153304904Y-125468095D01*
X154495380Y-125182380D02*
X154590619Y-125182380D01*
X154685857Y-125230000D01*
X154733476Y-125277619D01*
X154781095Y-125372857D01*
X154828714Y-125563333D01*
X154828714Y-125801428D01*
X154781095Y-125991904D01*
X154733476Y-126087142D01*
X154685857Y-126134761D01*
X154590619Y-126182380D01*
X154495380Y-126182380D01*
X154400142Y-126134761D01*
X154352523Y-126087142D01*
X154304904Y-125991904D01*
X154257285Y-125801428D01*
X154257285Y-125563333D01*
X154304904Y-125372857D01*
X154352523Y-125277619D01*
X154400142Y-125230000D01*
X154495380Y-125182380D01*
X153567142Y-133040380D02*
X153567142Y-132040380D01*
X153805238Y-132040380D01*
X153948095Y-132088000D01*
X154043333Y-132183238D01*
X154090952Y-132278476D01*
X154138571Y-132468952D01*
X154138571Y-132611809D01*
X154090952Y-132802285D01*
X154043333Y-132897523D01*
X153948095Y-132992761D01*
X153805238Y-133040380D01*
X153567142Y-133040380D01*
X154519523Y-132992761D02*
X154662380Y-133040380D01*
X154900476Y-133040380D01*
X154995714Y-132992761D01*
X155043333Y-132945142D01*
X155090952Y-132849904D01*
X155090952Y-132754666D01*
X155043333Y-132659428D01*
X154995714Y-132611809D01*
X154900476Y-132564190D01*
X154710000Y-132516571D01*
X154614761Y-132468952D01*
X154567142Y-132421333D01*
X154519523Y-132326095D01*
X154519523Y-132230857D01*
X154567142Y-132135619D01*
X154614761Y-132088000D01*
X154710000Y-132040380D01*
X154948095Y-132040380D01*
X155090952Y-132088000D01*
X156043333Y-133040380D02*
X155471904Y-133040380D01*
X155757619Y-133040380D02*
X155757619Y-132040380D01*
X155662380Y-132183238D01*
X155567142Y-132278476D01*
X155471904Y-132326095D01*
X156614761Y-132468952D02*
X156519523Y-132421333D01*
X156471904Y-132373714D01*
X156424285Y-132278476D01*
X156424285Y-132230857D01*
X156471904Y-132135619D01*
X156519523Y-132088000D01*
X156614761Y-132040380D01*
X156805238Y-132040380D01*
X156900476Y-132088000D01*
X156948095Y-132135619D01*
X156995714Y-132230857D01*
X156995714Y-132278476D01*
X156948095Y-132373714D01*
X156900476Y-132421333D01*
X156805238Y-132468952D01*
X156614761Y-132468952D01*
X156519523Y-132516571D01*
X156471904Y-132564190D01*
X156424285Y-132659428D01*
X156424285Y-132849904D01*
X156471904Y-132945142D01*
X156519523Y-132992761D01*
X156614761Y-133040380D01*
X156805238Y-133040380D01*
X156900476Y-132992761D01*
X156948095Y-132945142D01*
X156995714Y-132849904D01*
X156995714Y-132659428D01*
X156948095Y-132564190D01*
X156900476Y-132516571D01*
X156805238Y-132468952D01*
X157948095Y-133040380D02*
X157376666Y-133040380D01*
X157662380Y-133040380D02*
X157662380Y-132040380D01*
X157567142Y-132183238D01*
X157471904Y-132278476D01*
X157376666Y-132326095D01*
X158281428Y-132040380D02*
X158900476Y-132040380D01*
X158567142Y-132421333D01*
X158710000Y-132421333D01*
X158805238Y-132468952D01*
X158852857Y-132516571D01*
X158900476Y-132611809D01*
X158900476Y-132849904D01*
X158852857Y-132945142D01*
X158805238Y-132992761D01*
X158710000Y-133040380D01*
X158424285Y-133040380D01*
X158329047Y-132992761D01*
X158281428Y-132945142D01*
%TO.C,U6*%
X182118095Y-106132380D02*
X182118095Y-106941904D01*
X182165714Y-107037142D01*
X182213333Y-107084761D01*
X182308571Y-107132380D01*
X182499047Y-107132380D01*
X182594285Y-107084761D01*
X182641904Y-107037142D01*
X182689523Y-106941904D01*
X182689523Y-106132380D01*
X183594285Y-106132380D02*
X183403809Y-106132380D01*
X183308571Y-106180000D01*
X183260952Y-106227619D01*
X183165714Y-106370476D01*
X183118095Y-106560952D01*
X183118095Y-106941904D01*
X183165714Y-107037142D01*
X183213333Y-107084761D01*
X183308571Y-107132380D01*
X183499047Y-107132380D01*
X183594285Y-107084761D01*
X183641904Y-107037142D01*
X183689523Y-106941904D01*
X183689523Y-106703809D01*
X183641904Y-106608571D01*
X183594285Y-106560952D01*
X183499047Y-106513333D01*
X183308571Y-106513333D01*
X183213333Y-106560952D01*
X183165714Y-106608571D01*
X183118095Y-106703809D01*
%TO.C,J3*%
X149526666Y-47937380D02*
X149526666Y-48651666D01*
X149479047Y-48794523D01*
X149383809Y-48889761D01*
X149240952Y-48937380D01*
X149145714Y-48937380D01*
X149907619Y-47937380D02*
X150526666Y-47937380D01*
X150193333Y-48318333D01*
X150336190Y-48318333D01*
X150431428Y-48365952D01*
X150479047Y-48413571D01*
X150526666Y-48508809D01*
X150526666Y-48746904D01*
X150479047Y-48842142D01*
X150431428Y-48889761D01*
X150336190Y-48937380D01*
X150050476Y-48937380D01*
X149955238Y-48889761D01*
X149907619Y-48842142D01*
X149098095Y-58677380D02*
X149098095Y-57677380D01*
X149479047Y-57677380D01*
X149574285Y-57725000D01*
X149621904Y-57772619D01*
X149669523Y-57867857D01*
X149669523Y-58010714D01*
X149621904Y-58105952D01*
X149574285Y-58153571D01*
X149479047Y-58201190D01*
X149098095Y-58201190D01*
X150431428Y-58153571D02*
X150574285Y-58201190D01*
X150621904Y-58248809D01*
X150669523Y-58344047D01*
X150669523Y-58486904D01*
X150621904Y-58582142D01*
X150574285Y-58629761D01*
X150479047Y-58677380D01*
X150098095Y-58677380D01*
X150098095Y-57677380D01*
X150431428Y-57677380D01*
X150526666Y-57725000D01*
X150574285Y-57772619D01*
X150621904Y-57867857D01*
X150621904Y-57963095D01*
X150574285Y-58058333D01*
X150526666Y-58105952D01*
X150431428Y-58153571D01*
X150098095Y-58153571D01*
%TO.C,C2*%
X111633333Y-58777142D02*
X111585714Y-58824761D01*
X111442857Y-58872380D01*
X111347619Y-58872380D01*
X111204761Y-58824761D01*
X111109523Y-58729523D01*
X111061904Y-58634285D01*
X111014285Y-58443809D01*
X111014285Y-58300952D01*
X111061904Y-58110476D01*
X111109523Y-58015238D01*
X111204761Y-57920000D01*
X111347619Y-57872380D01*
X111442857Y-57872380D01*
X111585714Y-57920000D01*
X111633333Y-57967619D01*
X112014285Y-57967619D02*
X112061904Y-57920000D01*
X112157142Y-57872380D01*
X112395238Y-57872380D01*
X112490476Y-57920000D01*
X112538095Y-57967619D01*
X112585714Y-58062857D01*
X112585714Y-58158095D01*
X112538095Y-58300952D01*
X111966666Y-58872380D01*
X112585714Y-58872380D01*
%TO.C,U1*%
X106447380Y-68071904D02*
X107256904Y-68071904D01*
X107352142Y-68024285D01*
X107399761Y-67976666D01*
X107447380Y-67881428D01*
X107447380Y-67690952D01*
X107399761Y-67595714D01*
X107352142Y-67548095D01*
X107256904Y-67500476D01*
X106447380Y-67500476D01*
X107447380Y-66500476D02*
X107447380Y-67071904D01*
X107447380Y-66786190D02*
X106447380Y-66786190D01*
X106590238Y-66881428D01*
X106685476Y-66976666D01*
X106733095Y-67071904D01*
X117723571Y-69929047D02*
X117723571Y-70262380D01*
X118247380Y-70262380D02*
X117247380Y-70262380D01*
X117247380Y-69786190D01*
X117247380Y-69548095D02*
X117247380Y-68976666D01*
X118247380Y-69262380D02*
X117247380Y-69262380D01*
X117342619Y-68690952D02*
X117295000Y-68643333D01*
X117247380Y-68548095D01*
X117247380Y-68310000D01*
X117295000Y-68214761D01*
X117342619Y-68167142D01*
X117437857Y-68119523D01*
X117533095Y-68119523D01*
X117675952Y-68167142D01*
X118247380Y-68738571D01*
X118247380Y-68119523D01*
X117580714Y-67262380D02*
X118247380Y-67262380D01*
X117199761Y-67500476D02*
X117914047Y-67738571D01*
X117914047Y-67119523D01*
X117247380Y-66548095D02*
X117247380Y-66452857D01*
X117295000Y-66357619D01*
X117342619Y-66310000D01*
X117437857Y-66262380D01*
X117628333Y-66214761D01*
X117866428Y-66214761D01*
X118056904Y-66262380D01*
X118152142Y-66310000D01*
X118199761Y-66357619D01*
X118247380Y-66452857D01*
X118247380Y-66548095D01*
X118199761Y-66643333D01*
X118152142Y-66690952D01*
X118056904Y-66738571D01*
X117866428Y-66786190D01*
X117628333Y-66786190D01*
X117437857Y-66738571D01*
X117342619Y-66690952D01*
X117295000Y-66643333D01*
X117247380Y-66548095D01*
X117247380Y-65881428D02*
X118247380Y-65214761D01*
X117247380Y-65214761D02*
X118247380Y-65881428D01*
X118199761Y-64881428D02*
X118247380Y-64738571D01*
X118247380Y-64500476D01*
X118199761Y-64405238D01*
X118152142Y-64357619D01*
X118056904Y-64310000D01*
X117961666Y-64310000D01*
X117866428Y-64357619D01*
X117818809Y-64405238D01*
X117771190Y-64500476D01*
X117723571Y-64690952D01*
X117675952Y-64786190D01*
X117628333Y-64833809D01*
X117533095Y-64881428D01*
X117437857Y-64881428D01*
X117342619Y-64833809D01*
X117295000Y-64786190D01*
X117247380Y-64690952D01*
X117247380Y-64452857D01*
X117295000Y-64310000D01*
%TO.C,U8*%
X117348095Y-101002380D02*
X117348095Y-101811904D01*
X117395714Y-101907142D01*
X117443333Y-101954761D01*
X117538571Y-102002380D01*
X117729047Y-102002380D01*
X117824285Y-101954761D01*
X117871904Y-101907142D01*
X117919523Y-101811904D01*
X117919523Y-101002380D01*
X118538571Y-101430952D02*
X118443333Y-101383333D01*
X118395714Y-101335714D01*
X118348095Y-101240476D01*
X118348095Y-101192857D01*
X118395714Y-101097619D01*
X118443333Y-101050000D01*
X118538571Y-101002380D01*
X118729047Y-101002380D01*
X118824285Y-101050000D01*
X118871904Y-101097619D01*
X118919523Y-101192857D01*
X118919523Y-101240476D01*
X118871904Y-101335714D01*
X118824285Y-101383333D01*
X118729047Y-101430952D01*
X118538571Y-101430952D01*
X118443333Y-101478571D01*
X118395714Y-101526190D01*
X118348095Y-101621428D01*
X118348095Y-101811904D01*
X118395714Y-101907142D01*
X118443333Y-101954761D01*
X118538571Y-102002380D01*
X118729047Y-102002380D01*
X118824285Y-101954761D01*
X118871904Y-101907142D01*
X118919523Y-101811904D01*
X118919523Y-101621428D01*
X118871904Y-101526190D01*
X118824285Y-101478571D01*
X118729047Y-101430952D01*
X114800476Y-126502380D02*
X115038571Y-127502380D01*
X115229047Y-126788095D01*
X115419523Y-127502380D01*
X115657619Y-126502380D01*
X116467142Y-126502380D02*
X116276666Y-126502380D01*
X116181428Y-126550000D01*
X116133809Y-126597619D01*
X116038571Y-126740476D01*
X115990952Y-126930952D01*
X115990952Y-127311904D01*
X116038571Y-127407142D01*
X116086190Y-127454761D01*
X116181428Y-127502380D01*
X116371904Y-127502380D01*
X116467142Y-127454761D01*
X116514761Y-127407142D01*
X116562380Y-127311904D01*
X116562380Y-127073809D01*
X116514761Y-126978571D01*
X116467142Y-126930952D01*
X116371904Y-126883333D01*
X116181428Y-126883333D01*
X116086190Y-126930952D01*
X116038571Y-126978571D01*
X115990952Y-127073809D01*
X117467142Y-126502380D02*
X116990952Y-126502380D01*
X116943333Y-126978571D01*
X116990952Y-126930952D01*
X117086190Y-126883333D01*
X117324285Y-126883333D01*
X117419523Y-126930952D01*
X117467142Y-126978571D01*
X117514761Y-127073809D01*
X117514761Y-127311904D01*
X117467142Y-127407142D01*
X117419523Y-127454761D01*
X117324285Y-127502380D01*
X117086190Y-127502380D01*
X116990952Y-127454761D01*
X116943333Y-127407142D01*
X118514761Y-127407142D02*
X118467142Y-127454761D01*
X118324285Y-127502380D01*
X118229047Y-127502380D01*
X118086190Y-127454761D01*
X117990952Y-127359523D01*
X117943333Y-127264285D01*
X117895714Y-127073809D01*
X117895714Y-126930952D01*
X117943333Y-126740476D01*
X117990952Y-126645238D01*
X118086190Y-126550000D01*
X118229047Y-126502380D01*
X118324285Y-126502380D01*
X118467142Y-126550000D01*
X118514761Y-126597619D01*
X119086190Y-126930952D02*
X118990952Y-126883333D01*
X118943333Y-126835714D01*
X118895714Y-126740476D01*
X118895714Y-126692857D01*
X118943333Y-126597619D01*
X118990952Y-126550000D01*
X119086190Y-126502380D01*
X119276666Y-126502380D01*
X119371904Y-126550000D01*
X119419523Y-126597619D01*
X119467142Y-126692857D01*
X119467142Y-126740476D01*
X119419523Y-126835714D01*
X119371904Y-126883333D01*
X119276666Y-126930952D01*
X119086190Y-126930952D01*
X118990952Y-126978571D01*
X118943333Y-127026190D01*
X118895714Y-127121428D01*
X118895714Y-127311904D01*
X118943333Y-127407142D01*
X118990952Y-127454761D01*
X119086190Y-127502380D01*
X119276666Y-127502380D01*
X119371904Y-127454761D01*
X119419523Y-127407142D01*
X119467142Y-127311904D01*
X119467142Y-127121428D01*
X119419523Y-127026190D01*
X119371904Y-126978571D01*
X119276666Y-126930952D01*
X120419523Y-127502380D02*
X119848095Y-127502380D01*
X120133809Y-127502380D02*
X120133809Y-126502380D01*
X120038571Y-126645238D01*
X119943333Y-126740476D01*
X119848095Y-126788095D01*
X121276666Y-126502380D02*
X121086190Y-126502380D01*
X120990952Y-126550000D01*
X120943333Y-126597619D01*
X120848095Y-126740476D01*
X120800476Y-126930952D01*
X120800476Y-127311904D01*
X120848095Y-127407142D01*
X120895714Y-127454761D01*
X120990952Y-127502380D01*
X121181428Y-127502380D01*
X121276666Y-127454761D01*
X121324285Y-127407142D01*
X121371904Y-127311904D01*
X121371904Y-127073809D01*
X121324285Y-126978571D01*
X121276666Y-126930952D01*
X121181428Y-126883333D01*
X120990952Y-126883333D01*
X120895714Y-126930952D01*
X120848095Y-126978571D01*
X120800476Y-127073809D01*
%TO.C,C3*%
X169267142Y-52236666D02*
X169314761Y-52284285D01*
X169362380Y-52427142D01*
X169362380Y-52522380D01*
X169314761Y-52665238D01*
X169219523Y-52760476D01*
X169124285Y-52808095D01*
X168933809Y-52855714D01*
X168790952Y-52855714D01*
X168600476Y-52808095D01*
X168505238Y-52760476D01*
X168410000Y-52665238D01*
X168362380Y-52522380D01*
X168362380Y-52427142D01*
X168410000Y-52284285D01*
X168457619Y-52236666D01*
X168362380Y-51903333D02*
X168362380Y-51284285D01*
X168743333Y-51617619D01*
X168743333Y-51474761D01*
X168790952Y-51379523D01*
X168838571Y-51331904D01*
X168933809Y-51284285D01*
X169171904Y-51284285D01*
X169267142Y-51331904D01*
X169314761Y-51379523D01*
X169362380Y-51474761D01*
X169362380Y-51760476D01*
X169314761Y-51855714D01*
X169267142Y-51903333D01*
%TO.C,USB0*%
X122007380Y-55713095D02*
X122816904Y-55713095D01*
X122912142Y-55665476D01*
X122959761Y-55617857D01*
X123007380Y-55522619D01*
X123007380Y-55332142D01*
X122959761Y-55236904D01*
X122912142Y-55189285D01*
X122816904Y-55141666D01*
X122007380Y-55141666D01*
X122959761Y-54713095D02*
X123007380Y-54570238D01*
X123007380Y-54332142D01*
X122959761Y-54236904D01*
X122912142Y-54189285D01*
X122816904Y-54141666D01*
X122721666Y-54141666D01*
X122626428Y-54189285D01*
X122578809Y-54236904D01*
X122531190Y-54332142D01*
X122483571Y-54522619D01*
X122435952Y-54617857D01*
X122388333Y-54665476D01*
X122293095Y-54713095D01*
X122197857Y-54713095D01*
X122102619Y-54665476D01*
X122055000Y-54617857D01*
X122007380Y-54522619D01*
X122007380Y-54284523D01*
X122055000Y-54141666D01*
X122483571Y-53379761D02*
X122531190Y-53236904D01*
X122578809Y-53189285D01*
X122674047Y-53141666D01*
X122816904Y-53141666D01*
X122912142Y-53189285D01*
X122959761Y-53236904D01*
X123007380Y-53332142D01*
X123007380Y-53713095D01*
X122007380Y-53713095D01*
X122007380Y-53379761D01*
X122055000Y-53284523D01*
X122102619Y-53236904D01*
X122197857Y-53189285D01*
X122293095Y-53189285D01*
X122388333Y-53236904D01*
X122435952Y-53284523D01*
X122483571Y-53379761D01*
X122483571Y-53713095D01*
X122007380Y-52522619D02*
X122007380Y-52427380D01*
X122055000Y-52332142D01*
X122102619Y-52284523D01*
X122197857Y-52236904D01*
X122388333Y-52189285D01*
X122626428Y-52189285D01*
X122816904Y-52236904D01*
X122912142Y-52284523D01*
X122959761Y-52332142D01*
X123007380Y-52427380D01*
X123007380Y-52522619D01*
X122959761Y-52617857D01*
X122912142Y-52665476D01*
X122816904Y-52713095D01*
X122626428Y-52760714D01*
X122388333Y-52760714D01*
X122197857Y-52713095D01*
X122102619Y-52665476D01*
X122055000Y-52617857D01*
X122007380Y-52522619D01*
%TO.C,J2*%
X145721666Y-59777380D02*
X145721666Y-60491666D01*
X145674047Y-60634523D01*
X145578809Y-60729761D01*
X145435952Y-60777380D01*
X145340714Y-60777380D01*
X146150238Y-59872619D02*
X146197857Y-59825000D01*
X146293095Y-59777380D01*
X146531190Y-59777380D01*
X146626428Y-59825000D01*
X146674047Y-59872619D01*
X146721666Y-59967857D01*
X146721666Y-60063095D01*
X146674047Y-60205952D01*
X146102619Y-60777380D01*
X146721666Y-60777380D01*
X145359523Y-63317380D02*
X145359523Y-62317380D01*
X145740476Y-62317380D01*
X145835714Y-62365000D01*
X145883333Y-62412619D01*
X145930952Y-62507857D01*
X145930952Y-62650714D01*
X145883333Y-62745952D01*
X145835714Y-62793571D01*
X145740476Y-62841190D01*
X145359523Y-62841190D01*
X146311904Y-63031666D02*
X146788095Y-63031666D01*
X146216666Y-63317380D02*
X146550000Y-62317380D01*
X146883333Y-63317380D01*
%TO.C,R0*%
X109053333Y-62047380D02*
X108720000Y-61571190D01*
X108481904Y-62047380D02*
X108481904Y-61047380D01*
X108862857Y-61047380D01*
X108958095Y-61095000D01*
X109005714Y-61142619D01*
X109053333Y-61237857D01*
X109053333Y-61380714D01*
X109005714Y-61475952D01*
X108958095Y-61523571D01*
X108862857Y-61571190D01*
X108481904Y-61571190D01*
X109672380Y-61047380D02*
X109767619Y-61047380D01*
X109862857Y-61095000D01*
X109910476Y-61142619D01*
X109958095Y-61237857D01*
X110005714Y-61428333D01*
X110005714Y-61666428D01*
X109958095Y-61856904D01*
X109910476Y-61952142D01*
X109862857Y-61999761D01*
X109767619Y-62047380D01*
X109672380Y-62047380D01*
X109577142Y-61999761D01*
X109529523Y-61952142D01*
X109481904Y-61856904D01*
X109434285Y-61666428D01*
X109434285Y-61428333D01*
X109481904Y-61237857D01*
X109529523Y-61142619D01*
X109577142Y-61095000D01*
X109672380Y-61047380D01*
%TO.C,C14*%
X123817142Y-129897142D02*
X123769523Y-129944761D01*
X123626666Y-129992380D01*
X123531428Y-129992380D01*
X123388571Y-129944761D01*
X123293333Y-129849523D01*
X123245714Y-129754285D01*
X123198095Y-129563809D01*
X123198095Y-129420952D01*
X123245714Y-129230476D01*
X123293333Y-129135238D01*
X123388571Y-129040000D01*
X123531428Y-128992380D01*
X123626666Y-128992380D01*
X123769523Y-129040000D01*
X123817142Y-129087619D01*
X124769523Y-129992380D02*
X124198095Y-129992380D01*
X124483809Y-129992380D02*
X124483809Y-128992380D01*
X124388571Y-129135238D01*
X124293333Y-129230476D01*
X124198095Y-129278095D01*
X125626666Y-129325714D02*
X125626666Y-129992380D01*
X125388571Y-128944761D02*
X125150476Y-129659047D01*
X125769523Y-129659047D01*
%TO.C,R1*%
X121753333Y-62047380D02*
X121420000Y-61571190D01*
X121181904Y-62047380D02*
X121181904Y-61047380D01*
X121562857Y-61047380D01*
X121658095Y-61095000D01*
X121705714Y-61142619D01*
X121753333Y-61237857D01*
X121753333Y-61380714D01*
X121705714Y-61475952D01*
X121658095Y-61523571D01*
X121562857Y-61571190D01*
X121181904Y-61571190D01*
X122705714Y-62047380D02*
X122134285Y-62047380D01*
X122420000Y-62047380D02*
X122420000Y-61047380D01*
X122324761Y-61190238D01*
X122229523Y-61285476D01*
X122134285Y-61333095D01*
%TO.C,PS0*%
X144597380Y-56459285D02*
X143597380Y-56459285D01*
X143597380Y-56078333D01*
X143645000Y-55983095D01*
X143692619Y-55935476D01*
X143787857Y-55887857D01*
X143930714Y-55887857D01*
X144025952Y-55935476D01*
X144073571Y-55983095D01*
X144121190Y-56078333D01*
X144121190Y-56459285D01*
X144549761Y-55506904D02*
X144597380Y-55364047D01*
X144597380Y-55125952D01*
X144549761Y-55030714D01*
X144502142Y-54983095D01*
X144406904Y-54935476D01*
X144311666Y-54935476D01*
X144216428Y-54983095D01*
X144168809Y-55030714D01*
X144121190Y-55125952D01*
X144073571Y-55316428D01*
X144025952Y-55411666D01*
X143978333Y-55459285D01*
X143883095Y-55506904D01*
X143787857Y-55506904D01*
X143692619Y-55459285D01*
X143645000Y-55411666D01*
X143597380Y-55316428D01*
X143597380Y-55078333D01*
X143645000Y-54935476D01*
X143597380Y-54316428D02*
X143597380Y-54221190D01*
X143645000Y-54125952D01*
X143692619Y-54078333D01*
X143787857Y-54030714D01*
X143978333Y-53983095D01*
X144216428Y-53983095D01*
X144406904Y-54030714D01*
X144502142Y-54078333D01*
X144549761Y-54125952D01*
X144597380Y-54221190D01*
X144597380Y-54316428D01*
X144549761Y-54411666D01*
X144502142Y-54459285D01*
X144406904Y-54506904D01*
X144216428Y-54554523D01*
X143978333Y-54554523D01*
X143787857Y-54506904D01*
X143692619Y-54459285D01*
X143645000Y-54411666D01*
X143597380Y-54316428D01*
%TO.C,U3*%
X174498095Y-66802380D02*
X174498095Y-67611904D01*
X174545714Y-67707142D01*
X174593333Y-67754761D01*
X174688571Y-67802380D01*
X174879047Y-67802380D01*
X174974285Y-67754761D01*
X175021904Y-67707142D01*
X175069523Y-67611904D01*
X175069523Y-66802380D01*
X175450476Y-66802380D02*
X176069523Y-66802380D01*
X175736190Y-67183333D01*
X175879047Y-67183333D01*
X175974285Y-67230952D01*
X176021904Y-67278571D01*
X176069523Y-67373809D01*
X176069523Y-67611904D01*
X176021904Y-67707142D01*
X175974285Y-67754761D01*
X175879047Y-67802380D01*
X175593333Y-67802380D01*
X175498095Y-67754761D01*
X175450476Y-67707142D01*
X171402857Y-105536666D02*
X171879047Y-105536666D01*
X171307619Y-105822380D02*
X171640952Y-104822380D01*
X171974285Y-105822380D01*
X172164761Y-104822380D02*
X172736190Y-104822380D01*
X172450476Y-105822380D02*
X172450476Y-104822380D01*
X173402857Y-105298571D02*
X173069523Y-105298571D01*
X173069523Y-105822380D02*
X173069523Y-104822380D01*
X173545714Y-104822380D01*
X174450476Y-105822380D02*
X173879047Y-105822380D01*
X174164761Y-105822380D02*
X174164761Y-104822380D01*
X174069523Y-104965238D01*
X173974285Y-105060476D01*
X173879047Y-105108095D01*
X175355238Y-104822380D02*
X174879047Y-104822380D01*
X174831428Y-105298571D01*
X174879047Y-105250952D01*
X174974285Y-105203333D01*
X175212380Y-105203333D01*
X175307619Y-105250952D01*
X175355238Y-105298571D01*
X175402857Y-105393809D01*
X175402857Y-105631904D01*
X175355238Y-105727142D01*
X175307619Y-105774761D01*
X175212380Y-105822380D01*
X174974285Y-105822380D01*
X174879047Y-105774761D01*
X174831428Y-105727142D01*
X176021904Y-104822380D02*
X176117142Y-104822380D01*
X176212380Y-104870000D01*
X176260000Y-104917619D01*
X176307619Y-105012857D01*
X176355238Y-105203333D01*
X176355238Y-105441428D01*
X176307619Y-105631904D01*
X176260000Y-105727142D01*
X176212380Y-105774761D01*
X176117142Y-105822380D01*
X176021904Y-105822380D01*
X175926666Y-105774761D01*
X175879047Y-105727142D01*
X175831428Y-105631904D01*
X175783809Y-105441428D01*
X175783809Y-105203333D01*
X175831428Y-105012857D01*
X175879047Y-104917619D01*
X175926666Y-104870000D01*
X176021904Y-104822380D01*
X176926666Y-105250952D02*
X176831428Y-105203333D01*
X176783809Y-105155714D01*
X176736190Y-105060476D01*
X176736190Y-105012857D01*
X176783809Y-104917619D01*
X176831428Y-104870000D01*
X176926666Y-104822380D01*
X177117142Y-104822380D01*
X177212380Y-104870000D01*
X177260000Y-104917619D01*
X177307619Y-105012857D01*
X177307619Y-105060476D01*
X177260000Y-105155714D01*
X177212380Y-105203333D01*
X177117142Y-105250952D01*
X176926666Y-105250952D01*
X176831428Y-105298571D01*
X176783809Y-105346190D01*
X176736190Y-105441428D01*
X176736190Y-105631904D01*
X176783809Y-105727142D01*
X176831428Y-105774761D01*
X176926666Y-105822380D01*
X177117142Y-105822380D01*
X177212380Y-105774761D01*
X177260000Y-105727142D01*
X177307619Y-105631904D01*
X177307619Y-105441428D01*
X177260000Y-105346190D01*
X177212380Y-105298571D01*
X177117142Y-105250952D01*
X177688571Y-105536666D02*
X178164761Y-105536666D01*
X177593333Y-105822380D02*
X177926666Y-104822380D01*
X178260000Y-105822380D01*
X178545714Y-105774761D02*
X178688571Y-105822380D01*
X178926666Y-105822380D01*
X179021904Y-105774761D01*
X179069523Y-105727142D01*
X179117142Y-105631904D01*
X179117142Y-105536666D01*
X179069523Y-105441428D01*
X179021904Y-105393809D01*
X178926666Y-105346190D01*
X178736190Y-105298571D01*
X178640952Y-105250952D01*
X178593333Y-105203333D01*
X178545714Y-105108095D01*
X178545714Y-105012857D01*
X178593333Y-104917619D01*
X178640952Y-104870000D01*
X178736190Y-104822380D01*
X178974285Y-104822380D01*
X179117142Y-104870000D01*
%TO.C,SW0*%
X160591666Y-135024761D02*
X160734523Y-135072380D01*
X160972619Y-135072380D01*
X161067857Y-135024761D01*
X161115476Y-134977142D01*
X161163095Y-134881904D01*
X161163095Y-134786666D01*
X161115476Y-134691428D01*
X161067857Y-134643809D01*
X160972619Y-134596190D01*
X160782142Y-134548571D01*
X160686904Y-134500952D01*
X160639285Y-134453333D01*
X160591666Y-134358095D01*
X160591666Y-134262857D01*
X160639285Y-134167619D01*
X160686904Y-134120000D01*
X160782142Y-134072380D01*
X161020238Y-134072380D01*
X161163095Y-134120000D01*
X161496428Y-134072380D02*
X161734523Y-135072380D01*
X161925000Y-134358095D01*
X162115476Y-135072380D01*
X162353571Y-134072380D01*
X162925000Y-134072380D02*
X163020238Y-134072380D01*
X163115476Y-134120000D01*
X163163095Y-134167619D01*
X163210714Y-134262857D01*
X163258333Y-134453333D01*
X163258333Y-134691428D01*
X163210714Y-134881904D01*
X163163095Y-134977142D01*
X163115476Y-135024761D01*
X163020238Y-135072380D01*
X162925000Y-135072380D01*
X162829761Y-135024761D01*
X162782142Y-134977142D01*
X162734523Y-134881904D01*
X162686904Y-134691428D01*
X162686904Y-134453333D01*
X162734523Y-134262857D01*
X162782142Y-134167619D01*
X162829761Y-134120000D01*
X162925000Y-134072380D01*
X160472619Y-144089380D02*
X160139285Y-143613190D01*
X159901190Y-144089380D02*
X159901190Y-143089380D01*
X160282142Y-143089380D01*
X160377380Y-143137000D01*
X160425000Y-143184619D01*
X160472619Y-143279857D01*
X160472619Y-143422714D01*
X160425000Y-143517952D01*
X160377380Y-143565571D01*
X160282142Y-143613190D01*
X159901190Y-143613190D01*
X160901190Y-143565571D02*
X161234523Y-143565571D01*
X161377380Y-144089380D02*
X160901190Y-144089380D01*
X160901190Y-143089380D01*
X161377380Y-143089380D01*
X161758333Y-144041761D02*
X161901190Y-144089380D01*
X162139285Y-144089380D01*
X162234523Y-144041761D01*
X162282142Y-143994142D01*
X162329761Y-143898904D01*
X162329761Y-143803666D01*
X162282142Y-143708428D01*
X162234523Y-143660809D01*
X162139285Y-143613190D01*
X161948809Y-143565571D01*
X161853571Y-143517952D01*
X161805952Y-143470333D01*
X161758333Y-143375095D01*
X161758333Y-143279857D01*
X161805952Y-143184619D01*
X161853571Y-143137000D01*
X161948809Y-143089380D01*
X162186904Y-143089380D01*
X162329761Y-143137000D01*
X162758333Y-143565571D02*
X163091666Y-143565571D01*
X163234523Y-144089380D02*
X162758333Y-144089380D01*
X162758333Y-143089380D01*
X163234523Y-143089380D01*
X163520238Y-143089380D02*
X164091666Y-143089380D01*
X163805952Y-144089380D02*
X163805952Y-143089380D01*
%TO.C,C5*%
X101473333Y-75287142D02*
X101425714Y-75334761D01*
X101282857Y-75382380D01*
X101187619Y-75382380D01*
X101044761Y-75334761D01*
X100949523Y-75239523D01*
X100901904Y-75144285D01*
X100854285Y-74953809D01*
X100854285Y-74810952D01*
X100901904Y-74620476D01*
X100949523Y-74525238D01*
X101044761Y-74430000D01*
X101187619Y-74382380D01*
X101282857Y-74382380D01*
X101425714Y-74430000D01*
X101473333Y-74477619D01*
X102378095Y-74382380D02*
X101901904Y-74382380D01*
X101854285Y-74858571D01*
X101901904Y-74810952D01*
X101997142Y-74763333D01*
X102235238Y-74763333D01*
X102330476Y-74810952D01*
X102378095Y-74858571D01*
X102425714Y-74953809D01*
X102425714Y-75191904D01*
X102378095Y-75287142D01*
X102330476Y-75334761D01*
X102235238Y-75382380D01*
X101997142Y-75382380D01*
X101901904Y-75334761D01*
X101854285Y-75287142D01*
%TO.C,U4*%
X131318095Y-65442380D02*
X131318095Y-66251904D01*
X131365714Y-66347142D01*
X131413333Y-66394761D01*
X131508571Y-66442380D01*
X131699047Y-66442380D01*
X131794285Y-66394761D01*
X131841904Y-66347142D01*
X131889523Y-66251904D01*
X131889523Y-65442380D01*
X132794285Y-65775714D02*
X132794285Y-66442380D01*
X132556190Y-65394761D02*
X132318095Y-66109047D01*
X132937142Y-66109047D01*
X129246666Y-90942380D02*
X129484761Y-91942380D01*
X129675238Y-91228095D01*
X129865714Y-91942380D01*
X130103809Y-90942380D01*
X130913333Y-90942380D02*
X130722857Y-90942380D01*
X130627619Y-90990000D01*
X130580000Y-91037619D01*
X130484761Y-91180476D01*
X130437142Y-91370952D01*
X130437142Y-91751904D01*
X130484761Y-91847142D01*
X130532380Y-91894761D01*
X130627619Y-91942380D01*
X130818095Y-91942380D01*
X130913333Y-91894761D01*
X130960952Y-91847142D01*
X131008571Y-91751904D01*
X131008571Y-91513809D01*
X130960952Y-91418571D01*
X130913333Y-91370952D01*
X130818095Y-91323333D01*
X130627619Y-91323333D01*
X130532380Y-91370952D01*
X130484761Y-91418571D01*
X130437142Y-91513809D01*
X131913333Y-90942380D02*
X131437142Y-90942380D01*
X131389523Y-91418571D01*
X131437142Y-91370952D01*
X131532380Y-91323333D01*
X131770476Y-91323333D01*
X131865714Y-91370952D01*
X131913333Y-91418571D01*
X131960952Y-91513809D01*
X131960952Y-91751904D01*
X131913333Y-91847142D01*
X131865714Y-91894761D01*
X131770476Y-91942380D01*
X131532380Y-91942380D01*
X131437142Y-91894761D01*
X131389523Y-91847142D01*
X132960952Y-91847142D02*
X132913333Y-91894761D01*
X132770476Y-91942380D01*
X132675238Y-91942380D01*
X132532380Y-91894761D01*
X132437142Y-91799523D01*
X132389523Y-91704285D01*
X132341904Y-91513809D01*
X132341904Y-91370952D01*
X132389523Y-91180476D01*
X132437142Y-91085238D01*
X132532380Y-90990000D01*
X132675238Y-90942380D01*
X132770476Y-90942380D01*
X132913333Y-90990000D01*
X132960952Y-91037619D01*
X133341904Y-91037619D02*
X133389523Y-90990000D01*
X133484761Y-90942380D01*
X133722857Y-90942380D01*
X133818095Y-90990000D01*
X133865714Y-91037619D01*
X133913333Y-91132857D01*
X133913333Y-91228095D01*
X133865714Y-91370952D01*
X133294285Y-91942380D01*
X133913333Y-91942380D01*
X134294285Y-91037619D02*
X134341904Y-90990000D01*
X134437142Y-90942380D01*
X134675238Y-90942380D01*
X134770476Y-90990000D01*
X134818095Y-91037619D01*
X134865714Y-91132857D01*
X134865714Y-91228095D01*
X134818095Y-91370952D01*
X134246666Y-91942380D01*
X134865714Y-91942380D01*
%TO.C,U0*%
X178308095Y-51522380D02*
X178308095Y-52331904D01*
X178355714Y-52427142D01*
X178403333Y-52474761D01*
X178498571Y-52522380D01*
X178689047Y-52522380D01*
X178784285Y-52474761D01*
X178831904Y-52427142D01*
X178879523Y-52331904D01*
X178879523Y-51522380D01*
X179546190Y-51522380D02*
X179641428Y-51522380D01*
X179736666Y-51570000D01*
X179784285Y-51617619D01*
X179831904Y-51712857D01*
X179879523Y-51903333D01*
X179879523Y-52141428D01*
X179831904Y-52331904D01*
X179784285Y-52427142D01*
X179736666Y-52474761D01*
X179641428Y-52522380D01*
X179546190Y-52522380D01*
X179450952Y-52474761D01*
X179403333Y-52427142D01*
X179355714Y-52331904D01*
X179308095Y-52141428D01*
X179308095Y-51903333D01*
X179355714Y-51712857D01*
X179403333Y-51617619D01*
X179450952Y-51570000D01*
X179546190Y-51522380D01*
%TO.C,D0*%
X161821904Y-60523380D02*
X161821904Y-59523380D01*
X162060000Y-59523380D01*
X162202857Y-59571000D01*
X162298095Y-59666238D01*
X162345714Y-59761476D01*
X162393333Y-59951952D01*
X162393333Y-60094809D01*
X162345714Y-60285285D01*
X162298095Y-60380523D01*
X162202857Y-60475761D01*
X162060000Y-60523380D01*
X161821904Y-60523380D01*
X163012380Y-59523380D02*
X163107619Y-59523380D01*
X163202857Y-59571000D01*
X163250476Y-59618619D01*
X163298095Y-59713857D01*
X163345714Y-59904333D01*
X163345714Y-60142428D01*
X163298095Y-60332904D01*
X163250476Y-60428142D01*
X163202857Y-60475761D01*
X163107619Y-60523380D01*
X163012380Y-60523380D01*
X162917142Y-60475761D01*
X162869523Y-60428142D01*
X162821904Y-60332904D01*
X162774285Y-60142428D01*
X162774285Y-59904333D01*
X162821904Y-59713857D01*
X162869523Y-59618619D01*
X162917142Y-59571000D01*
X163012380Y-59523380D01*
%TO.C,C10*%
X166997142Y-133707142D02*
X166949523Y-133754761D01*
X166806666Y-133802380D01*
X166711428Y-133802380D01*
X166568571Y-133754761D01*
X166473333Y-133659523D01*
X166425714Y-133564285D01*
X166378095Y-133373809D01*
X166378095Y-133230952D01*
X166425714Y-133040476D01*
X166473333Y-132945238D01*
X166568571Y-132850000D01*
X166711428Y-132802380D01*
X166806666Y-132802380D01*
X166949523Y-132850000D01*
X166997142Y-132897619D01*
X167949523Y-133802380D02*
X167378095Y-133802380D01*
X167663809Y-133802380D02*
X167663809Y-132802380D01*
X167568571Y-132945238D01*
X167473333Y-133040476D01*
X167378095Y-133088095D01*
X168568571Y-132802380D02*
X168663809Y-132802380D01*
X168759047Y-132850000D01*
X168806666Y-132897619D01*
X168854285Y-132992857D01*
X168901904Y-133183333D01*
X168901904Y-133421428D01*
X168854285Y-133611904D01*
X168806666Y-133707142D01*
X168759047Y-133754761D01*
X168663809Y-133802380D01*
X168568571Y-133802380D01*
X168473333Y-133754761D01*
X168425714Y-133707142D01*
X168378095Y-133611904D01*
X168330476Y-133421428D01*
X168330476Y-133183333D01*
X168378095Y-132992857D01*
X168425714Y-132897619D01*
X168473333Y-132850000D01*
X168568571Y-132802380D01*
%TO.C,U5*%
X107188095Y-75782380D02*
X107188095Y-76591904D01*
X107235714Y-76687142D01*
X107283333Y-76734761D01*
X107378571Y-76782380D01*
X107569047Y-76782380D01*
X107664285Y-76734761D01*
X107711904Y-76687142D01*
X107759523Y-76591904D01*
X107759523Y-75782380D01*
X108711904Y-75782380D02*
X108235714Y-75782380D01*
X108188095Y-76258571D01*
X108235714Y-76210952D01*
X108330952Y-76163333D01*
X108569047Y-76163333D01*
X108664285Y-76210952D01*
X108711904Y-76258571D01*
X108759523Y-76353809D01*
X108759523Y-76591904D01*
X108711904Y-76687142D01*
X108664285Y-76734761D01*
X108569047Y-76782380D01*
X108330952Y-76782380D01*
X108235714Y-76734761D01*
X108188095Y-76687142D01*
X103521428Y-99334761D02*
X103664285Y-99382380D01*
X103902380Y-99382380D01*
X103997619Y-99334761D01*
X104045238Y-99287142D01*
X104092857Y-99191904D01*
X104092857Y-99096666D01*
X104045238Y-99001428D01*
X103997619Y-98953809D01*
X103902380Y-98906190D01*
X103711904Y-98858571D01*
X103616666Y-98810952D01*
X103569047Y-98763333D01*
X103521428Y-98668095D01*
X103521428Y-98572857D01*
X103569047Y-98477619D01*
X103616666Y-98430000D01*
X103711904Y-98382380D01*
X103950000Y-98382380D01*
X104092857Y-98430000D01*
X104473809Y-99334761D02*
X104616666Y-99382380D01*
X104854761Y-99382380D01*
X104950000Y-99334761D01*
X104997619Y-99287142D01*
X105045238Y-99191904D01*
X105045238Y-99096666D01*
X104997619Y-99001428D01*
X104950000Y-98953809D01*
X104854761Y-98906190D01*
X104664285Y-98858571D01*
X104569047Y-98810952D01*
X104521428Y-98763333D01*
X104473809Y-98668095D01*
X104473809Y-98572857D01*
X104521428Y-98477619D01*
X104569047Y-98430000D01*
X104664285Y-98382380D01*
X104902380Y-98382380D01*
X105045238Y-98430000D01*
X105330952Y-98382380D02*
X105902380Y-98382380D01*
X105616666Y-99382380D02*
X105616666Y-98382380D01*
X106140476Y-98382380D02*
X106759523Y-98382380D01*
X106426190Y-98763333D01*
X106569047Y-98763333D01*
X106664285Y-98810952D01*
X106711904Y-98858571D01*
X106759523Y-98953809D01*
X106759523Y-99191904D01*
X106711904Y-99287142D01*
X106664285Y-99334761D01*
X106569047Y-99382380D01*
X106283333Y-99382380D01*
X106188095Y-99334761D01*
X106140476Y-99287142D01*
X107235714Y-99382380D02*
X107426190Y-99382380D01*
X107521428Y-99334761D01*
X107569047Y-99287142D01*
X107664285Y-99144285D01*
X107711904Y-98953809D01*
X107711904Y-98572857D01*
X107664285Y-98477619D01*
X107616666Y-98430000D01*
X107521428Y-98382380D01*
X107330952Y-98382380D01*
X107235714Y-98430000D01*
X107188095Y-98477619D01*
X107140476Y-98572857D01*
X107140476Y-98810952D01*
X107188095Y-98906190D01*
X107235714Y-98953809D01*
X107330952Y-99001428D01*
X107521428Y-99001428D01*
X107616666Y-98953809D01*
X107664285Y-98906190D01*
X107711904Y-98810952D01*
X108092857Y-99334761D02*
X108235714Y-99382380D01*
X108473809Y-99382380D01*
X108569047Y-99334761D01*
X108616666Y-99287142D01*
X108664285Y-99191904D01*
X108664285Y-99096666D01*
X108616666Y-99001428D01*
X108569047Y-98953809D01*
X108473809Y-98906190D01*
X108283333Y-98858571D01*
X108188095Y-98810952D01*
X108140476Y-98763333D01*
X108092857Y-98668095D01*
X108092857Y-98572857D01*
X108140476Y-98477619D01*
X108188095Y-98430000D01*
X108283333Y-98382380D01*
X108521428Y-98382380D01*
X108664285Y-98430000D01*
X109426190Y-98858571D02*
X109092857Y-98858571D01*
X109092857Y-99382380D02*
X109092857Y-98382380D01*
X109569047Y-98382380D01*
X110140476Y-98382380D02*
X110235714Y-98382380D01*
X110330952Y-98430000D01*
X110378571Y-98477619D01*
X110426190Y-98572857D01*
X110473809Y-98763333D01*
X110473809Y-99001428D01*
X110426190Y-99191904D01*
X110378571Y-99287142D01*
X110330952Y-99334761D01*
X110235714Y-99382380D01*
X110140476Y-99382380D01*
X110045238Y-99334761D01*
X109997619Y-99287142D01*
X109950000Y-99191904D01*
X109902380Y-99001428D01*
X109902380Y-98763333D01*
X109950000Y-98572857D01*
X109997619Y-98477619D01*
X110045238Y-98430000D01*
X110140476Y-98382380D01*
X111330952Y-98715714D02*
X111330952Y-99382380D01*
X111092857Y-98334761D02*
X110854761Y-99049047D01*
X111473809Y-99049047D01*
X112045238Y-98382380D02*
X112140476Y-98382380D01*
X112235714Y-98430000D01*
X112283333Y-98477619D01*
X112330952Y-98572857D01*
X112378571Y-98763333D01*
X112378571Y-99001428D01*
X112330952Y-99191904D01*
X112283333Y-99287142D01*
X112235714Y-99334761D01*
X112140476Y-99382380D01*
X112045238Y-99382380D01*
X111950000Y-99334761D01*
X111902380Y-99287142D01*
X111854761Y-99191904D01*
X111807142Y-99001428D01*
X111807142Y-98763333D01*
X111854761Y-98572857D01*
X111902380Y-98477619D01*
X111950000Y-98430000D01*
X112045238Y-98382380D01*
%TO.C,U9*%
X137658095Y-127507380D02*
X137658095Y-128316904D01*
X137705714Y-128412142D01*
X137753333Y-128459761D01*
X137848571Y-128507380D01*
X138039047Y-128507380D01*
X138134285Y-128459761D01*
X138181904Y-128412142D01*
X138229523Y-128316904D01*
X138229523Y-127507380D01*
X138753333Y-128507380D02*
X138943809Y-128507380D01*
X139039047Y-128459761D01*
X139086666Y-128412142D01*
X139181904Y-128269285D01*
X139229523Y-128078809D01*
X139229523Y-127697857D01*
X139181904Y-127602619D01*
X139134285Y-127555000D01*
X139039047Y-127507380D01*
X138848571Y-127507380D01*
X138753333Y-127555000D01*
X138705714Y-127602619D01*
X138658095Y-127697857D01*
X138658095Y-127935952D01*
X138705714Y-128031190D01*
X138753333Y-128078809D01*
X138848571Y-128126428D01*
X139039047Y-128126428D01*
X139134285Y-128078809D01*
X139181904Y-128031190D01*
X139229523Y-127935952D01*
X134872380Y-99987380D02*
X135539047Y-99987380D01*
X135110476Y-100987380D01*
X136348571Y-100320714D02*
X136348571Y-100987380D01*
X136110476Y-99939761D02*
X135872380Y-100654047D01*
X136491428Y-100654047D01*
X136824761Y-100701666D02*
X137300952Y-100701666D01*
X136729523Y-100987380D02*
X137062857Y-99987380D01*
X137396190Y-100987380D01*
X138300952Y-100892142D02*
X138253333Y-100939761D01*
X138110476Y-100987380D01*
X138015238Y-100987380D01*
X137872380Y-100939761D01*
X137777142Y-100844523D01*
X137729523Y-100749285D01*
X137681904Y-100558809D01*
X137681904Y-100415952D01*
X137729523Y-100225476D01*
X137777142Y-100130238D01*
X137872380Y-100035000D01*
X138015238Y-99987380D01*
X138110476Y-99987380D01*
X138253333Y-100035000D01*
X138300952Y-100082619D01*
X138586666Y-99987380D02*
X139158095Y-99987380D01*
X138872380Y-100987380D02*
X138872380Y-99987380D01*
X139443809Y-100082619D02*
X139491428Y-100035000D01*
X139586666Y-99987380D01*
X139824761Y-99987380D01*
X139920000Y-100035000D01*
X139967619Y-100082619D01*
X140015238Y-100177857D01*
X140015238Y-100273095D01*
X139967619Y-100415952D01*
X139396190Y-100987380D01*
X140015238Y-100987380D01*
X140872380Y-100320714D02*
X140872380Y-100987380D01*
X140634285Y-99939761D02*
X140396190Y-100654047D01*
X141015238Y-100654047D01*
X141872380Y-99987380D02*
X141396190Y-99987380D01*
X141348571Y-100463571D01*
X141396190Y-100415952D01*
X141491428Y-100368333D01*
X141729523Y-100368333D01*
X141824761Y-100415952D01*
X141872380Y-100463571D01*
X141920000Y-100558809D01*
X141920000Y-100796904D01*
X141872380Y-100892142D01*
X141824761Y-100939761D01*
X141729523Y-100987380D01*
X141491428Y-100987380D01*
X141396190Y-100939761D01*
X141348571Y-100892142D01*
%TO.C,X0*%
X112855476Y-129162380D02*
X113522142Y-130162380D01*
X113522142Y-129162380D02*
X112855476Y-130162380D01*
X114093571Y-129162380D02*
X114188809Y-129162380D01*
X114284047Y-129210000D01*
X114331666Y-129257619D01*
X114379285Y-129352857D01*
X114426904Y-129543333D01*
X114426904Y-129781428D01*
X114379285Y-129971904D01*
X114331666Y-130067142D01*
X114284047Y-130114761D01*
X114188809Y-130162380D01*
X114093571Y-130162380D01*
X113998333Y-130114761D01*
X113950714Y-130067142D01*
X113903095Y-129971904D01*
X113855476Y-129781428D01*
X113855476Y-129543333D01*
X113903095Y-129352857D01*
X113950714Y-129257619D01*
X113998333Y-129210000D01*
X114093571Y-129162380D01*
%TO.C,U2*%
X131318095Y-130643380D02*
X131318095Y-131452904D01*
X131365714Y-131548142D01*
X131413333Y-131595761D01*
X131508571Y-131643380D01*
X131699047Y-131643380D01*
X131794285Y-131595761D01*
X131841904Y-131548142D01*
X131889523Y-131452904D01*
X131889523Y-130643380D01*
X132318095Y-130738619D02*
X132365714Y-130691000D01*
X132460952Y-130643380D01*
X132699047Y-130643380D01*
X132794285Y-130691000D01*
X132841904Y-130738619D01*
X132889523Y-130833857D01*
X132889523Y-130929095D01*
X132841904Y-131071952D01*
X132270476Y-131643380D01*
X132889523Y-131643380D01*
X129389523Y-142708380D02*
X130056190Y-142708380D01*
X129627619Y-143708380D01*
X130865714Y-143041714D02*
X130865714Y-143708380D01*
X130627619Y-142660761D02*
X130389523Y-143375047D01*
X131008571Y-143375047D01*
X131341904Y-143422666D02*
X131818095Y-143422666D01*
X131246666Y-143708380D02*
X131580000Y-142708380D01*
X131913333Y-143708380D01*
X132818095Y-143613142D02*
X132770476Y-143660761D01*
X132627619Y-143708380D01*
X132532380Y-143708380D01*
X132389523Y-143660761D01*
X132294285Y-143565523D01*
X132246666Y-143470285D01*
X132199047Y-143279809D01*
X132199047Y-143136952D01*
X132246666Y-142946476D01*
X132294285Y-142851238D01*
X132389523Y-142756000D01*
X132532380Y-142708380D01*
X132627619Y-142708380D01*
X132770476Y-142756000D01*
X132818095Y-142803619D01*
X133151428Y-142708380D02*
X133818095Y-142708380D01*
X133389523Y-143708380D01*
X134627619Y-143041714D02*
X134627619Y-143708380D01*
X134389523Y-142660761D02*
X134151428Y-143375047D01*
X134770476Y-143375047D01*
%TO.C,C12*%
X182237142Y-66397142D02*
X182189523Y-66444761D01*
X182046666Y-66492380D01*
X181951428Y-66492380D01*
X181808571Y-66444761D01*
X181713333Y-66349523D01*
X181665714Y-66254285D01*
X181618095Y-66063809D01*
X181618095Y-65920952D01*
X181665714Y-65730476D01*
X181713333Y-65635238D01*
X181808571Y-65540000D01*
X181951428Y-65492380D01*
X182046666Y-65492380D01*
X182189523Y-65540000D01*
X182237142Y-65587619D01*
X183189523Y-66492380D02*
X182618095Y-66492380D01*
X182903809Y-66492380D02*
X182903809Y-65492380D01*
X182808571Y-65635238D01*
X182713333Y-65730476D01*
X182618095Y-65778095D01*
X183570476Y-65587619D02*
X183618095Y-65540000D01*
X183713333Y-65492380D01*
X183951428Y-65492380D01*
X184046666Y-65540000D01*
X184094285Y-65587619D01*
X184141904Y-65682857D01*
X184141904Y-65778095D01*
X184094285Y-65920952D01*
X183522857Y-66492380D01*
X184141904Y-66492380D01*
%TO.C,C6*%
X146407142Y-76326666D02*
X146454761Y-76374285D01*
X146502380Y-76517142D01*
X146502380Y-76612380D01*
X146454761Y-76755238D01*
X146359523Y-76850476D01*
X146264285Y-76898095D01*
X146073809Y-76945714D01*
X145930952Y-76945714D01*
X145740476Y-76898095D01*
X145645238Y-76850476D01*
X145550000Y-76755238D01*
X145502380Y-76612380D01*
X145502380Y-76517142D01*
X145550000Y-76374285D01*
X145597619Y-76326666D01*
X145502380Y-75469523D02*
X145502380Y-75660000D01*
X145550000Y-75755238D01*
X145597619Y-75802857D01*
X145740476Y-75898095D01*
X145930952Y-75945714D01*
X146311904Y-75945714D01*
X146407142Y-75898095D01*
X146454761Y-75850476D01*
X146502380Y-75755238D01*
X146502380Y-75564761D01*
X146454761Y-75469523D01*
X146407142Y-75421904D01*
X146311904Y-75374285D01*
X146073809Y-75374285D01*
X145978571Y-75421904D01*
X145930952Y-75469523D01*
X145883333Y-75564761D01*
X145883333Y-75755238D01*
X145930952Y-75850476D01*
X145978571Y-75898095D01*
X146073809Y-75945714D01*
%TO.C,C8*%
X146407142Y-101766666D02*
X146454761Y-101814285D01*
X146502380Y-101957142D01*
X146502380Y-102052380D01*
X146454761Y-102195238D01*
X146359523Y-102290476D01*
X146264285Y-102338095D01*
X146073809Y-102385714D01*
X145930952Y-102385714D01*
X145740476Y-102338095D01*
X145645238Y-102290476D01*
X145550000Y-102195238D01*
X145502380Y-102052380D01*
X145502380Y-101957142D01*
X145550000Y-101814285D01*
X145597619Y-101766666D01*
X145930952Y-101195238D02*
X145883333Y-101290476D01*
X145835714Y-101338095D01*
X145740476Y-101385714D01*
X145692857Y-101385714D01*
X145597619Y-101338095D01*
X145550000Y-101290476D01*
X145502380Y-101195238D01*
X145502380Y-101004761D01*
X145550000Y-100909523D01*
X145597619Y-100861904D01*
X145692857Y-100814285D01*
X145740476Y-100814285D01*
X145835714Y-100861904D01*
X145883333Y-100909523D01*
X145930952Y-101004761D01*
X145930952Y-101195238D01*
X145978571Y-101290476D01*
X146026190Y-101338095D01*
X146121428Y-101385714D01*
X146311904Y-101385714D01*
X146407142Y-101338095D01*
X146454761Y-101290476D01*
X146502380Y-101195238D01*
X146502380Y-101004761D01*
X146454761Y-100909523D01*
X146407142Y-100861904D01*
X146311904Y-100814285D01*
X146121428Y-100814285D01*
X146026190Y-100861904D01*
X145978571Y-100909523D01*
X145930952Y-101004761D01*
%TO.C,R2*%
X168743333Y-61793380D02*
X168410000Y-61317190D01*
X168171904Y-61793380D02*
X168171904Y-60793380D01*
X168552857Y-60793380D01*
X168648095Y-60841000D01*
X168695714Y-60888619D01*
X168743333Y-60983857D01*
X168743333Y-61126714D01*
X168695714Y-61221952D01*
X168648095Y-61269571D01*
X168552857Y-61317190D01*
X168171904Y-61317190D01*
X169124285Y-60888619D02*
X169171904Y-60841000D01*
X169267142Y-60793380D01*
X169505238Y-60793380D01*
X169600476Y-60841000D01*
X169648095Y-60888619D01*
X169695714Y-60983857D01*
X169695714Y-61079095D01*
X169648095Y-61221952D01*
X169076666Y-61793380D01*
X169695714Y-61793380D01*
X168076666Y-66238380D02*
X167505238Y-66238380D01*
X167790952Y-66238380D02*
X167790952Y-65238380D01*
X167695714Y-65381238D01*
X167600476Y-65476476D01*
X167505238Y-65524095D01*
X168505238Y-66143142D02*
X168552857Y-66190761D01*
X168505238Y-66238380D01*
X168457619Y-66190761D01*
X168505238Y-66143142D01*
X168505238Y-66238380D01*
X169457619Y-65238380D02*
X168981428Y-65238380D01*
X168933809Y-65714571D01*
X168981428Y-65666952D01*
X169076666Y-65619333D01*
X169314761Y-65619333D01*
X169410000Y-65666952D01*
X169457619Y-65714571D01*
X169505238Y-65809809D01*
X169505238Y-66047904D01*
X169457619Y-66143142D01*
X169410000Y-66190761D01*
X169314761Y-66238380D01*
X169076666Y-66238380D01*
X168981428Y-66190761D01*
X168933809Y-66143142D01*
X169933809Y-66238380D02*
X169933809Y-65238380D01*
X170029047Y-65857428D02*
X170314761Y-66238380D01*
X170314761Y-65571714D02*
X169933809Y-65952666D01*
%TO.C,RN0*%
X121214523Y-92527380D02*
X120881190Y-92051190D01*
X120643095Y-92527380D02*
X120643095Y-91527380D01*
X121024047Y-91527380D01*
X121119285Y-91575000D01*
X121166904Y-91622619D01*
X121214523Y-91717857D01*
X121214523Y-91860714D01*
X121166904Y-91955952D01*
X121119285Y-92003571D01*
X121024047Y-92051190D01*
X120643095Y-92051190D01*
X121643095Y-92527380D02*
X121643095Y-91527380D01*
X122214523Y-92527380D01*
X122214523Y-91527380D01*
X122881190Y-91527380D02*
X122976428Y-91527380D01*
X123071666Y-91575000D01*
X123119285Y-91622619D01*
X123166904Y-91717857D01*
X123214523Y-91908333D01*
X123214523Y-92146428D01*
X123166904Y-92336904D01*
X123119285Y-92432142D01*
X123071666Y-92479761D01*
X122976428Y-92527380D01*
X122881190Y-92527380D01*
X122785952Y-92479761D01*
X122738333Y-92432142D01*
X122690714Y-92336904D01*
X122643095Y-92146428D01*
X122643095Y-91908333D01*
X122690714Y-91717857D01*
X122738333Y-91622619D01*
X122785952Y-91575000D01*
X122881190Y-91527380D01*
X120452619Y-96467380D02*
X121071666Y-96467380D01*
X120738333Y-96848333D01*
X120881190Y-96848333D01*
X120976428Y-96895952D01*
X121024047Y-96943571D01*
X121071666Y-97038809D01*
X121071666Y-97276904D01*
X121024047Y-97372142D01*
X120976428Y-97419761D01*
X120881190Y-97467380D01*
X120595476Y-97467380D01*
X120500238Y-97419761D01*
X120452619Y-97372142D01*
X121500238Y-97372142D02*
X121547857Y-97419761D01*
X121500238Y-97467380D01*
X121452619Y-97419761D01*
X121500238Y-97372142D01*
X121500238Y-97467380D01*
X121881190Y-96467380D02*
X122500238Y-96467380D01*
X122166904Y-96848333D01*
X122309761Y-96848333D01*
X122405000Y-96895952D01*
X122452619Y-96943571D01*
X122500238Y-97038809D01*
X122500238Y-97276904D01*
X122452619Y-97372142D01*
X122405000Y-97419761D01*
X122309761Y-97467380D01*
X122024047Y-97467380D01*
X121928809Y-97419761D01*
X121881190Y-97372142D01*
X122928809Y-97467380D02*
X122928809Y-96467380D01*
X123024047Y-97086428D02*
X123309761Y-97467380D01*
X123309761Y-96800714D02*
X122928809Y-97181666D01*
%TO.C,R3*%
X101433333Y-101163380D02*
X101100000Y-100687190D01*
X100861904Y-101163380D02*
X100861904Y-100163380D01*
X101242857Y-100163380D01*
X101338095Y-100211000D01*
X101385714Y-100258619D01*
X101433333Y-100353857D01*
X101433333Y-100496714D01*
X101385714Y-100591952D01*
X101338095Y-100639571D01*
X101242857Y-100687190D01*
X100861904Y-100687190D01*
X101766666Y-100163380D02*
X102385714Y-100163380D01*
X102052380Y-100544333D01*
X102195238Y-100544333D01*
X102290476Y-100591952D01*
X102338095Y-100639571D01*
X102385714Y-100734809D01*
X102385714Y-100972904D01*
X102338095Y-101068142D01*
X102290476Y-101115761D01*
X102195238Y-101163380D01*
X101909523Y-101163380D01*
X101814285Y-101115761D01*
X101766666Y-101068142D01*
X102687619Y-104100380D02*
X103306666Y-104100380D01*
X102973333Y-104481333D01*
X103116190Y-104481333D01*
X103211428Y-104528952D01*
X103259047Y-104576571D01*
X103306666Y-104671809D01*
X103306666Y-104909904D01*
X103259047Y-105005142D01*
X103211428Y-105052761D01*
X103116190Y-105100380D01*
X102830476Y-105100380D01*
X102735238Y-105052761D01*
X102687619Y-105005142D01*
X103735238Y-105005142D02*
X103782857Y-105052761D01*
X103735238Y-105100380D01*
X103687619Y-105052761D01*
X103735238Y-105005142D01*
X103735238Y-105100380D01*
X104116190Y-104100380D02*
X104735238Y-104100380D01*
X104401904Y-104481333D01*
X104544761Y-104481333D01*
X104640000Y-104528952D01*
X104687619Y-104576571D01*
X104735238Y-104671809D01*
X104735238Y-104909904D01*
X104687619Y-105005142D01*
X104640000Y-105052761D01*
X104544761Y-105100380D01*
X104259047Y-105100380D01*
X104163809Y-105052761D01*
X104116190Y-105005142D01*
X105163809Y-105100380D02*
X105163809Y-104100380D01*
X105259047Y-104719428D02*
X105544761Y-105100380D01*
X105544761Y-104433714D02*
X105163809Y-104814666D01*
%TO.C,TP0*%
X100338095Y-125182380D02*
X100909523Y-125182380D01*
X100623809Y-126182380D02*
X100623809Y-125182380D01*
X101242857Y-126182380D02*
X101242857Y-125182380D01*
X101623809Y-125182380D01*
X101719047Y-125230000D01*
X101766666Y-125277619D01*
X101814285Y-125372857D01*
X101814285Y-125515714D01*
X101766666Y-125610952D01*
X101719047Y-125658571D01*
X101623809Y-125706190D01*
X101242857Y-125706190D01*
X102433333Y-125182380D02*
X102528571Y-125182380D01*
X102623809Y-125230000D01*
X102671428Y-125277619D01*
X102719047Y-125372857D01*
X102766666Y-125563333D01*
X102766666Y-125801428D01*
X102719047Y-125991904D01*
X102671428Y-126087142D01*
X102623809Y-126134761D01*
X102528571Y-126182380D01*
X102433333Y-126182380D01*
X102338095Y-126134761D01*
X102290476Y-126087142D01*
X102242857Y-125991904D01*
X102195238Y-125801428D01*
X102195238Y-125563333D01*
X102242857Y-125372857D01*
X102290476Y-125277619D01*
X102338095Y-125230000D01*
X102433333Y-125182380D01*
D12*
%TO.C,U11*%
X150740000Y-130220000D02*
X150740000Y-126370000D01*
X146440000Y-128280000D02*
G75*
G03*
X147941193Y-130636400I2600000J0D01*
G01*
X150162045Y-130602631D02*
G75*
G03*
X150740000Y-130220000I-1122045J2322631D01*
G01*
X147941193Y-125923600D02*
G75*
G03*
X146440000Y-128280000I1098807J-2356400D01*
G01*
X150740000Y-126370000D02*
G75*
G03*
X150152264Y-125977617I-1700000J-1910000D01*
G01*
D13*
%TO.C,S0*%
X187955000Y-63390000D02*
X187955000Y-63390000D01*
D14*
X193305000Y-62890000D02*
X178805000Y-62890000D01*
X193305000Y-61390000D02*
X193305000Y-62890000D01*
X193305000Y-55890000D02*
X178805000Y-55890000D01*
X178805000Y-55890000D02*
X178805000Y-57390000D01*
X178805000Y-62890000D02*
X178805000Y-61390000D01*
D13*
X188155000Y-63390000D02*
X188155000Y-63390000D01*
D14*
X193305000Y-57390000D02*
X193305000Y-55890000D01*
D13*
X187955000Y-63390000D02*
G75*
G03*
X188155000Y-63390000I100000J0D01*
G01*
X188155000Y-63390000D02*
G75*
G03*
X187955000Y-63390000I-100000J0D01*
G01*
D12*
%TO.C,BJ0*%
X165890000Y-41445000D02*
X165890000Y-56145000D01*
X159390000Y-56145000D02*
X156690000Y-56145000D01*
X156690000Y-50245000D02*
X156690000Y-41445000D01*
X156690000Y-56145000D02*
X156690000Y-54245000D01*
X166090000Y-55295000D02*
X166090000Y-56345000D01*
X156690000Y-41445000D02*
X165890000Y-41445000D01*
X165040000Y-56345000D02*
X166090000Y-56345000D01*
X165890000Y-56145000D02*
X163290000Y-56145000D01*
%TO.C,C13*%
X122190000Y-99260000D02*
X122190000Y-99275000D01*
X122190000Y-101400000D02*
X126730000Y-101400000D01*
X126730000Y-99260000D02*
X126730000Y-99275000D01*
X126730000Y-101385000D02*
X126730000Y-101400000D01*
X122190000Y-99260000D02*
X126730000Y-99260000D01*
X122190000Y-101385000D02*
X122190000Y-101400000D01*
%TO.C,U7*%
X172830000Y-131235000D02*
X172830000Y-130735000D01*
X172830000Y-107525000D02*
X172830000Y-108025000D01*
X162450000Y-107525000D02*
X162450000Y-108025000D01*
X167640000Y-131235000D02*
X172830000Y-131235000D01*
X162450000Y-108025000D02*
X162090000Y-108025000D01*
X167640000Y-107525000D02*
X172830000Y-107525000D01*
X167640000Y-107525000D02*
X162450000Y-107525000D01*
X162450000Y-131235000D02*
X162450000Y-130735000D01*
X167640000Y-131235000D02*
X162450000Y-131235000D01*
%TO.C,C1*%
X117070000Y-57350000D02*
X121610000Y-57350000D01*
X117070000Y-59490000D02*
X121610000Y-59490000D01*
X121610000Y-57350000D02*
X121610000Y-57365000D01*
X117070000Y-57350000D02*
X117070000Y-57365000D01*
X117070000Y-59475000D02*
X117070000Y-59490000D01*
X121610000Y-59475000D02*
X121610000Y-59490000D01*
%TO.C,C4*%
X173682600Y-55040000D02*
X173682600Y-53818000D01*
X173282600Y-55040000D02*
X173282600Y-53912000D01*
X173121600Y-57787000D02*
X173121600Y-56720000D01*
X172321600Y-55040000D02*
X172321600Y-54576000D01*
X172441600Y-55040000D02*
X172441600Y-54442000D01*
X172481600Y-57358000D02*
X172481600Y-56720000D01*
X172361600Y-57231000D02*
X172361600Y-56720000D01*
X172721600Y-55040000D02*
X172721600Y-54200000D01*
X172401600Y-57276000D02*
X172401600Y-56720000D01*
X173041600Y-57750000D02*
X173041600Y-56720000D01*
X173402600Y-57885000D02*
X173402600Y-56720000D01*
X171881600Y-56250000D02*
X171881600Y-55510000D01*
X173642600Y-55040000D02*
X173642600Y-53824000D01*
X172681600Y-57530000D02*
X172681600Y-56720000D01*
X172961600Y-57710000D02*
X172961600Y-56720000D01*
X172841600Y-55040000D02*
X172841600Y-54120000D01*
X173562600Y-55040000D02*
X173562600Y-53838000D01*
X173522600Y-55040000D02*
X173522600Y-53846000D01*
X172641600Y-57499000D02*
X172641600Y-56720000D01*
X173322600Y-55040000D02*
X173322600Y-53898000D01*
X172521600Y-57396000D02*
X172521600Y-56720000D01*
X172441600Y-57318000D02*
X172441600Y-56720000D01*
X172921600Y-55040000D02*
X172921600Y-54072000D01*
X173482600Y-55040000D02*
X173482600Y-53855000D01*
X172881600Y-57665000D02*
X172881600Y-56720000D01*
X172601600Y-55040000D02*
X172601600Y-54293000D01*
X173722600Y-55040000D02*
X173722600Y-53813000D01*
X173922600Y-57960000D02*
X173922600Y-53800000D01*
X172841600Y-57640000D02*
X172841600Y-56720000D01*
X172481600Y-55040000D02*
X172481600Y-54402000D01*
X173522600Y-57914000D02*
X173522600Y-56720000D01*
X173962600Y-57960000D02*
X173962600Y-53800000D01*
X173282600Y-57848000D02*
X173282600Y-56720000D01*
X173762600Y-57951000D02*
X173762600Y-56720000D01*
X173081600Y-55040000D02*
X173081600Y-53991000D01*
X172081600Y-56820000D02*
X172081600Y-54940000D01*
X172801600Y-55040000D02*
X172801600Y-54145000D01*
X172601600Y-57467000D02*
X172601600Y-56720000D01*
X172961600Y-55040000D02*
X172961600Y-54050000D01*
X172561600Y-57432000D02*
X172561600Y-56720000D01*
X172401600Y-55040000D02*
X172401600Y-54484000D01*
X172361600Y-55040000D02*
X172361600Y-54529000D01*
X171961600Y-56544000D02*
X171961600Y-55216000D01*
X172521600Y-55040000D02*
X172521600Y-54364000D01*
X172041600Y-56739000D02*
X172041600Y-55021000D01*
X173241600Y-57834000D02*
X173241600Y-56720000D01*
X172121600Y-56893000D02*
X172121600Y-54867000D01*
X173201600Y-57820000D02*
X173201600Y-56720000D01*
X172001600Y-56648000D02*
X172001600Y-55112000D01*
X172721600Y-57560000D02*
X172721600Y-56720000D01*
X173201600Y-55040000D02*
X173201600Y-53940000D01*
X173562600Y-57922000D02*
X173562600Y-56720000D01*
X172161600Y-55040000D02*
X172161600Y-54800000D01*
X173322600Y-57862000D02*
X173322600Y-56720000D01*
X173161600Y-55040000D02*
X173161600Y-53956000D01*
X172161600Y-56960000D02*
X172161600Y-56720000D01*
X173081600Y-57769000D02*
X173081600Y-56720000D01*
X173121600Y-55040000D02*
X173121600Y-53973000D01*
X172761600Y-55040000D02*
X172761600Y-54172000D01*
X176232401Y-57075000D02*
X175832401Y-57075000D01*
X172201600Y-55040000D02*
X172201600Y-54738000D01*
X173442600Y-57896000D02*
X173442600Y-56720000D01*
X173041600Y-55040000D02*
X173041600Y-54010000D01*
X172681600Y-55040000D02*
X172681600Y-54230000D01*
X172241600Y-55040000D02*
X172241600Y-54680000D01*
X173642600Y-57936000D02*
X173642600Y-56720000D01*
X173362600Y-57874000D02*
X173362600Y-56720000D01*
X172881600Y-55040000D02*
X172881600Y-54095000D01*
X173682600Y-57942000D02*
X173682600Y-56720000D01*
X173402600Y-55040000D02*
X173402600Y-53875000D01*
X173602600Y-55040000D02*
X173602600Y-53830000D01*
X172201600Y-57022000D02*
X172201600Y-56720000D01*
X172281600Y-57134000D02*
X172281600Y-56720000D01*
X173001600Y-55040000D02*
X173001600Y-54029000D01*
X172321600Y-57184000D02*
X172321600Y-56720000D01*
X173762600Y-55040000D02*
X173762600Y-53809000D01*
X176032401Y-57275000D02*
X176032401Y-56875000D01*
X173602600Y-57930000D02*
X173602600Y-56720000D01*
X173802600Y-57954000D02*
X173802600Y-53806000D01*
X173001600Y-57731000D02*
X173001600Y-56720000D01*
X172641600Y-55040000D02*
X172641600Y-54261000D01*
X172561600Y-55040000D02*
X172561600Y-54328000D01*
X173362600Y-55040000D02*
X173362600Y-53886000D01*
X172281600Y-55040000D02*
X172281600Y-54626000D01*
X173442600Y-55040000D02*
X173442600Y-53864000D01*
X173482600Y-57905000D02*
X173482600Y-56720000D01*
X172921600Y-57688000D02*
X172921600Y-56720000D01*
X172241600Y-57080000D02*
X172241600Y-56720000D01*
X173842600Y-57957000D02*
X173842600Y-53803000D01*
X173722600Y-57947000D02*
X173722600Y-56720000D01*
X171921600Y-56417000D02*
X171921600Y-55343000D01*
X173161600Y-57804000D02*
X173161600Y-56720000D01*
X172761600Y-57588000D02*
X172761600Y-56720000D01*
X172801600Y-57615000D02*
X172801600Y-56720000D01*
X173241600Y-55040000D02*
X173241600Y-53926000D01*
X173882600Y-57959000D02*
X173882600Y-53801000D01*
X176082600Y-55880000D02*
G75*
G03*
X176082600Y-55880000I-2120000J0D01*
G01*
%TO.C,C7*%
X147105000Y-86590000D02*
X147120000Y-86590000D01*
X147105000Y-91130000D02*
X147120000Y-91130000D01*
X144980000Y-91130000D02*
X144980000Y-86590000D01*
X144980000Y-86590000D02*
X144995000Y-86590000D01*
X144980000Y-91130000D02*
X144995000Y-91130000D01*
X147120000Y-91130000D02*
X147120000Y-86590000D01*
%TO.C,R4*%
X102970000Y-107950000D02*
X103040000Y-107950000D01*
X102970000Y-107950000D02*
G75*
G03*
X102970000Y-107950000I-1370000J0D01*
G01*
D13*
%TO.C,SW1*%
X144325000Y-136665000D02*
X144325000Y-136665000D01*
D14*
X152225000Y-140365000D02*
X152225000Y-137765000D01*
D13*
X144525000Y-136665000D02*
X144525000Y-136665000D01*
D14*
X146225000Y-140265000D02*
X146225000Y-137865000D01*
X146825000Y-136065000D02*
X151625000Y-136065000D01*
X146725000Y-142065000D02*
X151825000Y-142065000D01*
D13*
X144525000Y-136665000D02*
G75*
G03*
X144325000Y-136665000I-100000J0D01*
G01*
X144325000Y-136665000D02*
G75*
G03*
X144525000Y-136665000I100000J0D01*
G01*
D12*
%TO.C,C11*%
X185150000Y-134405000D02*
X185150000Y-134420000D01*
X180610000Y-132280000D02*
X185150000Y-132280000D01*
X180610000Y-134405000D02*
X180610000Y-134420000D01*
X180610000Y-134420000D02*
X185150000Y-134420000D01*
X180610000Y-132280000D02*
X180610000Y-132295000D01*
X185150000Y-132280000D02*
X185150000Y-132295000D01*
%TO.C,C0*%
X105195000Y-69580000D02*
X105210000Y-69580000D01*
X103070000Y-69580000D02*
X103085000Y-69580000D01*
X105195000Y-65040000D02*
X105210000Y-65040000D01*
X103070000Y-65040000D02*
X103085000Y-65040000D01*
X103070000Y-69580000D02*
X103070000Y-65040000D01*
X105210000Y-69580000D02*
X105210000Y-65040000D01*
%TO.C,J1*%
X148530000Y-64780000D02*
X151130000Y-64780000D01*
X148530000Y-123260000D02*
X153730000Y-123260000D01*
X151130000Y-64780000D02*
X151130000Y-62180000D01*
X148530000Y-64780000D02*
X148530000Y-123260000D01*
X153730000Y-62180000D02*
X153730000Y-123260000D01*
X151130000Y-62180000D02*
X153730000Y-62180000D01*
X148530000Y-62180000D02*
X149860000Y-62180000D01*
X148530000Y-63510000D02*
X148530000Y-62180000D01*
%TO.C,J0*%
X185475000Y-137095000D02*
X185475000Y-138425000D01*
X185475000Y-142295000D02*
X172655000Y-142295000D01*
X182875000Y-137095000D02*
X172655000Y-137095000D01*
X182875000Y-137095000D02*
X182875000Y-139695000D01*
X184145000Y-137095000D02*
X185475000Y-137095000D01*
X182875000Y-139695000D02*
X185475000Y-139695000D01*
X172655000Y-137095000D02*
X172655000Y-142295000D01*
X185475000Y-139695000D02*
X185475000Y-142295000D01*
%TO.C,C9*%
X147120000Y-116530000D02*
X147120000Y-111990000D01*
X147105000Y-111990000D02*
X147120000Y-111990000D01*
X144980000Y-111990000D02*
X144995000Y-111990000D01*
X147105000Y-116530000D02*
X147120000Y-116530000D01*
X144980000Y-116530000D02*
X144995000Y-116530000D01*
X144980000Y-116530000D02*
X144980000Y-111990000D01*
%TO.C,U10*%
X158360000Y-130220000D02*
X158360000Y-126370000D01*
X158360000Y-126370000D02*
G75*
G03*
X157772264Y-125977617I-1700000J-1910000D01*
G01*
X157782045Y-130602631D02*
G75*
G03*
X158360000Y-130220000I-1122045J2322631D01*
G01*
X154060000Y-128280000D02*
G75*
G03*
X155561193Y-130636400I2600000J0D01*
G01*
X155561193Y-125923600D02*
G75*
G03*
X154060000Y-128280000I1098807J-2356400D01*
G01*
%TO.C,U6*%
X177690000Y-108025000D02*
X177330000Y-108025000D01*
X188070000Y-131235000D02*
X188070000Y-130735000D01*
X177690000Y-107525000D02*
X177690000Y-108025000D01*
X182880000Y-131235000D02*
X188070000Y-131235000D01*
X182880000Y-107525000D02*
X188070000Y-107525000D01*
X188070000Y-107525000D02*
X188070000Y-108025000D01*
X182880000Y-131235000D02*
X177690000Y-131235000D01*
X182880000Y-107525000D02*
X177690000Y-107525000D01*
X177690000Y-131235000D02*
X177690000Y-130735000D01*
%TO.C,J3*%
X151190000Y-52085000D02*
X151190000Y-57225000D01*
X148530000Y-50815000D02*
X148530000Y-49485000D01*
X148530000Y-57225000D02*
X151190000Y-57225000D01*
X148530000Y-52085000D02*
X148530000Y-57225000D01*
X148530000Y-49485000D02*
X149860000Y-49485000D01*
X148530000Y-52085000D02*
X151190000Y-52085000D01*
%TO.C,C2*%
X109530000Y-59490000D02*
X114070000Y-59490000D01*
X109530000Y-59475000D02*
X109530000Y-59490000D01*
X109530000Y-57350000D02*
X114070000Y-57350000D01*
X114070000Y-59475000D02*
X114070000Y-59490000D01*
X114070000Y-57350000D02*
X114070000Y-57365000D01*
X109530000Y-57350000D02*
X109530000Y-57365000D01*
D11*
%TO.C,U1*%
X108395000Y-69385000D02*
X108395000Y-70510000D01*
X116870000Y-69385000D02*
X116870000Y-65235000D01*
X116870000Y-69385000D02*
X116312500Y-69385000D01*
X107920000Y-65235000D02*
X108477500Y-65235000D01*
X107920000Y-69385000D02*
X108395000Y-69385000D01*
X107920000Y-69385000D02*
X107920000Y-65235000D01*
X116870000Y-65235000D02*
X116312500Y-65235000D01*
D12*
%TO.C,U8*%
X107260000Y-102450000D02*
X106260000Y-103450000D01*
X106260000Y-126150000D02*
X129960000Y-126150000D01*
X129960000Y-102450000D02*
X119110000Y-102450000D01*
X106260000Y-103450000D02*
X106260000Y-126150000D01*
X129960000Y-126150000D02*
X129960000Y-102450000D01*
X117110000Y-102450000D02*
X107260000Y-102450000D01*
%TO.C,C3*%
X169980000Y-54340000D02*
X169980000Y-49800000D01*
X167840000Y-54340000D02*
X167855000Y-54340000D01*
X169965000Y-49800000D02*
X169980000Y-49800000D01*
X167840000Y-54340000D02*
X167840000Y-49800000D01*
X169965000Y-54340000D02*
X169980000Y-54340000D01*
X167840000Y-49800000D02*
X167855000Y-49800000D01*
D14*
%TO.C,USB0*%
X109550000Y-55740000D02*
X109550000Y-55740000D01*
X121570000Y-39250000D02*
X121570000Y-46990000D01*
X121590000Y-39250000D02*
X109550000Y-39250000D01*
X109550000Y-55740000D02*
X121570000Y-55740000D01*
X109570000Y-39250000D02*
X109550000Y-39250000D01*
X109550000Y-39250000D02*
X109550000Y-39240000D01*
X121570000Y-55740000D02*
X121570000Y-51990000D01*
X121590000Y-55740000D02*
X121570000Y-55740000D01*
X109550000Y-55750000D02*
X109550000Y-55740000D01*
X121570000Y-46990000D02*
X121590000Y-46990000D01*
X121590000Y-39240000D02*
X121590000Y-39250000D01*
X121590000Y-51990000D02*
X121590000Y-55740000D01*
X109550000Y-55740000D02*
X109550000Y-51990000D01*
X121570000Y-51990000D02*
X121590000Y-51990000D01*
X109550000Y-51990000D02*
X109550000Y-51990000D01*
X121570000Y-55750000D02*
X109550000Y-55750000D01*
X121590000Y-46990000D02*
X121590000Y-39250000D01*
X109550000Y-39240000D02*
X121590000Y-39240000D01*
X121590000Y-39250000D02*
X121570000Y-39250000D01*
X109550000Y-39250000D02*
X109550000Y-47240000D01*
X109550000Y-51990000D02*
X109550000Y-55740000D01*
X109550000Y-47240000D02*
X109570000Y-47240000D01*
X121570000Y-55740000D02*
X121570000Y-55750000D01*
X109570000Y-47240000D02*
X109570000Y-39250000D01*
D12*
%TO.C,J2*%
X142245000Y-58995000D02*
X142245000Y-61595000D01*
X143515000Y-58995000D02*
X144845000Y-58995000D01*
X144845000Y-61595000D02*
X144845000Y-64195000D01*
X142245000Y-58995000D02*
X126945000Y-58995000D01*
X144845000Y-58995000D02*
X144845000Y-60325000D01*
X142245000Y-61595000D02*
X144845000Y-61595000D01*
X144845000Y-64195000D02*
X126945000Y-64195000D01*
X126945000Y-58995000D02*
X126945000Y-64195000D01*
%TO.C,R0*%
X113130000Y-61595000D02*
X113200000Y-61595000D01*
X113130000Y-61595000D02*
G75*
G03*
X113130000Y-61595000I-1370000J0D01*
G01*
%TO.C,C14*%
X126730000Y-128470000D02*
X126730000Y-128485000D01*
X122190000Y-128470000D02*
X122190000Y-128485000D01*
X122190000Y-130610000D02*
X126730000Y-130610000D01*
X122190000Y-130595000D02*
X122190000Y-130610000D01*
X126730000Y-130595000D02*
X126730000Y-130610000D01*
X122190000Y-128470000D02*
X126730000Y-128470000D01*
%TO.C,R1*%
X118010000Y-61595000D02*
X117940000Y-61595000D01*
X120750000Y-61595000D02*
G75*
G03*
X120750000Y-61595000I-1370000J0D01*
G01*
D14*
%TO.C,PS0*%
X128890000Y-56850000D02*
X142890000Y-56850000D01*
X142890000Y-44020000D02*
X142890000Y-44020000D01*
X142890000Y-44020000D02*
X142890000Y-44020000D01*
X128890000Y-44020000D02*
X142890000Y-44020000D01*
X128890000Y-44020000D02*
X128890000Y-44020000D01*
X128890000Y-51770000D02*
X128890000Y-51770000D01*
X128890000Y-56850000D02*
X128890000Y-56850000D01*
X142890000Y-47270000D02*
X142890000Y-47270000D01*
X128890000Y-47270000D02*
X128890000Y-47270000D01*
X142890000Y-56850000D02*
X142890000Y-51770000D01*
X128890000Y-44020000D02*
X128890000Y-44020000D01*
X142890000Y-44020000D02*
X128890000Y-44020000D01*
X128890000Y-56850000D02*
X128890000Y-51770000D01*
X128890000Y-51770000D02*
X128890000Y-56850000D01*
X128890000Y-47270000D02*
X128890000Y-44020000D01*
X142890000Y-56850000D02*
X142890000Y-56850000D01*
X142890000Y-56850000D02*
X142890000Y-56850000D01*
X142890000Y-56850000D02*
X128890000Y-56850000D01*
X142890000Y-47270000D02*
X142890000Y-44020000D01*
X128890000Y-44020000D02*
X128890000Y-47270000D01*
X142890000Y-51770000D02*
X142890000Y-51770000D01*
X142890000Y-44020000D02*
X142890000Y-47270000D01*
X142890000Y-51770000D02*
X142890000Y-56850000D01*
X128890000Y-56850000D02*
X128890000Y-56850000D01*
D12*
%TO.C,U3*%
X174260000Y-68250000D02*
X158135000Y-68250000D01*
X157135000Y-69250000D02*
X157135000Y-104470000D01*
X193385000Y-104470000D02*
X193385000Y-68250000D01*
X193385000Y-68250000D02*
X176260000Y-68250000D01*
X157135000Y-104470000D02*
X193385000Y-104470000D01*
X158135000Y-68250000D02*
X157135000Y-69250000D01*
D14*
%TO.C,SW0*%
X158925000Y-140265000D02*
X158925000Y-137865000D01*
D13*
X157225000Y-136665000D02*
X157225000Y-136665000D01*
X157025000Y-136665000D02*
X157025000Y-136665000D01*
D14*
X159425000Y-142065000D02*
X164525000Y-142065000D01*
X159525000Y-136065000D02*
X164325000Y-136065000D01*
X164925000Y-140365000D02*
X164925000Y-137765000D01*
D13*
X157025000Y-136665000D02*
G75*
G03*
X157225000Y-136665000I100000J0D01*
G01*
X157225000Y-136665000D02*
G75*
G03*
X157025000Y-136665000I-100000J0D01*
G01*
D12*
%TO.C,C5*%
X99370000Y-76000000D02*
X103910000Y-76000000D01*
X99370000Y-73860000D02*
X103910000Y-73860000D01*
X99370000Y-75985000D02*
X99370000Y-76000000D01*
X103910000Y-75985000D02*
X103910000Y-76000000D01*
X99370000Y-73860000D02*
X99370000Y-73875000D01*
X103910000Y-73860000D02*
X103910000Y-73875000D01*
%TO.C,U4*%
X131080000Y-66890000D02*
X121230000Y-66890000D01*
X143930000Y-66890000D02*
X133080000Y-66890000D01*
X143930000Y-90590000D02*
X143930000Y-66890000D01*
X121230000Y-66890000D02*
X120230000Y-67890000D01*
X120230000Y-67890000D02*
X120230000Y-90590000D01*
X120230000Y-90590000D02*
X143930000Y-90590000D01*
%TO.C,U0*%
X173950000Y-46570000D02*
X173950000Y-51211000D01*
X177220000Y-46570000D02*
X177220000Y-48080000D01*
X180921000Y-46570000D02*
X180921000Y-48080000D01*
X173950000Y-46570000D02*
X184190000Y-46570000D01*
X184190000Y-46570000D02*
X184190000Y-51211000D01*
X173950000Y-51211000D02*
X184190000Y-51211000D01*
X173950000Y-48080000D02*
X184190000Y-48080000D01*
%TO.C,D0*%
X160500000Y-64580000D02*
X160500000Y-64899000D01*
X160500000Y-62101000D02*
X160500000Y-62420000D01*
X164242713Y-62419039D02*
G75*
G03*
X160876670Y-62420000I-1682713J-1080961D01*
G01*
X160500000Y-64898749D02*
G75*
G03*
X164803242Y-64580724I2060000J1398749D01*
G01*
X164803242Y-62419276D02*
G75*
G03*
X160500000Y-62101251I-2243242J-1080724D01*
G01*
X160876670Y-64580000D02*
G75*
G03*
X164242713Y-64580961I1683330J1080000D01*
G01*
%TO.C,C10*%
X169910000Y-132280000D02*
X169910000Y-132295000D01*
X165370000Y-134405000D02*
X165370000Y-134420000D01*
X165370000Y-132280000D02*
X169910000Y-132280000D01*
X165370000Y-132280000D02*
X165370000Y-132295000D01*
X165370000Y-134420000D02*
X169910000Y-134420000D01*
X169910000Y-134405000D02*
X169910000Y-134420000D01*
%TO.C,U5*%
X117075000Y-98030000D02*
X117075000Y-77230000D01*
X106950000Y-77230000D02*
X99825000Y-77230000D01*
X99825000Y-77230000D02*
X98825000Y-78230000D01*
X98825000Y-98030000D02*
X117075000Y-98030000D01*
X117075000Y-77230000D02*
X108950000Y-77230000D01*
X98825000Y-78230000D02*
X98825000Y-98030000D01*
%TO.C,U9*%
X139420000Y-127055000D02*
X141070000Y-127055000D01*
X133280000Y-101475000D02*
X133280000Y-127115000D01*
X143560000Y-101475000D02*
X133280000Y-101475000D01*
X133280000Y-127115000D02*
X143560000Y-127115000D01*
X135770000Y-101535000D02*
X135770000Y-127055000D01*
X141070000Y-101535000D02*
X135770000Y-101535000D01*
X135770000Y-127055000D02*
X137420000Y-127055000D01*
X143560000Y-127115000D02*
X143560000Y-101475000D01*
X141070000Y-127055000D02*
X141070000Y-101535000D01*
X139420000Y-127055000D02*
G75*
G03*
X137420000Y-127055000I-1000000J0D01*
G01*
%TO.C,X0*%
X119365000Y-130710000D02*
X107965000Y-130710000D01*
X107215000Y-131460000D02*
X107215000Y-143610000D01*
X120115000Y-142860000D02*
X120115000Y-131460000D01*
X107215000Y-143610000D02*
X119365000Y-143610000D01*
X107965000Y-130710000D02*
G75*
G03*
X107215000Y-131460000I0J-750000D01*
G01*
X120115000Y-131460000D02*
G75*
G03*
X119365000Y-130710000I-750000J0D01*
G01*
X119365000Y-143610000D02*
G75*
G03*
X120115000Y-142860000I0J750000D01*
G01*
%TO.C,U2*%
X123065000Y-132010000D02*
X123065000Y-142290000D01*
X141025000Y-134500000D02*
X123125000Y-134500000D01*
X141085000Y-132010000D02*
X123065000Y-132010000D01*
X123125000Y-134500000D02*
X123125000Y-136150000D01*
X123065000Y-142290000D02*
X141085000Y-142290000D01*
X123125000Y-138150000D02*
X123125000Y-139800000D01*
X123125000Y-139800000D02*
X141025000Y-139800000D01*
X141025000Y-139800000D02*
X141025000Y-134500000D01*
X141085000Y-142290000D02*
X141085000Y-132010000D01*
X123125000Y-138150000D02*
G75*
G03*
X123125000Y-136150000I0J1000000D01*
G01*
%TO.C,C12*%
X180610000Y-64970000D02*
X180610000Y-64985000D01*
X180610000Y-64970000D02*
X185150000Y-64970000D01*
X180610000Y-67110000D02*
X185150000Y-67110000D01*
X185150000Y-64970000D02*
X185150000Y-64985000D01*
X180610000Y-67095000D02*
X180610000Y-67110000D01*
X185150000Y-67095000D02*
X185150000Y-67110000D01*
%TO.C,C6*%
X144995000Y-78430000D02*
X144980000Y-78430000D01*
X147120000Y-73890000D02*
X147120000Y-78430000D01*
X144980000Y-73890000D02*
X144980000Y-78430000D01*
X147120000Y-78430000D02*
X147105000Y-78430000D01*
X147120000Y-73890000D02*
X147105000Y-73890000D01*
X144995000Y-73890000D02*
X144980000Y-73890000D01*
%TO.C,C8*%
X144980000Y-103870000D02*
X144995000Y-103870000D01*
X144980000Y-103870000D02*
X144980000Y-99330000D01*
X147105000Y-99330000D02*
X147120000Y-99330000D01*
X144980000Y-99330000D02*
X144995000Y-99330000D01*
X147120000Y-103870000D02*
X147120000Y-99330000D01*
X147105000Y-103870000D02*
X147120000Y-103870000D01*
%TO.C,R2*%
X168810000Y-63500000D02*
X168740000Y-63500000D01*
X171550000Y-63500000D02*
G75*
G03*
X171550000Y-63500000I-1370000J0D01*
G01*
%TO.C,RN0*%
X143665000Y-93215000D02*
X120465000Y-93215000D01*
X120465000Y-93215000D02*
X120465000Y-96015000D01*
X143665000Y-96015000D02*
X143665000Y-93215000D01*
X123175000Y-93215000D02*
X123175000Y-96015000D01*
X120465000Y-96015000D02*
X143665000Y-96015000D01*
%TO.C,R3*%
X102970000Y-102870000D02*
X103040000Y-102870000D01*
X102970000Y-102870000D02*
G75*
G03*
X102970000Y-102870000I-1370000J0D01*
G01*
%TO.C,TP0*%
X103100000Y-126770000D02*
X103100000Y-134870000D01*
X100100000Y-134870000D02*
X100100000Y-126770000D01*
X103100000Y-126770000D02*
X100100000Y-126770000D01*
X100100000Y-134870000D02*
X103100000Y-134870000D01*
%TD*%
M02*
